<?xml version="1.0" encoding="UTF-8" standalone="no"?>
<svg
   xmlns:dc="http://purl.org/dc/elements/1.1/"
   xmlns:cc="http://creativecommons.org/ns#"
   xmlns:rdf="http://www.w3.org/1999/02/22-rdf-syntax-ns#"
   xmlns:svg="http://www.w3.org/2000/svg"
   xmlns="http://www.w3.org/2000/svg"
   xmlns:sodipodi="http://sodipodi.sourceforge.net/DTD/sodipodi-0.dtd"
   xmlns:inkscape="http://www.inkscape.org/namespaces/inkscape"
   preserveAspectRatio="xMinYMin meet"
   width="100%"
   height="100%"
   viewBox="0 0 477.046 380.144"
   version="1.1"
   id="svg2"
   inkscape:version="0.48.4 r9939"
   sodipodi:docname="res_450_qam4_evm.svg">
  <metadata
     id="metadata281">
    <rdf:RDF>
      <cc:Work
         rdf:about="">
        <dc:format>image/svg+xml</dc:format>
        <dc:type
           rdf:resource="http://purl.org/dc/dcmitype/StillImage" />
        <dc:title />
      </cc:Work>
    </rdf:RDF>
  </metadata>
  <defs
     id="defs279">
    <clipPath
       id="ID000010">
      <rect
         x="423.75"
         y="38.75"
         width="78.5"
         height="47.625"
         id="rect208" />
    </clipPath>
  </defs>
  <sodipodi:namedview
     pagecolor="#ffffff"
     bordercolor="#666666"
     borderopacity="1"
     objecttolerance="10"
     gridtolerance="10"
     guidetolerance="10"
     inkscape:pageopacity="0"
     inkscape:pageshadow="2"
     inkscape:window-width="1920"
     inkscape:window-height="1033"
     id="namedview277"
     showgrid="false"
     fit-margin-top="0"
     fit-margin-left="0"
     fit-margin-right="0"
     fit-margin-bottom="0"
     inkscape:zoom="1.1238095"
     inkscape:cx="313.76555"
     inkscape:cy="234.9818"
     inkscape:window-x="0"
     inkscape:window-y="25"
     inkscape:window-maximized="1"
     inkscape:current-layer="svg2" />
  <desc
     id="desc4">Matlab Figure Converted by PLOT2SVG written by Juerg Schwizer</desc>
  <g
     id="ID000000"
     transform="translate(-32.6875,-27.325)">
    <clipPath
       id="ID000001">
      <rect
         id="rect11"
         height="342.29999"
         width="434"
         y="31.5"
         x="72.800003" />
    </clipPath>
    <polygon
       style="fill:#ffffff;fill-opacity:1;stroke:none"
       id="polygon13"
       points="72.8,373.8 506.8,373.8 506.8,31.5 72.8,31.5 " />
    <polygon
       style="fill:#ffffff;fill-opacity:1;stroke:none"
       id="polygon15"
       points="72.8,31.5 506.8,31.5 506.8,31.5 72.8,31.5 " />
    <polygon
       style="fill:#ffffff;fill-opacity:1;stroke:none"
       id="polygon17"
       points="72.8,373.8 72.8,373.8 72.8,31.5 72.8,31.5 " />
    <g
       id="g19">
      <g
         clip-path="url(#ID000001)"
         id="ID000002">
        <polyline
           style="fill:none;stroke:#0000ff;stroke-width:0.5pt;stroke-dasharray:none"
           id="polyline22"
           points="72.800,347.544 72.961,353.761 73.121,351.575 73.282,339.583 73.443,353.925 73.604,353.758 73.764,341.251 73.925,342.568 74.086,352.398 74.247,344.873 74.407,351.666 74.568,347.616 74.729,354.384 74.890,348.312 75.050,349.136 75.211,352.080 75.372,354.082 75.533,352.441 75.693,354.174 75.854,351.649 76.015,351.411 76.176,355.615 76.336,351.456 76.497,348.282 76.658,348.128 76.819,352.054 76.979,357.153 77.140,358.185 77.301,347.932 77.461,348.101 77.622,341.773 77.783,347.592 77.944,347.621 78.104,348.564 78.265,344.432 78.426,345.339 78.587,356.416 78.747,348.785 78.908,350.222 79.069,341.335 79.230,349.392 79.390,347.264 79.551,345.512 79.712,349.048 79.873,350.567 80.033,352.722 80.194,339.619 80.355,354.556 80.516,340.397 80.676,353.785 80.837,359.217 80.998,345.220 81.159,350.574 81.319,348.195 81.480,354.361 81.641,357.982 81.801,348.571 81.962,357.092 82.123,349.571 82.284,356.444 82.444,345.214 82.605,348.540 82.766,347.735 82.927,345.283 83.087,346.857 83.248,347.459 83.409,343.854 83.570,355.119 83.730,356.560 83.891,345.568 84.052,347.910 84.213,345.942 84.373,350.458 84.534,344.653 84.695,355.835 84.856,345.008 85.016,359.228 85.177,350.227 85.338,351.889 85.499,344.823 85.659,343.596 85.820,343.925 85.981,350.379 86.141,349.615 86.302,350.538 86.463,341.075 86.624,359.137 86.784,355.064 86.945,350.487 87.106,353.568 87.267,363.201 87.427,355.498 87.588,344.992 87.749,351.827 87.910,344.361 88.070,354.879 88.231,348.292 88.392,346.104 88.553,342.793 88.713,354.977 88.874,346.593 89.035,350.819 89.196,355.746 89.356,348.436 89.517,345.001 89.678,359.401 89.839,349.421 89.999,347.741 90.160,353.717 90.321,343.889 90.481,357.451 90.642,354.176 90.803,348.050 90.964,344.208 91.124,347.430 91.285,351.078 91.446,345.056 91.607,349.050 91.767,355.495 91.928,354.728 92.089,352.567 92.250,358.746 92.410,354.925 92.571,346.103 92.732,349.688 92.893,352.372 93.053,344.373 93.214,355.006 93.375,342.149 93.536,351.885 93.696,349.816 93.857,348.117 94.018,353.709 94.179,352.015 94.339,344.380 94.500,342.770 94.661,356.487 94.821,354.336 94.982,350.040 95.143,350.976 95.304,345.383 95.464,350.281 95.625,345.953 95.786,350.400 95.947,350.902 96.107,343.491 96.268,347.767 96.429,355.038 96.590,348.721 96.750,349.695 96.911,352.091 97.072,353.657 97.233,352.085 97.393,362.525 97.554,355.001 97.715,345.716 97.876,342.625 98.036,353.463 98.197,348.012 98.358,340.706 98.519,353.246 98.679,342.523 98.840,343.560 99.001,345.612 99.161,347.044 99.322,352.871 99.483,345.646 99.644,349.165 99.804,351.613 99.965,353.853 100.126,350.707 100.287,343.594 100.447,357.637 100.608,357.400 100.769,345.755 100.930,350.794 101.090,348.609 101.251,342.286 101.412,345.385 101.573,347.422 101.733,340.599 101.894,354.409 102.055,345.272 102.216,348.721 102.376,346.270 102.537,348.559 102.698,344.818 102.859,353.854 103.019,345.830 103.180,350.233 103.341,342.240 103.501,353.913 103.662,349.629 103.823,355.644 103.984,346.640 104.144,349.072 104.305,354.252 104.466,355.671 104.627,343.534 104.787,353.304 104.948,357.911 105.109,344.448 105.270,348.874 105.430,352.091 105.591,359.086 105.752,353.502 105.913,352.366 106.073,348.042 106.234,346.741 106.395,351.229 106.556,346.697 106.716,348.302 106.877,345.992 107.038,354.041 107.199,357.752 107.359,349.647 107.520,354.119 107.681,341.973 107.841,341.351 108.002,343.659 108.163,350.171 108.324,358.317 108.484,345.149 108.645,352.207 108.806,354.893 108.967,346.457 109.127,351.300 109.288,341.014 109.449,355.280 109.610,348.806 109.770,343.138 109.931,347.686 110.092,353.367 110.253,358.095 110.413,354.868 110.574,347.671 110.735,357.244 110.896,349.001 111.056,337.317 111.217,350.142 111.378,358.483 111.539,353.607 111.699,348.419 111.860,351.487 112.021,340.287 112.181,341.178 112.342,349.876 112.503,340.344 112.664,351.389 112.824,347.613 112.985,341.499 113.146,348.885 113.307,353.608 113.467,348.400 113.628,344.715 113.789,347.578 113.950,348.792 114.110,358.895 114.271,360.871 114.432,345.963 114.593,350.410 114.753,343.438 114.914,351.994 115.075,351.237 115.236,341.349 115.396,351.922 115.557,352.309 115.718,344.732 115.879,351.952 116.039,344.906 116.200,343.699 116.361,360.074 116.521,347.697 116.682,342.408 116.843,340.755 117.004,340.784 117.164,350.017 117.325,344.447 117.486,359.258 117.647,352.120 117.807,347.972 117.968,346.932 118.129,347.236 118.290,352.112 118.450,347.518 118.611,352.458 118.772,352.064 118.933,355.019 119.093,349.306 119.254,340.693 119.415,344.727 119.576,348.952 119.736,339.712 119.897,349.248 120.058,343.932 120.219,343.703 120.379,351.183 120.540,350.298 120.701,340.731 120.861,351.267 121.022,345.098 121.183,354.800 121.344,351.814 121.504,356.399 121.665,342.103 121.826,338.224 121.987,352.156 122.147,354.599 122.308,354.277 122.469,352.489 122.630,357.542 122.790,354.578 122.951,356.085 123.112,351.477 123.273,345.904 123.433,353.440 123.594,352.838 123.755,346.333 123.916,344.842 124.076,358.466 124.237,345.070 124.398,343.868 124.559,351.478 124.719,346.646 124.880,346.629 125.041,349.976 125.201,353.852 125.362,354.825 125.523,350.297 125.684,350.772 125.844,350.899 126.005,353.234 126.166,350.304 126.327,350.404 126.487,352.995 126.648,360.503 126.809,354.031 126.970,349.950 127.130,351.995 127.291,354.508 127.452,351.644 127.613,344.389 127.773,349.199 127.934,347.218 128.095,351.890 128.256,348.868 128.416,343.614 128.577,348.412 128.738,342.523 128.899,345.005 129.059,360.060 129.220,348.481 129.381,348.413 129.541,355.833 129.702,349.818 129.863,352.901 130.024,352.810 130.184,347.159 130.345,351.873 130.506,348.990 130.667,343.302 130.827,344.178 130.988,344.848 131.149,351.571 131.310,354.447 131.470,346.176 131.631,347.526 131.792,344.796 131.953,347.251 132.113,342.345 132.274,344.908 132.435,343.255 132.596,350.200 132.756,349.283 132.917,351.673 133.078,340.826 133.239,345.157 133.399,352.597 133.560,343.988 133.721,345.493 133.881,345.583 134.042,362.155 134.203,351.482 134.364,348.284 134.524,349.824 134.685,350.465 134.846,347.507 135.007,352.456 135.167,357.052 135.328,346.217 135.489,352.423 135.650,346.351 135.810,347.149 135.971,353.334 136.132,349.964 136.293,351.958 136.453,341.110 136.614,343.646 136.775,350.095 136.936,346.259 137.096,352.435 137.257,349.389 137.418,339.830 137.579,353.696 137.739,355.108 137.900,342.698 138.061,353.859 138.221,348.145 138.382,347.782 138.543,356.529 138.704,357.980 138.864,350.805 139.025,353.332 139.186,359.457 139.347,355.943 139.507,354.113 139.668,343.469 139.829,348.857 139.990,350.044 140.150,352.323 140.311,344.650 140.472,354.949 140.633,347.205 140.793,346.859 140.954,349.094 141.115,341.758 141.276,356.901 141.436,342.277 141.597,343.990 141.758,351.282 141.919,349.119 142.079,359.414 142.240,350.995 142.401,349.910 142.561,347.249 142.722,348.267 142.883,356.021 143.044,349.810 143.204,348.147 143.365,344.934 143.526,344.918 143.687,351.858 143.847,345.483 144.008,349.595 144.169,346.733 144.330,353.822 144.490,349.846 144.651,352.169 144.812,351.875 144.973,353.379 145.133,349.755 145.294,350.529 145.455,346.975 145.616,352.748 145.776,345.033 145.937,357.747 146.098,348.414 146.259,352.467 146.419,354.468 146.580,344.608 146.741,356.513 146.901,348.424 147.062,348.051 147.223,357.225 147.384,348.982 147.544,353.428 147.705,346.199 147.866,360.461 148.027,356.817 148.187,351.241 148.348,350.078 148.509,347.050 148.670,345.977 148.830,362.481 148.991,352.467 149.152,345.476 149.313,343.527 149.473,335.710 149.634,352.667 149.795,357.102 149.956,336.600 150.116,340.985 150.277,344.021 150.438,348.197 150.599,355.721 150.759,347.212 150.920,344.182 151.081,338.223 151.241,343.447 151.402,344.587 151.563,350.475 151.724,353.121 151.884,352.133 152.045,353.405 152.206,352.919 152.367,351.182 152.527,356.149 152.688,350.004 152.849,346.825 153.010,349.881 153.170,352.499 153.331,352.823 153.492,345.954 153.653,352.979 153.813,351.762 153.974,351.779 154.135,349.930 154.296,348.798 154.456,344.205 154.617,350.593 154.778,349.999 154.939,350.203 155.099,354.241 155.260,345.834 155.421,348.269 155.581,351.812 155.742,351.215 155.903,351.608 156.064,347.648 156.224,343.533 156.385,346.258 156.546,350.506 156.707,353.757 156.867,339.713 157.028,348.753 157.189,347.185 157.350,346.374 157.510,351.556 157.671,344.620 157.832,354.649 157.993,351.608 158.153,348.781 158.314,349.279 158.475,346.122 158.636,347.572 158.796,342.019 158.957,354.132 159.118,350.878 159.279,352.929 159.439,343.493 159.600,348.694 159.761,351.552 159.921,349.344 160.082,345.921 160.243,357.825 160.404,360.230 160.564,346.341 160.725,348.258 160.886,351.710 161.047,349.888 161.207,352.767 161.368,348.469 161.529,353.234 161.690,348.555 161.850,347.909 162.011,344.744 162.172,348.643 162.333,349.804 162.493,346.760 162.654,342.957 162.815,344.781 162.976,341.260 163.136,351.882 163.297,349.537 163.458,341.801 163.619,347.284 163.779,343.854 163.940,350.065 164.101,360.034 164.261,343.955 164.422,348.193 164.583,353.711 164.744,345.717 164.904,350.598 165.065,349.103 165.226,357.222 165.387,356.927 165.547,353.784 165.708,356.454 165.869,351.340 166.030,343.565 166.190,351.185 166.351,359.457 166.512,351.246 166.673,357.429 166.833,349.087 166.994,350.123 167.155,351.896 167.316,358.006 167.476,347.775 167.637,362.544 167.798,343.558 167.959,351.481 168.119,355.485 168.280,348.406 168.441,346.498 168.601,355.646 168.762,347.391 168.923,331.416 169.084,339.512 169.244,346.057 169.405,347.893 169.566,353.138 169.727,331.702 169.887,344.622 170.048,349.712 170.209,355.258 170.370,348.587 170.530,349.846 170.691,346.277 170.852,352.196 171.013,355.630 171.173,352.261 171.334,353.133 171.495,356.806 171.656,352.392 171.816,346.383 171.977,350.698 172.138,347.322 172.299,364.369 172.459,348.882 172.620,360.936 172.781,358.267 172.941,346.436 173.102,356.647 173.263,349.971 173.424,346.225 173.584,343.508 173.745,352.074 173.906,356.485 174.067,348.340 174.227,354.012 174.388,350.148 174.549,346.505 174.710,351.261 174.870,365.409 175.031,347.146 175.192,349.993 175.353,353.332 175.513,351.795 175.674,347.440 175.835,353.262 175.996,346.562 176.156,345.993 176.317,350.823 176.478,354.325 176.639,346.727 176.799,351.976 176.960,355.863 177.121,348.710 177.281,353.175 177.442,347.676 177.603,355.551 177.764,346.599 177.924,345.180 178.085,352.250 178.246,343.941 178.407,347.957 178.567,345.099 178.728,349.575 178.889,348.537 179.050,346.810 179.210,352.840 179.371,344.452 179.532,352.567 179.693,341.029 179.853,355.892 180.014,349.265 180.175,339.508 180.336,350.628 180.496,353.900 180.657,342.333 180.818,342.893 180.979,350.292 181.139,344.127 181.300,344.950 181.461,353.873 181.621,350.425 181.782,347.737 181.943,355.484 182.104,348.185 182.264,340.447 182.425,337.641 182.586,362.479 182.747,355.674 182.907,350.500 183.068,359.597 183.229,355.855 183.390,340.438 183.550,346.146 183.711,349.031 183.872,345.154 184.033,349.815 184.193,339.556 184.354,352.379 184.515,351.956 184.676,349.642 184.836,355.528 184.997,344.638 185.158,346.717 185.319,357.011 185.479,346.466 185.640,339.439 185.801,342.482 185.961,348.839 186.122,346.116 186.283,348.735 186.444,354.487 186.604,355.488 186.765,345.010 186.926,342.526 187.087,346.856 187.247,355.669 187.408,347.215 187.569,342.434 187.730,345.097 187.890,345.865 188.051,341.587 188.212,343.963 188.373,353.240 188.533,354.537 188.694,349.178 188.855,347.179 189.016,346.398 189.176,340.911 189.337,352.573 189.498,356.081 189.659,345.833 189.819,341.201 189.980,348.866 190.141,351.191 190.301,353.526 190.462,339.398 190.623,350.057 190.784,352.404 190.944,349.119 191.105,340.101 191.266,351.892 191.427,354.097 191.587,347.270 191.748,345.077 191.909,351.393 192.070,345.535 192.230,346.889 192.391,346.614 192.552,349.351 192.713,352.598 192.873,357.718 193.034,345.562 193.195,328.418 193.356,349.200 193.516,348.190 193.677,351.741 193.838,353.509 193.999,346.637 194.159,353.678 194.320,348.161 194.481,348.354 194.641,352.506 194.802,349.950 194.963,349.412 195.124,344.172 195.284,355.160 195.445,353.346 195.606,344.735 195.767,344.802 195.927,354.403 196.088,348.269 196.249,343.026 196.410,351.612 196.570,352.727 196.731,359.190 196.892,352.498 197.053,348.021 197.213,353.761 197.374,352.493 197.535,354.248 197.696,345.035 197.856,349.533 198.017,355.397 198.178,348.291 198.339,342.474 198.499,348.490 198.660,354.347 198.821,349.677 198.981,350.673 199.142,348.354 199.303,349.551 199.464,354.192 199.624,350.086 199.785,352.445 199.946,353.452 200.107,351.709 200.267,357.139 200.428,361.996 200.589,351.392 200.750,351.375 200.910,351.677 201.071,347.558 201.232,348.174 201.393,351.851 201.553,352.553 201.714,348.631 201.875,347.409 202.036,349.692 202.196,342.384 202.357,347.464 202.518,347.935 202.679,350.327 202.839,341.137 203.000,355.038 203.161,348.452 203.321,353.003 203.482,349.177 203.643,350.697 203.804,348.748 203.964,335.913 204.125,347.094 204.286,353.540 204.447,344.572 204.607,354.210 204.768,348.932 204.929,349.074 205.090,355.597 205.250,353.979 205.411,344.671 205.572,351.069 205.733,342.860 205.893,353.393 206.054,351.114 206.215,360.517 206.376,350.233 206.536,343.143 206.697,352.572 206.858,344.648 207.019,345.259 207.179,345.062 207.340,354.671 207.501,357.383 207.661,354.315 207.822,346.450 207.983,345.864 208.144,348.808 208.304,354.379 208.465,343.681 208.626,345.969 208.787,350.549 208.947,347.574 209.108,354.659 209.269,354.011 209.430,349.283 209.590,336.561 209.751,342.533 209.912,348.838 210.073,350.802 210.233,347.656 210.394,347.608 210.555,356.557 210.716,341.893 210.876,350.493 211.037,350.379 211.198,344.015 211.359,354.783 211.519,349.197 211.680,350.961 211.841,345.287 212.001,346.793 212.162,352.431 212.323,349.279 212.484,348.987 212.644,352.598 212.805,343.856 212.966,355.051 213.127,355.183 213.287,344.590 213.448,348.549 213.609,354.663 213.770,343.844 213.930,360.629 214.091,347.987 214.252,349.690 214.413,355.104 214.573,357.364 214.734,346.987 214.895,350.567 215.056,352.545 215.216,345.081 215.377,354.757 215.538,352.854 215.699,351.613 215.859,346.455 216.020,348.213 216.181,342.210 216.341,345.578 216.502,353.281 216.663,362.177 216.824,347.276 216.984,353.252 217.145,355.257 217.306,341.511 217.467,346.298 217.627,350.906 217.788,339.348 217.949,356.012 218.110,359.087 218.270,339.095 218.431,342.711 218.592,350.465 218.753,349.282 218.913,333.336 219.074,346.158 219.235,351.909 219.396,341.560 219.556,347.757 219.717,349.274 219.878,349.539 220.039,341.110 220.199,350.818 220.360,345.737 220.521,350.660 220.681,360.519 220.842,342.642 221.003,362.442 221.164,350.092 221.324,343.417 221.485,349.424 221.646,348.922 221.807,343.166 221.967,357.759 222.128,349.297 222.289,349.061 222.450,337.444 222.610,345.900 222.771,345.478 222.932,354.315 223.093,348.185 223.253,343.993 223.414,351.148 223.575,355.592 223.736,355.825 223.896,347.060 224.057,351.955 224.218,346.320 224.379,352.557 224.539,349.473 224.700,356.496 224.861,357.921 225.021,347.864 225.182,350.061 225.343,350.576 225.504,347.429 225.664,338.929 225.825,351.798 225.986,344.143 226.147,339.141 226.307,334.616 226.468,343.424 226.629,351.205 226.790,341.174 226.950,343.995 227.111,352.137 227.272,355.511 227.433,357.177 227.593,351.653 227.754,342.729 227.915,344.446 228.076,353.694 228.236,349.264 228.397,353.322 228.558,347.768 228.719,342.545 228.879,336.865 229.040,352.509 229.201,345.024 229.361,349.675 229.522,357.986 229.683,348.957 229.844,341.765 230.004,338.513 230.165,353.401 230.326,348.240 230.487,348.098 230.647,348.461 230.808,350.428 230.969,348.551 231.130,356.600 231.290,351.257 231.451,339.671 231.612,342.646 231.773,340.485 231.933,339.360 232.094,354.182 232.255,348.578 232.416,347.825 232.576,345.181 232.737,350.947 232.898,356.621 233.059,358.326 233.219,342.906 233.380,347.223 233.541,352.923 233.701,354.928 233.862,346.950 234.023,350.346 234.184,344.088 234.344,345.161 234.505,356.117 234.666,349.559 234.827,349.040 234.987,341.305 235.148,350.362 235.309,353.029 235.470,346.575 235.630,350.798 235.791,349.831 235.952,351.865 236.113,349.497 236.273,354.585 236.434,345.632 236.595,351.227 236.756,345.639 236.916,348.171 237.077,355.632 237.238,348.047 237.399,347.709 237.559,350.864 237.720,348.695 237.881,353.466 238.041,352.616 238.202,353.959 238.363,345.503 238.524,352.742 238.684,359.936 238.845,347.364 239.006,358.853 239.167,353.827 239.327,342.550 239.488,349.740 239.649,341.830 239.810,348.618 239.970,354.961 240.131,340.026 240.292,344.865 240.453,362.950 240.613,347.893 240.774,349.425 240.935,350.469 241.096,354.425 241.256,349.118 241.417,346.695 241.578,347.685 241.739,347.446 241.899,347.308 242.060,348.045 242.221,347.157 242.381,356.914 242.542,355.237 242.703,352.522 242.864,352.968 243.024,348.743 243.185,345.849 243.346,359.971 243.507,347.490 243.667,351.082 243.828,356.415 243.989,348.654 244.150,349.638 244.310,343.689 244.471,345.491 244.632,349.636 244.793,351.041 244.953,353.388 245.114,346.020 245.275,345.176 245.436,352.337 245.596,349.781 245.757,352.335 245.918,344.392 246.079,354.206 246.239,347.237 246.400,357.042 246.561,340.349 246.721,351.800 246.882,353.052 247.043,355.668 247.204,352.654 247.364,346.224 247.525,353.221 247.686,353.396 247.847,353.671 248.007,346.663 248.168,354.138 248.329,338.463 248.490,355.954 248.650,343.941 248.811,347.608 248.972,345.934 249.133,349.152 249.293,352.473 249.454,343.679 249.615,348.140 249.776,347.817 249.936,352.150 250.097,352.167 250.258,352.397 250.419,343.935 250.579,354.392 250.740,353.265 250.901,345.535 251.061,360.285 251.222,356.553 251.383,351.615 251.544,353.071 251.704,346.562 251.865,344.610 252.026,347.147 252.187,347.188 252.347,339.509 252.508,343.019 252.669,352.751 252.830,356.854 252.990,338.789 253.151,343.444 253.312,348.246 253.473,351.786 253.633,355.724 253.794,347.683 253.955,345.094 254.116,345.212 254.276,351.754 254.437,349.908 254.598,355.805 254.759,353.063 254.919,357.510 255.080,343.889 255.241,356.389 255.401,351.133 255.562,338.958 255.723,346.455 255.884,353.646 256.044,346.175 256.205,346.747 256.366,352.458 256.527,353.255 256.687,350.673 256.848,355.335 257.009,357.641 257.170,350.884 257.330,348.136 257.491,350.093 257.652,342.608 257.813,356.861 257.973,352.469 258.134,348.853 258.295,358.070 258.456,354.290 258.616,355.792 258.777,358.199 258.938,346.174 259.099,338.587 259.259,352.751 259.420,354.603 259.581,349.082 259.741,356.461 259.902,348.875 260.063,350.676 260.224,335.924 260.384,342.260 260.545,355.590 260.706,359.309 260.867,348.044 261.027,350.827 261.188,351.722 261.349,357.025 261.510,343.658 261.670,347.822 261.831,343.954 261.992,355.391 262.153,350.358 262.313,349.222 262.474,348.016 262.635,348.769 262.796,346.392 262.956,344.820 263.117,347.781 263.278,345.923 263.439,342.230 263.599,347.351 263.760,354.939 263.921,348.230 264.081,351.546 264.242,345.349 264.403,341.252 264.564,350.859 264.724,353.037 264.885,351.302 265.046,353.149 265.207,339.975 265.367,349.490 265.528,347.132 265.689,353.847 265.850,350.500 266.010,344.126 266.171,346.945 266.332,340.658 266.493,354.912 266.653,351.150 266.814,352.563 266.975,354.670 267.136,346.464 267.296,346.921 267.457,343.740 267.618,347.781 267.779,346.016 267.939,353.210 268.100,345.170 268.261,354.877 268.421,348.752 268.582,353.139 268.743,345.130 268.904,352.794 269.064,348.943 269.225,344.536 269.386,351.200 269.547,355.777 269.707,351.523 269.868,345.765 270.029,340.432 270.190,341.311 270.350,344.124 270.511,351.908 270.672,344.758 270.833,346.550 270.993,347.811 271.154,356.303 271.315,347.778 271.476,350.986 271.636,339.376 271.797,346.804 271.958,347.905 272.119,345.758 272.279,353.450 272.440,353.553 272.601,352.615 272.761,352.127 272.922,359.426 273.083,350.082 273.244,344.914 273.404,343.264 273.565,343.588 273.726,349.718 273.887,350.972 274.047,349.607 274.208,358.506 274.369,349.046 274.530,343.086 274.690,353.309 274.851,343.558 275.012,344.418 275.173,358.117 275.333,350.140 275.494,348.021 275.655,351.475 275.816,341.530 275.976,359.822 276.137,354.734 276.298,353.880 276.459,353.688 276.619,352.455 276.780,351.611 276.941,355.279 277.101,350.916 277.262,348.716 277.423,352.946 277.584,360.601 277.744,348.533 277.905,350.582 278.066,347.499 278.227,340.978 278.387,353.421 278.548,359.027 278.709,342.749 278.870,348.510 279.030,351.697 279.191,355.294 279.352,350.455 279.513,345.963 279.673,345.634 279.834,346.885 279.995,349.750 280.156,351.061 280.316,344.027 280.477,352.609 280.638,343.310 280.799,348.350 280.959,351.815 281.120,336.529 281.281,354.583 281.441,353.330 281.602,346.867 281.763,352.515 281.924,340.541 282.084,349.948 282.245,350.507 282.406,357.447 282.567,351.059 282.727,341.700 282.888,338.275 283.049,350.816 283.210,349.329 283.370,346.476 283.531,358.164 283.692,349.270 283.853,344.198 284.013,345.946 284.174,352.682 284.335,357.163 284.496,349.132 284.656,351.395 284.817,342.932 284.978,352.185 285.139,336.348 285.299,336.866 285.460,351.309 285.621,349.730 285.781,346.910 285.942,344.915 286.103,353.048 286.264,349.013 286.424,362.108 286.585,347.946 286.746,349.763 286.907,349.716 287.067,351.818 287.228,353.684 287.389,352.839 287.550,342.860 287.710,353.322 287.871,355.000 288.032,354.038 288.193,341.606 288.353,345.480 288.514,348.013 288.675,341.310 288.836,344.620 288.996,356.409 289.157,345.106 289.318,352.397 289.479,350.740 289.639,352.142 289.800,356.992 289.961,349.631 290.121,344.944 290.282,346.097 290.443,355.310 290.604,347.668 290.764,349.985 290.925,350.367 291.086,345.199 291.247,348.334 291.407,344.276 291.568,346.136 291.729,355.543 291.890,350.360 292.050,348.863 292.211,354.063 292.372,339.597 292.533,349.868 292.693,345.103 292.854,342.638 293.015,353.594 293.176,357.921 293.336,354.048 293.497,350.911 293.658,353.247 293.819,350.542 293.979,357.564 294.140,355.943 294.301,352.437 294.461,347.686 294.622,348.720 294.783,352.035 294.944,351.277 295.104,348.395 295.265,349.225 295.426,349.620 295.587,352.332 295.747,351.294 295.908,350.421 296.069,347.787 296.230,350.159 296.390,347.681 296.551,347.879 296.712,351.994 296.873,352.045 297.033,344.604 297.194,350.278 297.355,361.989 297.516,343.371 297.676,344.492 297.837,336.709 297.998,351.612 298.159,357.961 298.319,340.325 298.480,352.144 298.641,344.100 298.801,357.246 298.962,349.311 299.123,347.856 299.284,349.256 299.444,359.306 299.605,351.256 299.766,351.762 299.927,352.518 300.087,350.387 300.248,354.121 300.409,350.095 300.570,344.426 300.730,335.633 300.891,347.782 301.052,355.693 301.213,353.208 301.373,350.875 301.534,354.032 301.695,349.650 301.856,360.236 302.016,348.205 302.177,357.420 302.338,346.885 302.499,347.614 302.659,354.274 302.820,353.453 302.981,363.721 303.141,349.866 303.302,351.524 303.463,351.157 303.624,352.278 303.784,352.340 303.945,351.083 304.106,350.127 304.267,347.028 304.427,351.002 304.588,357.569 304.749,347.911 304.910,352.066 305.070,342.990 305.231,350.515 305.392,349.480 305.553,347.839 305.713,355.346 305.874,348.629 306.035,344.210 306.196,354.727 306.356,360.759 306.517,343.128 306.678,350.593 306.839,350.026 306.999,348.297 307.160,349.359 307.321,347.440 307.481,350.629 307.642,353.035 307.803,357.096 307.964,343.990 308.124,348.915 308.285,346.217 308.446,352.296 308.607,349.310 308.767,351.806 308.928,351.725 309.089,349.935 309.250,341.272 309.410,350.034 309.571,346.951 309.732,357.601 309.893,357.005 310.053,339.843 310.214,357.056 310.375,352.588 310.536,359.967 310.696,355.045 310.857,347.117 311.018,356.955 311.179,347.368 311.339,348.400 311.500,350.362 311.661,345.909 311.821,345.338 311.982,347.670 312.143,356.175 312.304,353.631 312.464,340.610 312.625,352.465 312.786,349.961 312.947,340.538 313.107,363.186 313.268,353.690 313.429,354.357 313.590,356.319 313.750,348.857 313.911,345.359 314.072,348.435 314.233,341.264 314.393,346.674 314.554,354.550 314.715,354.210 314.876,344.020 315.036,354.593 315.197,350.704 315.358,338.615 315.519,347.979 315.679,351.746 315.840,346.151 316.001,340.164 316.161,343.704 316.322,350.283 316.483,351.532 316.644,352.412 316.804,348.099 316.965,349.305 317.126,350.369 317.287,352.730 317.447,349.667 317.608,354.369 317.769,353.081 317.930,342.318 318.090,343.081 318.251,342.768 318.412,346.565 318.573,356.376 318.733,349.377 318.894,353.530 319.055,354.600 319.216,346.764 319.376,339.165 319.537,348.083 319.698,346.982 319.859,352.424 320.019,349.527 320.180,353.471 320.341,357.003 320.501,357.232 320.662,350.142 320.823,353.204 320.984,343.997 321.144,343.296 321.305,350.528 321.466,347.395 321.627,350.533 321.787,354.130 321.948,355.909 322.109,349.367 322.270,336.679 322.430,354.048 322.591,347.360 322.752,352.073 322.913,346.843 323.073,352.026 323.234,351.723 323.395,356.405 323.556,350.669 323.716,350.220 323.877,354.280 324.038,349.172 324.199,354.601 324.359,355.528 324.520,346.213 324.681,355.758 324.841,344.509 325.002,353.771 325.163,350.033 325.324,335.965 325.484,345.770 325.645,362.173 325.806,346.270 325.967,347.314 326.127,354.205 326.288,352.890 326.449,348.449 326.610,342.739 326.770,337.994 326.931,346.970 327.092,350.457 327.253,343.414 327.413,344.265 327.574,342.780 327.735,344.117 327.896,342.072 328.056,348.277 328.217,350.382 328.378,344.079 328.539,352.669 328.699,349.680 328.860,349.571 329.021,343.161 329.181,339.697 329.342,351.627 329.503,349.142 329.664,352.336 329.824,357.758 329.985,355.583 330.146,357.435 330.307,349.332 330.467,350.588 330.628,345.708 330.789,346.888 330.950,349.291 331.110,342.340 331.271,345.809 331.432,348.517 331.593,349.919 331.753,352.510 331.914,343.494 332.075,347.969 332.236,337.571 332.396,351.553 332.557,347.515 332.718,355.833 332.879,342.468 333.039,349.888 333.200,344.346 333.361,347.245 333.521,344.921 333.682,346.005 333.843,345.407 334.004,349.548 334.164,333.046 334.325,346.403 334.486,344.138 334.647,355.526 334.807,354.161 334.968,351.724 335.129,347.582 335.290,342.908 335.450,345.763 335.611,345.962 335.772,341.647 335.933,349.915 336.093,341.171 336.254,349.723 336.415,350.280 336.576,355.914 336.736,340.471 336.897,341.769 337.058,340.536 337.219,336.227 337.379,345.682 337.540,343.068 337.701,350.367 337.861,348.181 338.022,342.501 338.183,346.256 338.344,343.092 338.504,350.192 338.665,348.715 338.826,347.903 338.987,351.644 339.147,343.096 339.308,345.382 339.469,350.440 339.630,346.666 339.790,347.094 339.951,348.788 340.112,342.099 340.273,351.543 340.433,359.523 340.594,348.319 340.755,341.643 340.916,344.136 341.076,351.667 341.237,347.385 341.398,350.117 341.559,356.567 341.719,352.441 341.880,348.463 342.041,345.595 342.201,337.327 342.362,344.460 342.523,339.709 342.684,346.296 342.844,333.890 343.005,351.653 343.166,354.381 343.327,345.395 343.487,337.170 343.648,347.044 343.809,339.666 343.970,347.251 344.130,360.086 344.291,350.791 344.452,353.835 344.613,347.274 344.773,353.355 344.934,341.089 345.095,345.698 345.256,354.126 345.416,357.784 345.577,361.224 345.738,354.518 345.899,346.183 346.059,346.216 346.220,352.307 346.381,343.755 346.541,350.919 346.702,352.055 346.863,345.126 347.024,348.692 347.184,356.326 347.345,356.515 347.506,344.749 347.667,346.576 347.827,351.329 347.988,352.585 348.149,351.766 348.310,354.887 348.470,340.769 348.631,348.155 348.792,351.843 348.953,349.719 349.113,353.879 349.274,349.186 349.435,352.785 349.596,343.444 349.756,352.164 349.917,344.968 350.078,343.931 350.239,345.675 350.399,351.833 350.560,348.719 350.721,355.957 350.881,357.191 351.042,346.111 351.203,353.081 351.364,340.309 351.524,350.911 351.685,347.205 351.846,346.136 352.007,350.277 352.167,340.332 352.328,348.194 352.489,341.214 352.650,344.483 352.810,347.722 352.971,342.231 353.132,351.324 353.293,353.255 353.453,348.646 353.614,347.852 353.775,347.911 353.936,347.547 354.096,345.556 354.257,349.639 354.418,352.719 354.579,354.813 354.739,348.664 354.900,350.008 355.061,347.019 355.221,350.111 355.382,355.320 355.543,350.137 355.704,352.481 355.864,348.396 356.025,345.093 356.186,339.737 356.347,347.388 356.507,346.247 356.668,343.555 356.829,351.342 356.990,352.963 357.150,356.248 357.311,346.570 357.472,352.087 357.633,358.426 357.793,349.043 357.954,351.310 358.115,360.073 358.276,360.511 358.436,343.479 358.597,353.539 358.758,352.298 358.919,353.603 359.079,352.651 359.240,340.291 359.401,353.464 359.561,348.692 359.722,352.221 359.883,348.819 360.044,349.074 360.204,349.726 360.365,349.873 360.526,355.037 360.687,346.379 360.847,344.003 361.008,346.957 361.169,346.228 361.330,344.255 361.490,341.468 361.651,355.777 361.812,338.979 361.973,351.487 362.133,353.270 362.294,347.735 362.455,349.645 362.616,351.409 362.776,352.416 362.937,354.194 363.098,360.077 363.259,346.916 363.419,349.176 363.580,357.654 363.741,348.824 363.901,347.171 364.062,347.192 364.223,334.369 364.384,348.560 364.544,352.695 364.705,355.895 364.866,352.560 365.027,355.713 365.187,345.029 365.348,347.267 365.509,350.583 365.670,348.541 365.830,347.507 365.991,353.915 366.152,342.902 366.313,365.050 366.473,351.225 366.634,343.758 366.795,356.879 366.956,352.244 367.116,346.430 367.277,347.471 367.438,344.971 367.599,363.112 367.759,360.942 367.920,354.035 368.081,360.625 368.241,352.993 368.402,352.374 368.563,353.043 368.724,346.461 368.884,356.213 369.045,356.630 369.206,338.097 369.367,355.720 369.527,352.094 369.688,355.484 369.849,350.324 370.010,349.938 370.170,342.318 370.331,349.178 370.492,348.779 370.653,349.596 370.813,336.441 370.974,354.170 371.135,341.599 371.296,348.929 371.456,355.034 371.617,350.770 371.778,351.383 371.939,344.520 372.099,354.789 372.260,360.611 372.421,350.181 372.581,359.610 372.742,348.258 372.903,342.282 373.064,346.430 373.224,351.915 373.385,343.244 373.546,340.350 373.707,355.833 373.867,354.393 374.028,357.739 374.189,337.776 374.350,353.794 374.510,352.917 374.671,345.404 374.832,353.392 374.993,353.323 375.153,338.815 375.314,351.436 375.475,358.132 375.636,349.764 375.796,342.870 375.957,355.201 376.118,354.833 376.279,350.685 376.439,351.658 376.600,341.585 376.761,349.448 376.921,339.015 377.082,353.509 377.243,343.074 377.404,350.254 377.564,350.407 377.725,352.759 377.886,355.921 378.047,353.108 378.207,348.870 378.368,347.549 378.529,347.229 378.690,353.720 378.850,348.472 379.011,355.424 379.172,349.750 379.333,349.476 379.493,347.389 379.654,343.382 379.815,350.835 379.976,348.150 380.136,356.114 380.297,347.852 380.458,347.468 380.619,347.235 380.779,348.391 380.940,352.605 381.101,352.783 381.261,346.754 381.422,351.711 381.583,342.421 381.744,353.654 381.904,351.802 382.065,350.702 382.226,352.232 382.387,347.820 382.547,349.657 382.708,355.795 382.869,343.068 383.030,352.238 383.190,348.819 383.351,347.650 383.512,355.178 383.673,351.066 383.833,348.227 383.994,342.083 384.155,352.983 384.316,338.893 384.476,352.839 384.637,343.403 384.798,349.643 384.959,350.830 385.119,354.958 385.280,354.115 385.441,343.876 385.601,346.306 385.762,349.665 385.923,346.948 386.084,351.221 386.244,357.576 386.405,348.794 386.566,345.149 386.727,349.569 386.887,350.366 387.048,354.386 387.209,361.150 387.370,341.033 387.530,347.749 387.691,357.463 387.852,349.006 388.013,357.555 388.173,355.262 388.334,345.246 388.495,348.244 388.656,353.993 388.816,349.721 388.977,348.621 389.138,354.424 389.299,347.523 389.459,350.598 389.620,356.693 389.781,346.873 389.941,361.594 390.102,344.352 390.263,350.617 390.424,358.497 390.584,348.296 390.745,354.900 390.906,345.766 391.067,352.374 391.227,340.305 391.388,360.482 391.549,349.265 391.710,343.655 391.870,346.604 392.031,345.446 392.192,346.001 392.353,352.687 392.513,351.912 392.674,348.372 392.835,347.387 392.996,348.939 393.156,343.852 393.317,342.933 393.478,350.754 393.639,350.049 393.799,346.185 393.960,348.250 394.121,351.568 394.281,349.901 394.442,345.045 394.603,345.389 394.764,347.543 394.924,350.436 395.085,353.408 395.246,346.624 395.407,350.799 395.567,349.123 395.728,350.166 395.889,340.214 396.050,350.495 396.210,352.099 396.371,356.303 396.532,354.811 396.693,343.207 396.853,350.942 397.014,330.381 397.175,337.761 397.336,354.303 397.496,354.127 397.657,351.716 397.818,353.867 397.979,346.725 398.139,349.563 398.300,345.507 398.461,348.065 398.621,348.849 398.782,345.725 398.943,345.949 399.104,345.159 399.264,354.185 399.425,352.415 399.586,348.020 399.747,352.049 399.907,343.968 400.068,345.895 400.229,350.211 400.390,334.585 400.550,355.743 400.711,342.263 400.872,341.009 401.033,350.145 401.193,353.649 401.354,348.649 401.515,348.331 401.676,353.815 401.836,339.153 401.997,348.454 402.158,351.111 402.319,349.366 402.479,335.493 402.640,344.450 402.801,342.215 402.961,343.109 403.122,352.527 403.283,349.556 403.444,345.636 403.604,343.567 403.765,342.690 403.926,352.788 404.087,347.825 404.247,345.364 404.408,360.023 404.569,350.220 404.730,345.559 404.890,349.393 405.051,340.472 405.212,351.377 405.373,345.353 405.533,353.707 405.694,348.046 405.855,353.527 406.016,356.315 406.176,353.788 406.337,349.831 406.498,337.083 406.659,351.723 406.819,347.906 406.980,352.759 407.141,360.268 407.301,348.328 407.462,347.859 407.623,356.024 407.784,344.445 407.944,346.826 408.105,350.189 408.266,352.745 408.427,352.039 408.587,343.373 408.748,350.918 408.909,349.164 409.070,338.249 409.230,356.552 409.391,341.605 409.552,356.203 409.713,337.701 409.873,353.397 410.034,346.737 410.195,348.341 410.356,347.606 410.516,359.379 410.677,351.238 410.838,356.133 410.999,346.390 411.159,349.041 411.320,345.585 411.481,357.661 411.641,348.901 411.802,353.263 411.963,352.258 412.124,347.184 412.284,345.537 412.445,342.306 412.606,357.606 412.767,343.618 412.927,346.780 413.088,351.139 413.249,345.835 413.410,349.636 413.570,349.694 413.731,348.517 413.892,353.409 414.053,349.773 414.213,357.848 414.374,345.854 414.535,357.659 414.696,349.026 414.856,353.887 415.017,349.852 415.178,361.426 415.339,353.268 415.499,345.785 415.660,353.021 415.821,355.969 415.981,350.656 416.142,352.429 416.303,354.599 416.464,351.666 416.624,347.583 416.785,355.197 416.946,348.751 417.107,343.769 417.267,346.166 417.428,354.747 417.589,354.095 417.750,352.353 417.910,354.803 418.071,351.261 418.232,355.396 418.393,352.082 418.553,355.965 418.714,347.502 418.875,346.838 419.036,353.889 419.196,338.178 419.357,346.847 419.518,339.321 419.679,341.669 419.839,347.959 420.000,349.614 420.161,338.852 420.321,351.437 420.482,351.796 420.643,347.845 420.804,351.197 420.964,352.071 421.125,351.961 421.286,340.454 421.447,354.436 421.607,355.756 421.768,344.774 421.929,350.565 422.090,348.501 422.250,351.498 422.411,341.159 422.572,344.820 422.733,351.923 422.893,350.528 423.054,345.726 423.215,355.925 423.376,351.873 423.536,346.815 423.697,353.848 423.858,353.957 424.019,356.260 424.179,337.649 424.340,349.630 424.501,350.676 424.661,340.358 424.822,349.920 424.983,346.016 425.144,350.468 425.304,349.598 425.465,343.340 425.626,353.546 425.787,344.068 425.947,352.812 426.108,343.106 426.269,355.956 426.430,343.635 426.590,345.189 426.751,350.818 426.912,349.932 427.073,345.664 427.233,356.197 427.394,348.093 427.555,349.572 427.716,345.736 427.876,350.048 428.037,340.523 428.198,353.769 428.359,353.984 428.519,343.792 428.680,345.752 428.841,344.609 429.001,348.861 429.162,351.704 429.323,346.095 429.484,352.273 429.644,344.150 429.805,349.925 429.966,349.638 430.127,351.431 430.287,360.426 430.448,335.415 430.609,337.893 430.770,347.937 430.930,354.549 431.091,352.780 431.252,347.666 431.413,342.868 431.573,350.435 431.734,350.940 431.895,342.596 432.056,348.057 432.216,344.632 432.377,357.359 432.538,343.222 432.699,338.673 432.859,347.788 433.020,354.979 433.181,341.346 433.341,335.313 433.502,352.560 433.663,346.912 433.824,350.404 433.984,347.643 434.145,347.389 434.306,344.138 434.467,351.817 434.627,350.820 434.788,352.214 434.949,338.218 435.110,342.253 435.270,343.285 435.431,349.755 435.592,352.196 435.753,353.978 435.913,352.643 436.074,342.535 436.235,349.049 436.396,358.065 436.556,357.657 436.717,345.783 436.878,346.315 437.039,347.468 437.199,351.040 437.360,346.212 437.521,352.384 437.681,346.401 437.842,338.323 438.003,351.822 438.164,347.155 438.324,350.015 438.485,358.277 438.646,340.986 438.807,352.620 438.967,350.313 439.128,354.700 439.289,356.894 439.450,344.734 439.610,350.050 439.771,362.314 439.932,346.171 440.093,353.964 440.253,342.802 440.414,340.634 440.575,363.215 440.736,348.981 440.896,357.596 441.057,350.428 441.218,343.093 441.379,348.581 441.539,353.452 441.700,353.446 441.861,352.901 442.021,346.791 442.182,348.529 442.343,340.596 442.504,346.281 442.664,343.744 442.825,347.071 442.986,355.412 443.147,352.198 443.307,344.863 443.468,352.336 443.629,348.383 443.790,347.997 443.950,349.905 444.111,348.215 444.272,356.514 444.433,339.351 444.593,358.286 444.754,351.453 444.915,343.251 445.076,352.082 445.236,343.926 445.397,346.460 445.558,346.295 445.719,361.577 445.879,350.237 446.040,337.089 446.201,360.769 446.361,353.013 446.522,353.995 446.683,347.459 446.844,345.789 447.004,350.416 447.165,353.138 447.326,349.946 447.487,349.030 447.647,342.303 447.808,349.166 447.969,357.814 448.130,341.199 448.290,348.615 448.451,330.609 448.612,346.029 448.773,353.404 448.933,351.630 449.094,351.807 449.255,351.845 449.416,344.848 449.576,347.787 449.737,337.579 449.898,343.845 450.059,346.702 450.219,344.018 450.380,349.226 450.541,345.928 450.701,355.969 450.862,344.648 451.023,341.836 451.184,347.075 451.344,354.436 451.505,359.940 451.666,354.406 451.827,346.545 451.987,353.428 452.148,346.840 452.309,362.238 452.470,350.662 452.630,357.724 452.791,349.665 452.952,349.622 453.113,357.789 453.273,347.066 453.434,347.595 453.595,352.157 453.756,347.730 453.916,345.070 454.077,345.533 454.238,347.229 454.399,345.504 454.559,341.626 454.720,344.823 454.881,347.216 455.041,349.975 455.202,340.647 455.363,349.797 455.524,341.765 455.684,341.610 455.845,351.750 456.006,342.103 456.167,357.401 456.327,354.192 456.488,350.693 456.649,346.737 456.810,351.213 456.970,348.237 457.131,348.788 457.292,345.131 457.453,351.681 457.613,338.517 457.774,351.129 457.935,343.761 458.096,344.873 458.256,344.651 458.417,352.160 458.578,351.529 458.739,359.099 458.899,358.392 459.060,355.223 459.221,340.171 459.381,344.266 459.542,350.470 459.703,355.171 459.864,354.843 460.024,339.175 460.185,353.414 460.346,344.784 460.507,339.904 460.667,345.425 460.828,345.670 460.989,356.293 461.150,355.307 461.310,349.071 461.471,340.262 461.632,360.229 461.793,351.259 461.953,341.528 462.114,344.644 462.275,347.667 462.436,351.263 462.596,345.670 462.757,347.259 462.918,350.752 463.079,342.097 463.239,356.744 463.400,346.373 463.561,339.125 463.721,337.961 463.882,350.733 464.043,338.662 464.204,354.700 464.364,347.240 464.525,350.869 464.686,344.848 464.847,347.774 465.007,349.908 465.168,349.540 465.329,348.793 465.490,349.501 465.650,348.735 465.811,351.191 465.972,352.206 466.133,342.346 466.293,356.304 466.454,337.578 466.615,346.140 466.776,341.234 466.936,349.685 467.097,341.127 467.258,343.485 467.419,354.683 467.579,352.753 467.740,343.437 467.901,345.597 468.061,348.713 468.222,351.637 468.383,341.036 468.544,341.573 468.704,345.720 468.865,344.929 469.026,351.789 469.187,348.511 469.347,346.629 469.508,350.111 469.669,352.261 469.830,354.105 469.990,354.165 470.151,341.615 470.312,349.711 470.473,344.325 470.633,340.344 470.794,353.138 470.955,341.465 471.116,340.309 471.276,353.914 471.437,350.886 471.598,346.869 471.759,350.288 471.919,353.342 472.080,352.300 472.241,346.553 472.401,345.016 472.562,351.693 472.723,348.909 472.884,355.149 473.044,349.378 473.205,336.957 473.366,334.227 473.527,353.975 473.687,356.010 473.848,351.519 474.009,351.335 474.170,343.094 474.330,348.317 474.491,344.793 " />
        <g
           id="g24" />
      </g>
      <g
         clip-path="url(#ID000001)"
         id="ID000003">
        <polyline
           style="fill:none;stroke:#007f00;stroke-width:0.5pt;stroke-dasharray:none"
           id="polyline27"
           points="72.800,276.027 72.961,266.139 73.121,248.273 73.282,234.640 73.443,224.256 73.604,212.960 73.764,202.366 73.925,197.382 74.086,190.975 74.247,188.688 74.407,186.594 74.568,185.892 74.729,187.858 74.890,186.217 75.050,185.529 75.211,186.555 75.372,185.483 75.533,186.233 75.693,188.347 75.854,192.106 76.015,192.720 76.176,196.249 76.336,197.364 76.497,198.395 76.658,203.831 76.819,206.960 76.979,209.657 77.140,210.939 77.301,211.788 77.461,214.541 77.622,218.884 77.783,220.729 77.944,228.932 78.104,236.195 78.265,241.206 78.426,249.773 78.587,263.688 78.747,270.036 78.908,279.504 79.069,284.774 79.230,296.047 79.390,301.036 79.551,295.053 79.712,293.772 79.873,296.494 80.033,307.497 80.194,299.980 80.355,312.895 80.516,305.456 80.676,300.400 80.837,320.609 80.998,326.787 81.159,338.113 81.319,336.080 81.480,343.859 81.641,340.057 81.801,338.963 81.962,344.338 82.123,337.473 82.284,334.350 82.444,323.704 82.605,323.746 82.766,327.322 82.927,313.986 83.087,316.056 83.248,314.282 83.409,307.113 83.570,309.535 83.730,312.980 83.891,315.201 84.052,313.957 84.213,318.382 84.373,323.950 84.534,328.957 84.695,341.352 84.856,330.090 85.016,328.745 85.177,304.656 85.338,301.868 85.499,290.755 85.659,274.853 85.820,267.696 85.981,261.001 86.141,253.411 86.302,257.308 86.463,247.259 86.624,243.012 86.784,239.666 86.945,231.386 87.106,224.197 87.267,219.727 87.427,211.843 87.588,203.398 87.749,200.601 87.910,196.798 88.070,189.623 88.231,184.081 88.392,180.749 88.553,174.399 88.713,174.439 88.874,171.605 89.035,170.917 89.196,169.663 89.356,169.462 89.517,167.495 89.678,166.176 89.839,165.192 89.999,163.178 90.160,162.115 90.321,161.748 90.481,158.110 90.642,158.303 90.803,156.786 90.964,156.794 91.124,157.294 91.285,157.120 91.446,156.804 91.607,155.772 91.767,153.758 91.928,152.564 92.089,151.791 92.250,150.103 92.410,147.219 92.571,146.422 92.732,143.994 92.893,143.944 93.053,143.209 93.214,142.402 93.375,141.289 93.536,140.932 93.696,139.769 93.857,138.281 94.018,137.751 94.179,136.264 94.339,132.862 94.500,130.697 94.661,129.479 94.821,128.245 94.982,127.222 95.143,126.266 95.304,125.601 95.464,125.334 95.625,123.037 95.786,121.461 95.947,119.375 96.107,119.221 96.268,118.748 96.429,118.093 96.590,117.055 96.750,115.116 96.911,114.964 97.072,114.744 97.233,112.791 97.393,111.357 97.554,109.676 97.715,108.833 97.876,108.223 98.036,108.596 98.197,106.458 98.358,104.910 98.519,103.717 98.679,102.644 98.840,102.012 99.001,100.742 99.161,99.652 99.322,98.311 99.483,98.649 99.644,97.378 99.804,97.652 99.965,97.120 100.126,95.196 100.287,94.373 100.447,93.873 100.608,93.337 100.769,92.531 100.930,92.041 101.090,90.975 101.251,90.746 101.412,89.975 101.573,88.198 101.733,86.226 101.894,84.689 102.055,83.696 102.216,82.779 102.376,81.963 102.537,81.466 102.698,80.189 102.859,79.100 103.019,77.883 103.180,76.811 103.341,75.901 103.501,74.775 103.662,73.195 103.823,72.185 103.984,72.191 104.144,71.327 104.305,70.502 104.466,70.459 104.627,69.105 104.787,67.583 104.948,66.797 105.109,65.384 105.270,65.745 105.430,65.118 105.591,64.204 105.752,63.628 105.913,62.868 106.073,62.253 106.234,61.110 106.395,59.859 106.556,59.736 106.716,58.533 106.877,57.438 107.038,56.978 107.199,56.038 107.359,56.187 107.520,55.254 107.681,54.461 107.841,54.549 108.002,54.683 108.163,53.727 108.324,53.632 108.484,52.610 108.645,52.289 108.806,52.150 108.967,51.435 109.127,50.943 109.288,49.889 109.449,49.754 109.610,49.490 109.770,48.585 109.931,48.318 110.092,47.907 110.253,47.677 110.413,47.394 110.574,47.541 110.735,46.952 110.896,46.443 111.056,46.470 111.217,45.755 111.378,45.514 111.539,44.834 111.699,45.011 111.860,45.071 112.021,44.299 112.181,44.416 112.342,43.998 112.503,44.269 112.664,43.947 112.824,43.638 112.985,43.378 113.146,43.292 113.307,42.876 113.467,42.752 113.628,42.328 113.789,42.259 113.950,42.029 114.110,41.312 114.271,41.274 114.432,40.942 114.593,41.611 114.753,40.989 114.914,40.424 115.075,40.032 115.236,39.806 115.396,40.057 115.557,39.564 115.718,39.515 115.879,39.635 116.039,39.478 116.200,39.659 116.361,39.275 116.521,38.703 116.682,38.545 116.843,38.571 117.004,38.147 117.164,38.493 117.325,38.431 117.486,38.185 117.647,38.143 117.807,38.229 117.968,37.628 118.129,37.794 118.290,38.051 118.450,38.033 118.611,37.709 118.772,37.379 118.933,37.468 119.093,37.205 119.254,37.364 119.415,37.336 119.576,37.612 119.736,37.144 119.897,37.800 120.058,37.225 120.219,37.731 120.379,37.672 120.540,37.713 120.701,37.432 120.861,37.742 121.022,38.031 121.183,37.973 121.344,37.557 121.504,37.867 121.665,39.163 121.826,37.620 121.987,37.746 122.147,37.766 122.308,38.021 122.469,37.957 122.630,38.086 122.790,38.642 122.951,38.343 123.112,38.527 123.273,38.520 123.433,38.403 123.594,38.698 123.755,38.686 123.916,38.900 124.076,39.173 124.237,39.229 124.398,39.431 124.559,39.755 124.719,39.972 124.880,40.169 125.041,40.539 125.201,40.390 125.362,41.066 125.523,41.546 125.684,41.571 125.844,41.176 126.005,41.695 126.166,41.477 126.327,41.830 126.487,42.306 126.648,42.380 126.809,42.842 126.970,43.119 127.130,43.283 127.291,43.757 127.452,44.565 127.613,44.223 127.773,44.630 127.934,44.759 128.095,45.055 128.256,45.410 128.416,46.073 128.577,46.317 128.738,46.931 128.899,47.124 129.059,47.849 129.220,48.617 129.381,49.318 129.541,50.056 129.702,50.504 129.863,51.407 130.024,51.221 130.184,52.393 130.345,53.319 130.506,53.774 130.667,55.354 130.827,55.248 130.988,56.069 131.149,57.243 131.310,58.754 131.470,59.361 131.631,60.367 131.792,61.142 131.953,61.864 132.113,62.578 132.274,63.767 132.435,64.672 132.596,65.751 132.756,66.259 132.917,66.822 133.078,67.881 133.239,68.966 133.399,70.704 133.560,71.365 133.721,72.636 133.881,73.691 134.042,75.080 134.203,76.324 134.364,78.262 134.524,78.929 134.685,79.654 134.846,80.950 135.007,83.115 135.167,84.624 135.328,86.446 135.489,87.871 135.650,90.493 135.810,92.961 135.971,95.097 136.132,97.931 136.293,99.812 136.453,103.186 136.614,106.435 136.775,108.601 136.936,112.185 137.096,115.889 137.257,118.533 137.418,121.443 137.579,122.821 137.739,125.357 137.900,127.462 138.061,128.894 138.221,128.995 138.382,129.265 138.543,128.474 138.704,128.748 138.864,129.708 139.025,129.898 139.186,128.231 139.347,128.317 139.507,127.351 139.668,126.955 139.829,125.889 139.990,126.075 140.150,125.090 140.311,123.232 140.472,123.187 140.633,121.302 140.793,119.436 140.954,117.542 141.115,115.024 141.276,113.443 141.436,111.673 141.597,110.693 141.758,110.298 141.919,109.188 142.079,108.130 142.240,106.854 142.401,104.536 142.561,102.839 142.722,101.912 142.883,101.862 143.044,100.843 143.204,99.746 143.365,97.894 143.526,97.949 143.687,99.057 143.847,97.158 144.008,96.990 144.169,95.619 144.330,95.686 144.490,93.928 144.651,94.591 144.812,94.385 144.973,92.914 145.133,92.587 145.294,91.188 145.455,89.305 145.616,89.006 145.776,87.211 145.937,86.752 146.098,86.412 146.259,86.174 146.419,85.703 146.580,84.997 146.741,84.265 146.901,83.479 147.062,82.253 147.223,81.756 147.384,80.966 147.544,80.289 147.705,77.940 147.866,78.699 148.027,78.436 148.187,78.253 148.348,76.971 148.509,77.418 148.670,77.385 148.830,77.593 148.991,76.942 149.152,77.036 149.313,76.693 149.473,75.933 149.634,75.549 149.795,75.198 149.956,73.918 150.116,73.812 150.277,73.706 150.438,73.558 150.599,73.343 150.759,73.107 150.920,73.083 151.081,71.852 151.241,71.719 151.402,71.822 151.563,71.385 151.724,71.066 151.884,71.450 152.045,70.929 152.206,71.605 152.367,71.327 152.527,71.257 152.688,70.649 152.849,70.962 153.010,70.201 153.170,69.981 153.331,69.826 153.492,69.034 153.653,69.076 153.813,68.323 153.974,67.845 154.135,67.320 154.296,66.699 154.456,66.451 154.617,66.216 154.778,66.295 154.939,65.494 155.099,65.761 155.260,64.715 155.421,64.816 155.581,64.635 155.742,64.481 155.903,64.242 156.064,63.846 156.224,63.739 156.385,63.362 156.546,63.357 156.707,62.921 156.867,63.199 157.028,62.574 157.189,61.905 157.350,61.458 157.510,60.741 157.671,61.242 157.832,60.956 157.993,60.390 158.153,60.631 158.314,60.823 158.475,60.223 158.636,59.912 158.796,60.292 158.957,60.177 159.118,61.028 159.279,61.230 159.439,61.109 159.600,61.850 159.761,62.159 159.921,62.965 160.082,63.293 160.243,63.293 160.404,63.107 160.564,63.334 160.725,63.197 160.886,63.667 161.047,63.786 161.207,63.665 161.368,63.420 161.529,63.249 161.690,63.671 161.850,63.515 162.011,63.688 162.172,63.754 162.333,63.765 162.493,63.760 162.654,64.242 162.815,64.152 162.976,64.343 163.136,64.233 163.297,64.026 163.458,64.180 163.619,64.753 163.779,65.178 163.940,65.074 164.101,65.213 164.261,65.640 164.422,65.627 164.583,65.755 164.744,65.206 164.904,65.602 165.065,65.798 165.226,66.249 165.387,65.898 165.547,66.051 165.708,65.081 165.869,64.936 166.030,65.020 166.190,64.930 166.351,64.995 166.512,64.898 166.673,64.551 166.833,63.718 166.994,64.398 167.155,64.088 167.316,64.383 167.476,64.616 167.637,64.916 167.798,64.771 167.959,65.610 168.119,66.205 168.280,66.368 168.441,66.486 168.601,67.147 168.762,67.368 168.923,67.936 169.084,68.423 169.244,69.069 169.405,68.478 169.566,68.162 169.727,67.931 169.887,68.619 170.048,68.643 170.209,69.225 170.370,68.716 170.530,68.948 170.691,69.020 170.852,68.924 171.013,68.381 171.173,67.535 171.334,67.304 171.495,67.216 171.656,67.541 171.816,67.462 171.977,66.623 172.138,66.597 172.299,65.571 172.459,65.194 172.620,64.510 172.781,63.975 172.941,63.775 173.102,63.556 173.263,64.240 173.424,63.330 173.584,63.142 173.745,63.278 173.906,63.608 174.067,62.302 174.227,62.064 174.388,62.152 174.549,61.937 174.710,61.363 174.870,61.873 175.031,61.897 175.192,61.242 175.353,61.302 175.513,61.364 175.674,60.715 175.835,61.206 175.996,60.873 176.156,60.446 176.317,60.031 176.478,59.219 176.639,58.939 176.799,58.164 176.960,57.927 177.121,57.645 177.281,57.601 177.442,57.732 177.603,58.006 177.764,57.348 177.924,57.144 178.085,56.695 178.246,56.853 178.407,57.533 178.567,56.653 178.728,56.876 178.889,55.980 179.050,56.503 179.210,55.352 179.371,54.429 179.532,54.016 179.693,54.054 179.853,53.748 180.014,53.738 180.175,53.321 180.336,53.671 180.496,53.747 180.657,53.605 180.818,52.377 180.979,52.181 181.139,51.901 181.300,51.707 181.461,51.461 181.621,51.189 181.782,50.737 181.943,50.139 182.104,49.522 182.264,49.132 182.425,49.088 182.586,48.800 182.747,49.938 182.907,48.278 183.068,48.225 183.229,47.875 183.390,47.141 183.550,48.137 183.711,46.870 183.872,46.440 184.033,46.391 184.193,46.148 184.354,45.720 184.515,45.585 184.676,45.941 184.836,45.409 184.997,45.118 185.158,45.529 185.319,45.497 185.479,45.642 185.640,45.529 185.801,45.804 185.961,46.354 186.122,46.736 186.283,46.012 186.444,46.027 186.604,46.392 186.765,45.858 186.926,45.958 187.087,45.994 187.247,46.247 187.408,46.067 187.569,45.669 187.730,45.844 187.890,45.609 188.051,45.996 188.212,46.199 188.373,45.393 188.533,46.090 188.694,45.549 188.855,45.568 189.016,45.412 189.176,45.028 189.337,45.204 189.498,45.419 189.659,44.478 189.819,45.041 189.980,44.627 190.141,44.753 190.301,45.035 190.462,44.649 190.623,44.996 190.784,44.540 190.944,44.408 191.105,44.766 191.266,45.093 191.427,44.923 191.587,45.051 191.748,44.565 191.909,44.598 192.070,44.080 192.230,44.615 192.391,44.161 192.552,44.661 192.713,44.550 192.873,44.671 193.034,44.504 193.195,44.519 193.356,44.822 193.516,45.272 193.677,45.032 193.838,45.356 193.999,45.407 194.159,46.037 194.320,46.144 194.481,46.723 194.641,46.826 194.802,46.781 194.963,47.008 195.124,47.697 195.284,48.225 195.445,48.676 195.606,48.778 195.767,49.032 195.927,49.299 196.088,50.006 196.249,49.560 196.410,50.186 196.570,50.514 196.731,51.050 196.892,51.311 197.053,51.523 197.213,52.150 197.374,52.656 197.535,53.172 197.696,53.954 197.856,54.831 198.017,55.369 198.178,55.449 198.339,55.560 198.499,56.432 198.660,57.472 198.821,58.740 198.981,58.838 199.142,59.656 199.303,60.276 199.464,61.070 199.624,61.335 199.785,61.810 199.946,63.378 200.107,64.089 200.267,65.499 200.428,66.345 200.589,66.927 200.750,66.885 200.910,66.071 201.071,65.944 201.232,65.749 201.393,65.436 201.553,65.416 201.714,65.466 201.875,65.953 202.036,64.988 202.196,64.974 202.357,65.604 202.518,65.140 202.679,65.020 202.839,64.840 203.000,64.553 203.161,64.009 203.321,63.828 203.482,63.400 203.643,63.732 203.804,63.215 203.964,62.468 204.125,62.346 204.286,61.674 204.447,61.977 204.607,61.618 204.768,60.739 204.929,59.779 205.090,59.573 205.250,59.050 205.411,58.744 205.572,58.107 205.733,57.719 205.893,57.667 206.054,57.021 206.215,56.620 206.376,55.877 206.536,56.286 206.697,55.914 206.858,55.731 207.019,55.554 207.179,54.951 207.340,54.631 207.501,54.436 207.661,53.961 207.822,53.533 207.983,53.155 208.144,52.707 208.304,52.570 208.465,52.343 208.626,51.866 208.787,52.194 208.947,51.713 209.108,51.783 209.269,52.131 209.430,52.048 209.590,51.550 209.751,52.200 209.912,51.399 210.073,51.135 210.233,51.180 210.394,50.913 210.555,51.163 210.716,50.246 210.876,50.331 211.037,50.257 211.198,50.018 211.359,49.880 211.519,49.235 211.680,48.875 211.841,48.853 212.001,48.412 212.162,48.523 212.323,47.992 212.484,47.591 212.644,47.202 212.805,46.284 212.966,46.248 213.127,46.640 213.287,46.443 213.448,46.229 213.609,45.913 213.770,45.423 213.930,45.381 214.091,45.103 214.252,45.451 214.413,45.120 214.573,44.987 214.734,44.610 214.895,44.348 215.056,44.292 215.216,43.653 215.377,43.282 215.538,42.973 215.699,42.794 215.859,42.577 216.020,42.250 216.181,41.850 216.341,41.756 216.502,41.970 216.663,41.656 216.824,41.185 216.984,41.586 217.145,40.920 217.306,40.680 217.467,40.755 217.627,40.527 217.788,40.275 217.949,40.774 218.110,39.849 218.270,39.715 218.431,39.930 218.592,40.146 218.753,39.435 218.913,39.167 219.074,39.118 219.235,39.235 219.396,38.994 219.556,39.101 219.717,39.008 219.878,38.600 220.039,38.492 220.199,38.476 220.360,38.683 220.521,38.311 220.681,38.137 220.842,38.202 221.003,38.160 221.164,38.151 221.324,38.208 221.485,37.885 221.646,37.697 221.807,37.849 221.967,38.209 222.128,37.743 222.289,37.684 222.450,37.285 222.610,38.210 222.771,37.827 222.932,37.478 223.093,37.699 223.253,37.719 223.414,37.705 223.575,37.484 223.736,37.211 223.896,37.489 224.057,37.861 224.218,37.448 224.379,37.311 224.539,37.176 224.700,37.300 224.861,37.242 225.021,37.971 225.182,38.010 225.343,37.758 225.504,37.796 225.664,37.534 225.825,37.584 225.986,37.625 226.147,37.464 226.307,38.080 226.468,37.456 226.629,37.626 226.790,38.045 226.950,37.789 227.111,37.796 227.272,37.960 227.433,37.854 227.593,37.806 227.754,38.086 227.915,38.030 228.076,38.000 228.236,37.990 228.397,37.924 228.558,38.317 228.719,38.666 228.879,37.931 229.040,38.504 229.201,38.647 229.361,38.526 229.522,38.652 229.683,38.958 229.844,38.637 230.004,38.874 230.165,38.967 230.326,39.062 230.487,39.419 230.647,39.718 230.808,39.907 230.969,40.538 231.130,40.541 231.290,41.074 231.451,41.667 231.612,41.042 231.773,41.594 231.933,41.788 232.094,41.988 232.255,42.371 232.416,42.815 232.576,43.064 232.737,43.836 232.898,44.350 233.059,44.491 233.219,44.633 233.380,44.899 233.541,46.002 233.701,45.744 233.862,45.634 234.023,45.880 234.184,46.600 234.344,47.304 234.505,47.212 234.666,47.588 234.827,47.321 234.987,47.042 235.148,47.673 235.309,47.977 235.470,48.288 235.630,48.286 235.791,48.492 235.952,49.003 236.113,49.595 236.273,50.075 236.434,49.525 236.595,49.864 236.756,50.701 236.916,51.756 237.077,51.771 237.238,51.694 237.399,51.499 237.559,52.058 237.720,52.475 237.881,53.330 238.041,53.580 238.202,53.696 238.363,54.277 238.524,54.378 238.684,55.038 238.845,55.426 239.006,55.363 239.167,55.802 239.327,56.148 239.488,56.573 239.649,56.501 239.810,56.645 239.970,57.771 240.131,57.771 240.292,58.346 240.453,58.077 240.613,58.637 240.774,59.827 240.935,59.701 241.096,60.241 241.256,59.960 241.417,60.691 241.578,60.960 241.739,61.403 241.899,61.886 242.060,62.281 242.221,63.223 242.381,63.333 242.542,63.710 242.703,63.908 242.864,64.257 243.024,64.495 243.185,64.543 243.346,64.968 243.507,64.888 243.667,65.659 243.828,66.038 243.989,66.406 244.150,67.134 244.310,67.586 244.471,68.220 244.632,67.953 244.793,68.014 244.953,68.202 245.114,67.773 245.275,67.695 245.436,68.211 245.596,68.066 245.757,68.160 245.918,68.226 246.079,67.207 246.239,66.823 246.400,66.479 246.561,66.299 246.721,65.545 246.882,65.456 247.043,64.924 247.204,64.008 247.364,63.968 247.525,64.260 247.686,63.913 247.847,63.593 248.007,63.729 248.168,63.093 248.329,62.899 248.490,63.450 248.650,63.376 248.811,63.238 248.972,62.117 249.133,61.936 249.293,61.339 249.454,61.138 249.615,60.783 249.776,60.201 249.936,60.071 250.097,59.348 250.258,59.138 250.419,58.257 250.579,58.398 250.740,58.427 250.901,57.585 251.061,58.110 251.222,57.214 251.383,56.920 251.544,56.947 251.704,56.365 251.865,56.368 252.026,55.634 252.187,55.383 252.347,55.414 252.508,55.661 252.669,55.916 252.830,55.600 252.990,55.525 253.151,55.282 253.312,55.072 253.473,54.954 253.633,54.667 253.794,54.439 253.955,54.497 254.116,54.325 254.276,54.426 254.437,54.159 254.598,53.731 254.759,53.370 254.919,53.832 255.080,53.617 255.241,54.669 255.401,53.622 255.562,53.738 255.723,53.339 255.884,53.466 256.044,53.029 256.205,52.537 256.366,53.007 256.527,53.292 256.687,52.744 256.848,53.397 257.009,52.891 257.170,52.737 257.330,52.745 257.491,52.744 257.652,53.385 257.813,52.773 257.973,52.763 258.134,52.917 258.295,52.873 258.456,52.419 258.616,52.351 258.777,52.266 258.938,53.511 259.099,52.926 259.259,52.778 259.420,52.441 259.581,52.556 259.741,52.648 259.902,52.526 260.063,53.045 260.224,52.768 260.384,52.386 260.545,52.590 260.706,52.394 260.867,52.107 261.027,52.778 261.188,52.355 261.349,51.948 261.510,52.297 261.670,52.150 261.831,52.163 261.992,51.967 262.153,51.602 262.313,50.939 262.474,51.263 262.635,50.948 262.796,50.531 262.956,50.113 263.117,50.277 263.278,50.413 263.439,50.015 263.599,50.242 263.760,50.624 263.921,51.603 264.081,51.412 264.242,52.242 264.403,52.366 264.564,52.547 264.724,53.086 264.885,54.052 265.046,54.570 265.207,54.536 265.367,55.050 265.528,55.995 265.689,56.422 265.850,56.557 266.010,57.032 266.171,58.073 266.332,59.548 266.493,59.571 266.653,60.692 266.814,62.051 266.975,62.744 267.136,63.365 267.296,64.207 267.457,65.516 267.618,66.913 267.779,68.388 267.939,69.881 268.100,71.232 268.261,71.841 268.421,73.177 268.582,74.173 268.743,75.184 268.904,76.426 269.064,77.298 269.225,78.732 269.386,79.024 269.547,79.879 269.707,80.270 269.868,81.183 270.029,80.900 270.190,81.601 270.350,83.796 270.511,85.212 270.672,86.424 270.833,87.136 270.993,89.425 271.154,90.085 271.315,91.601 271.476,93.386 271.636,94.356 271.797,96.255 271.958,98.373 272.119,99.564 272.279,101.208 272.440,102.805 272.601,103.366 272.761,104.266 272.922,105.009 273.083,106.942 273.244,108.362 273.404,109.308 273.565,111.323 273.726,113.457 273.887,115.887 274.047,117.042 274.208,119.741 274.369,121.280 274.530,123.831 274.690,124.750 274.851,127.596 275.012,130.297 275.173,132.791 275.333,135.575 275.494,136.280 275.655,137.786 275.816,139.512 275.976,142.448 276.137,144.964 276.298,145.928 276.459,147.483 276.619,150.074 276.780,155.302 276.941,157.665 277.101,162.795 277.262,166.825 277.423,172.045 277.584,174.388 277.744,176.640 277.905,179.540 278.066,182.863 278.227,190.322 278.387,195.429 278.548,197.381 278.709,204.858 278.870,211.682 279.030,215.911 279.191,230.710 279.352,239.224 279.513,252.303 279.673,265.324 279.834,276.388 279.995,291.981 280.156,300.529 280.316,322.679 280.477,341.662 280.638,314.030 280.799,294.073 280.959,283.501 281.120,265.187 281.281,270.987 281.441,265.459 281.602,254.825 281.763,245.732 281.924,238.086 282.084,225.079 282.245,214.519 282.406,209.962 282.567,204.941 282.727,202.829 282.888,199.884 283.049,191.466 283.210,187.667 283.370,184.249 283.531,179.906 283.692,177.316 283.853,172.286 284.013,169.731 284.174,167.720 284.335,164.849 284.496,160.067 284.656,156.440 284.817,151.799 284.978,148.510 285.139,144.743 285.299,141.578 285.460,139.759 285.621,136.283 285.781,135.410 285.942,134.021 286.103,132.783 286.264,130.474 286.424,128.583 286.585,128.138 286.746,126.854 286.907,125.934 287.067,125.426 287.228,124.163 287.389,122.074 287.550,121.045 287.710,119.602 287.871,119.611 288.032,119.181 288.193,118.847 288.353,118.124 288.514,117.063 288.675,115.402 288.836,113.809 288.996,111.979 289.157,112.522 289.318,110.321 289.479,110.406 289.639,108.120 289.800,106.382 289.961,104.486 290.121,103.080 290.282,100.932 290.443,99.690 290.604,98.359 290.764,97.428 290.925,95.778 291.086,94.029 291.247,91.597 291.407,90.962 291.568,89.511 291.729,89.174 291.890,88.080 292.050,87.372 292.211,86.101 292.372,85.218 292.533,85.001 292.693,84.203 292.854,83.978 293.015,83.975 293.176,83.795 293.336,83.210 293.497,82.541 293.658,81.723 293.819,81.093 293.979,80.572 294.140,80.093 294.301,78.996 294.461,78.596 294.622,78.719 294.783,78.491 294.944,77.487 295.104,77.733 295.265,77.304 295.426,77.744 295.587,76.707 295.747,75.681 295.908,75.786 296.069,75.010 296.230,74.598 296.390,74.431 296.551,73.594 296.712,73.170 296.873,72.909 297.033,72.996 297.194,72.182 297.355,72.011 297.516,71.586 297.676,71.608 297.837,71.027 297.998,70.847 298.159,70.027 298.319,69.925 298.480,69.303 298.641,69.367 298.801,68.834 298.962,68.692 299.123,68.456 299.284,68.546 299.444,68.379 299.605,68.045 299.766,67.834 299.927,67.684 300.087,67.750 300.248,66.974 300.409,66.551 300.570,67.325 300.730,66.733 300.891,66.473 301.052,66.606 301.213,65.484 301.373,65.173 301.534,64.565 301.695,64.111 301.856,63.656 302.016,63.866 302.177,63.547 302.338,63.084 302.499,62.615 302.659,62.023 302.820,61.743 302.981,61.601 303.141,61.367 303.302,61.145 303.463,60.772 303.624,60.650 303.784,59.737 303.945,59.669 304.106,59.226 304.267,59.127 304.427,58.791 304.588,58.714 304.749,58.317 304.910,58.268 305.070,58.024 305.231,58.041 305.392,58.328 305.553,58.535 305.713,57.796 305.874,57.537 306.035,57.641 306.196,58.094 306.356,57.408 306.517,56.841 306.678,57.064 306.839,57.020 306.999,56.638 307.160,56.907 307.321,56.468 307.481,55.699 307.642,55.409 307.803,56.011 307.964,54.817 308.124,55.051 308.285,54.864 308.446,55.351 308.607,54.878 308.767,55.639 308.928,55.922 309.089,55.706 309.250,56.350 309.410,55.444 309.571,56.027 309.732,55.303 309.893,54.902 310.053,54.901 310.214,55.264 310.375,54.809 310.536,54.164 310.696,53.825 310.857,54.463 311.018,54.014 311.179,53.411 311.339,53.782 311.500,53.260 311.661,52.938 311.821,53.062 311.982,53.591 312.143,53.705 312.304,53.129 312.464,53.353 312.625,52.638 312.786,52.890 312.947,52.846 313.107,52.196 313.268,52.220 313.429,51.568 313.590,51.598 313.750,51.084 313.911,50.969 314.072,50.253 314.233,50.271 314.393,49.479 314.554,49.055 314.715,48.963 314.876,48.532 315.036,48.519 315.197,48.453 315.358,47.697 315.519,47.499 315.679,47.296 315.840,47.322 316.001,46.945 316.161,46.875 316.322,46.859 316.483,46.849 316.644,46.632 316.804,46.176 316.965,45.750 317.126,45.340 317.287,45.352 317.447,44.565 317.608,44.532 317.769,44.919 317.930,44.180 318.090,44.000 318.251,43.687 318.412,43.787 318.573,44.135 318.733,43.600 318.894,43.192 319.055,42.951 319.216,42.861 319.376,42.884 319.537,42.974 319.698,42.627 319.859,42.468 320.019,42.792 320.180,42.319 320.341,42.079 320.501,41.721 320.662,41.282 320.823,41.465 320.984,41.314 321.144,40.752 321.305,40.552 321.466,41.007 321.627,40.232 321.787,40.253 321.948,40.265 322.109,41.052 322.270,40.507 322.430,40.420 322.591,40.347 322.752,40.426 322.913,40.063 323.073,39.479 323.234,39.784 323.395,40.038 323.556,39.889 323.716,39.722 323.877,39.559 324.038,39.604 324.199,39.682 324.359,39.381 324.520,38.943 324.681,39.458 324.841,38.770 325.002,39.000 325.163,39.068 325.324,39.327 325.484,38.790 325.645,39.024 325.806,38.588 325.967,38.410 326.127,38.584 326.288,38.627 326.449,38.201 326.610,38.561 326.770,38.054 326.931,38.293 327.092,37.900 327.253,37.867 327.413,37.770 327.574,37.741 327.735,37.772 327.896,37.493 328.056,37.789 328.217,37.744 328.378,37.597 328.539,37.630 328.699,37.572 328.860,37.647 329.021,37.769 329.181,37.687 329.342,38.287 329.503,38.152 329.664,38.432 329.824,38.230 329.985,38.634 330.146,38.635 330.307,38.520 330.467,39.288 330.628,39.698 330.789,39.684 330.950,40.219 331.110,40.320 331.271,40.937 331.432,41.536 331.593,41.839 331.753,42.317 331.914,43.093 332.075,43.780 332.236,43.722 332.396,44.515 332.557,45.072 332.718,45.916 332.879,47.118 333.039,47.331 333.200,48.611 333.361,49.216 333.521,50.231 333.682,51.100 333.843,51.315 334.004,52.070 334.164,52.806 334.325,54.005 334.486,55.091 334.647,56.452 334.807,58.008 334.968,58.617 335.129,59.911 335.290,60.782 335.450,61.860 335.611,63.244 335.772,64.558 335.933,65.561 336.093,67.305 336.254,68.483 336.415,70.688 336.576,72.874 336.736,74.642 336.897,76.220 337.058,77.714 337.219,79.870 337.379,82.081 337.540,83.447 337.701,85.392 337.861,87.733 338.022,89.868 338.183,93.143 338.344,94.616 338.504,97.326 338.665,101.320 338.826,103.506 338.987,105.411 339.147,107.487 339.308,110.276 339.469,113.754 339.630,116.657 339.790,119.818 339.951,122.687 340.112,125.739 340.273,128.123 340.433,132.607 340.594,134.833 340.755,139.053 340.916,143.633 341.076,148.826 341.237,154.875 341.398,161.058 341.559,167.936 341.719,173.987 341.880,183.052 342.041,192.689 342.201,206.247 342.362,229.863 342.523,254.163 342.684,281.648 342.844,318.286 343.005,334.276 343.166,301.628 343.327,274.507 343.487,245.804 343.648,229.029 343.809,213.512 343.970,200.414 344.130,192.175 344.291,187.615 344.452,180.882 344.613,175.543 344.773,170.177 344.934,164.702 345.095,158.860 345.256,156.892 345.416,152.574 345.577,149.766 345.738,146.249 345.899,141.943 346.059,138.887 346.220,135.287 346.381,133.105 346.541,129.750 346.702,127.172 346.863,124.316 347.024,122.171 347.184,119.148 347.345,117.486 347.506,115.125 347.667,112.453 347.827,111.116 347.988,110.271 348.149,108.583 348.310,106.733 348.470,104.673 348.631,103.878 348.792,102.364 348.953,101.202 349.113,100.686 349.274,99.052 349.435,98.138 349.596,97.615 349.756,95.520 349.917,94.879 350.078,93.572 350.239,93.225 350.399,91.656 350.560,90.395 350.721,90.469 350.881,90.337 351.042,89.980 351.203,88.602 351.364,87.680 351.524,87.179 351.685,86.902 351.846,87.131 352.007,87.043 352.167,86.367 352.328,86.638 352.489,86.476 352.650,86.124 352.810,85.687 352.971,85.404 353.132,84.961 353.293,84.391 353.453,84.002 353.614,83.468 353.775,82.465 353.936,83.207 354.096,82.015 354.257,81.381 354.418,80.330 354.579,79.496 354.739,78.573 354.900,78.944 355.061,78.612 355.221,77.626 355.382,76.924 355.543,77.031 355.704,76.422 355.864,75.657 356.025,74.239 356.186,73.537 356.347,73.718 356.507,73.074 356.668,72.301 356.829,72.320 356.990,72.279 357.150,71.249 357.311,71.152 357.472,70.753 357.633,71.098 357.793,70.634 357.954,70.520 358.115,70.275 358.276,70.101 358.436,69.388 358.597,69.295 358.758,69.308 358.919,68.803 359.079,68.495 359.240,67.708 359.401,67.380 359.561,67.327 359.722,67.787 359.883,68.003 360.044,68.633 360.204,69.158 360.365,69.047 360.526,69.017 360.687,69.443 360.847,68.022 361.008,68.242 361.169,68.252 361.330,69.015 361.490,68.241 361.651,68.789 361.812,68.793 361.973,69.613 362.133,69.892 362.294,70.361 362.455,70.594 362.616,70.405 362.776,70.397 362.937,70.038 363.098,70.959 363.259,70.146 363.419,70.522 363.580,70.721 363.741,70.986 363.901,70.670 364.062,70.490 364.223,69.819 364.384,70.039 364.544,68.986 364.705,68.930 364.866,69.150 365.027,69.550 365.187,69.248 365.348,69.981 365.509,70.100 365.670,69.987 365.830,70.951 365.991,70.369 366.152,70.620 366.313,71.576 366.473,71.671 366.634,72.241 366.795,72.894 366.956,73.072 367.116,73.069 367.277,72.856 367.438,72.587 367.599,73.074 367.759,72.568 367.920,73.222 368.081,73.442 368.241,74.611 368.402,74.350 368.563,73.718 368.724,73.281 368.884,73.745 369.045,73.882 369.206,73.968 369.367,75.156 369.527,75.203 369.688,75.652 369.849,76.363 370.010,76.046 370.170,75.452 370.331,76.056 370.492,75.577 370.653,74.928 370.813,74.562 370.974,74.320 371.135,74.246 371.296,73.938 371.456,74.974 371.617,74.043 371.778,73.120 371.939,72.878 372.099,72.829 372.260,72.835 372.421,72.418 372.581,72.487 372.742,71.843 372.903,71.627 373.064,72.303 373.224,71.971 373.385,71.645 373.546,71.824 373.707,72.194 373.867,72.103 374.028,72.255 374.189,72.027 374.350,72.049 374.510,71.796 374.671,72.364 374.832,72.221 374.993,72.357 375.153,71.807 375.314,72.460 375.475,71.985 375.636,71.085 375.796,71.988 375.957,72.826 376.118,72.033 376.279,72.419 376.439,72.429 376.600,71.657 376.761,71.529 376.921,71.231 377.082,70.970 377.243,71.327 377.404,70.935 377.564,71.090 377.725,71.196 377.886,71.982 378.047,71.890 378.207,72.083 378.368,71.796 378.529,72.249 378.690,72.073 378.850,71.276 379.011,71.211 379.172,70.932 379.333,71.019 379.493,71.134 379.654,70.578 379.815,69.824 379.976,69.752 380.136,69.458 380.297,69.152 380.458,68.150 380.619,67.850 380.779,67.058 380.940,66.431 381.101,66.727 381.261,66.555 381.422,66.462 381.583,66.439 381.744,65.656 381.904,65.536 382.065,65.736 382.226,65.700 382.387,65.967 382.547,64.848 382.708,64.340 382.869,63.986 383.030,63.895 383.190,63.497 383.351,63.728 383.512,63.853 383.673,63.335 383.833,63.099 383.994,62.535 384.155,62.489 384.316,62.327 384.476,61.728 384.637,61.186 384.798,60.984 384.959,60.456 385.119,60.736 385.280,60.216 385.441,59.869 385.601,59.208 385.762,59.077 385.923,58.930 386.084,58.287 386.244,58.318 386.405,58.290 386.566,57.405 386.727,56.992 386.887,56.855 387.048,57.203 387.209,55.948 387.370,55.246 387.530,54.547 387.691,55.523 387.852,54.836 388.013,55.260 388.173,54.856 388.334,54.606 388.495,54.607 388.656,54.375 388.816,53.762 388.977,53.844 389.138,53.346 389.299,52.978 389.459,52.376 389.620,52.388 389.781,52.032 389.941,51.057 390.102,50.696 390.263,50.601 390.424,49.547 390.584,48.845 390.745,48.388 390.906,48.000 391.067,47.772 391.227,47.147 391.388,46.342 391.549,46.093 391.710,45.517 391.870,46.292 392.031,44.508 392.192,44.073 392.353,43.768 392.513,43.204 392.674,43.001 392.835,42.860 392.996,42.654 393.156,41.996 393.317,41.548 393.478,41.224 393.639,41.187 393.799,40.681 393.960,40.263 394.121,40.472 394.281,40.460 394.442,39.683 394.603,39.653 394.764,39.148 394.924,39.611 395.085,38.914 395.246,39.040 395.407,38.902 395.567,39.368 395.728,38.993 395.889,38.552 396.050,38.858 396.210,38.379 396.371,38.339 396.532,38.089 396.693,38.272 396.853,38.157 397.014,37.842 397.175,37.259 397.336,37.835 397.496,37.478 397.657,37.770 397.818,37.563 397.979,37.915 398.139,37.911 398.300,37.409 398.461,37.511 398.621,37.649 398.782,37.181 398.943,38.044 399.104,37.630 399.264,37.603 399.425,37.951 399.586,37.694 399.747,38.349 399.907,38.182 400.068,37.970 400.229,38.244 400.390,38.179 400.550,38.462 400.711,38.442 400.872,38.279 401.033,39.056 401.193,39.261 401.354,39.852 401.515,39.394 401.676,39.768 401.836,39.786 401.997,39.946 402.158,40.097 402.319,41.372 402.479,41.417 402.640,40.954 402.801,41.626 402.961,42.022 403.122,42.078 403.283,42.471 403.444,42.853 403.604,43.608 403.765,43.362 403.926,43.958 404.087,44.219 404.247,44.341 404.408,45.083 404.569,45.158 404.730,45.569 404.890,45.701 405.051,45.933 405.212,47.077 405.373,47.621 405.533,48.444 405.694,48.950 405.855,49.534 406.016,50.836 406.176,50.270 406.337,50.670 406.498,51.110 406.659,51.926 406.819,52.343 406.980,52.990 407.141,53.837 407.301,53.919 407.462,54.912 407.623,55.203 407.784,55.708 407.944,55.797 408.105,56.695 408.266,57.420 408.427,58.052 408.587,58.460 408.748,58.800 408.909,59.813 409.070,60.084 409.230,60.665 409.391,60.538 409.552,60.766 409.713,60.998 409.873,61.536 410.034,62.421 410.195,63.282 410.356,64.170 410.516,65.802 410.677,66.283 410.838,66.796 410.999,67.705 411.159,68.254 411.320,69.251 411.481,69.961 411.641,70.278 411.802,71.043 411.963,72.029 412.124,72.566 412.284,73.882 412.445,74.980 412.606,76.305 412.767,77.523 412.927,79.347 413.088,79.900 413.249,80.926 413.410,81.673 413.570,82.707 413.731,83.707 413.892,83.650 414.053,84.046 414.213,85.011 414.374,85.047 414.535,85.119 414.696,85.095 414.856,85.099 415.017,86.040 415.178,86.228 415.339,87.090 415.499,88.595 415.660,89.219 415.821,89.940 415.981,90.062 416.142,91.577 416.303,92.766 416.464,93.852 416.624,94.135 416.785,96.486 416.946,98.162 417.107,100.216 417.267,101.205 417.428,102.664 417.589,106.255 417.750,107.482 417.910,108.384 418.071,110.800 418.232,111.322 418.393,112.376 418.553,114.140 418.714,116.188 418.875,118.502 419.036,119.507 419.196,121.688 419.357,123.483 419.518,126.625 419.679,129.126 419.839,131.166 420.000,133.622 420.161,138.360 420.321,141.370 420.482,144.657 420.643,145.182 420.804,148.615 420.964,150.284 421.125,150.677 421.286,153.901 421.447,157.013 421.607,163.110 421.768,170.964 421.929,175.694 422.090,178.373 422.250,183.192 422.411,189.975 422.572,195.688 422.733,202.159 422.893,210.807 423.054,220.248 423.215,226.929 423.376,225.232 423.536,233.101 423.697,239.281 423.858,253.484 424.019,266.056 424.179,279.741 424.340,302.488 424.501,324.999 424.661,329.823 424.822,329.012 424.983,308.381 425.144,300.483 425.304,274.456 425.465,262.686 425.626,243.159 425.787,233.948 425.947,227.205 426.108,217.530 426.269,205.160 426.430,199.665 426.590,196.318 426.751,192.948 426.912,188.208 427.073,183.407 427.233,180.662 427.394,173.388 427.555,167.084 427.716,160.792 427.876,153.769 428.037,149.521 428.198,144.005 428.359,141.135 428.519,137.285 428.680,133.480 428.841,129.327 429.001,127.246 429.162,125.563 429.323,122.674 429.484,120.699 429.644,116.238 429.805,112.929 429.966,111.467 430.127,110.601 430.287,109.194 430.448,106.404 430.609,103.890 430.770,102.437 430.930,100.141 431.091,98.133 431.252,96.373 431.413,94.752 431.573,93.441 431.734,92.467 431.895,91.676 432.056,92.052 432.216,90.588 432.377,89.902 432.538,88.309 432.699,86.864 432.859,85.817 433.020,84.185 433.181,83.201 433.341,81.458 433.502,80.865 433.663,80.533 433.824,79.536 433.984,78.244 434.145,78.276 434.306,77.505 434.467,76.967 434.627,76.257 434.788,75.542 434.949,74.960 435.110,73.644 435.270,73.415 435.431,72.926 435.592,72.091 435.753,71.809 435.913,70.571 436.074,69.639 436.235,68.868 436.396,68.541 436.556,68.065 436.717,67.244 436.878,66.914 437.039,66.543 437.199,66.794 437.360,66.525 437.521,66.122 437.681,65.214 437.842,64.463 438.003,64.001 438.164,63.519 438.324,63.005 438.485,62.584 438.646,61.542 438.807,61.654 438.967,60.853 439.128,60.309 439.289,59.779 439.450,59.430 439.610,58.813 439.771,58.191 439.932,57.457 440.093,56.855 440.253,56.937 440.414,55.701 440.575,55.217 440.736,54.724 440.896,54.277 441.057,53.896 441.218,53.156 441.379,52.363 441.539,51.780 441.700,51.726 441.861,51.206 442.021,50.159 442.182,50.295 442.343,48.906 442.504,48.604 442.664,48.122 442.825,47.184 442.986,47.031 443.147,46.878 443.307,46.252 443.468,46.000 443.629,45.288 443.790,44.664 443.950,44.375 444.111,44.358 444.272,44.120 444.433,43.899 444.593,43.569 444.754,42.834 444.915,42.712 445.076,42.761 445.236,42.260 445.397,42.003 445.558,42.065 445.719,42.001 445.879,41.982 446.040,41.613 446.201,41.681 446.361,41.530 446.522,41.475 446.683,40.983 446.844,40.186 447.004,40.725 447.165,40.148 447.326,40.293 447.487,40.340 447.647,40.064 447.808,40.490 447.969,40.130 448.130,39.659 448.290,39.773 448.451,39.623 448.612,39.521 448.773,39.537 448.933,39.432 449.094,39.053 449.255,39.209 449.416,38.801 449.576,38.944 449.737,39.165 449.898,39.562 450.059,39.308 450.219,38.958 450.380,38.858 450.541,38.714 450.701,38.830 450.862,38.927 451.023,39.617 451.184,38.823 451.344,38.902 451.505,38.541 451.666,38.980 451.827,38.889 451.987,38.870 452.148,38.580 452.309,38.741 452.470,38.459 452.630,38.325 452.791,38.479 452.952,38.689 453.113,38.361 453.273,37.841 453.434,38.044 453.595,38.238 453.756,37.969 453.916,37.708 454.077,38.441 454.238,37.758 454.399,37.265 454.559,37.742 454.720,37.795 454.881,37.393 455.041,37.338 455.202,37.521 455.363,37.334 455.524,37.542 455.684,37.862 455.845,37.362 456.006,37.819 456.167,38.089 456.327,37.852 456.488,37.822 456.649,37.763 456.810,37.532 456.970,37.902 457.131,38.572 457.292,37.798 457.453,38.090 457.613,37.815 457.774,38.243 457.935,38.451 458.096,38.579 458.256,38.748 458.417,39.091 458.578,39.024 458.739,39.216 458.899,39.255 459.060,39.446 459.221,39.190 459.381,39.791 459.542,40.247 459.703,40.273 459.864,40.596 460.024,40.437 460.185,41.109 460.346,40.960 460.507,41.251 460.667,41.557 460.828,41.886 460.989,42.378 461.150,42.854 461.310,43.147 461.471,43.015 461.632,43.361 461.793,43.996 461.953,44.081 462.114,44.656 462.275,44.539 462.436,45.052 462.596,45.987 462.757,46.342 462.918,46.728 463.079,47.313 463.239,48.136 463.400,48.874 463.561,49.708 463.721,50.055 463.882,50.969 464.043,51.761 464.204,52.689 464.364,53.000 464.525,53.924 464.686,54.672 464.847,55.818 465.007,57.022 465.168,57.664 465.329,58.635 465.490,60.007 465.650,60.868 465.811,62.752 465.972,63.856 466.133,65.782 466.293,66.989 466.454,68.761 466.615,70.186 466.776,71.357 466.936,74.199 467.097,75.376 467.258,76.736 467.419,78.808 467.579,80.818 467.740,82.030 467.901,83.575 468.061,85.768 468.222,88.177 468.383,90.216 468.544,92.598 468.704,95.199 468.865,97.814 469.026,99.573 469.187,102.654 469.347,105.007 469.508,107.742 469.669,110.336 469.830,113.049 469.990,115.358 470.151,117.427 470.312,120.436 470.473,123.339 470.633,125.599 470.794,129.133 470.955,132.647 471.116,135.859 471.276,137.364 471.437,142.674 471.598,147.185 471.759,151.750 471.919,156.719 472.080,160.090 472.241,165.659 472.401,170.935 472.562,177.093 472.723,184.748 472.884,191.429 473.044,201.203 473.205,208.564 473.366,217.530 473.527,225.565 473.687,233.249 473.848,250.197 474.009,258.691 474.170,279.802 474.330,310.598 474.491,321.115 " />
        <g
           id="g29" />
      </g>
      <g
         id="ID000004">
        <g
           id="g32"
           transform="translate(289.3,404.819)">
          <g
             id="g34">
            <text
               style="font-size:12.5px;text-anchor:middle;fill:#000000;font-family:Helvetica"
               id="text36"
               font-size="10pt"
               y="0"
               x="0">time [us]</text>
          </g>
        </g>
      </g>
      <g
         id="ID000005">
        <g
           id="g39"
           transform="translate(41.8,204.151)">
          <g
             id="g41"
             transform="matrix(0,-1,1,0,0,0)">
            <text
               style="font-size:12.5px;text-anchor:middle;fill:#000000;font-family:Helvetica"
               id="text43"
               font-size="10pt"
               y="0"
               x="0">EVM [dB]</text>
          </g>
        </g>
      </g>
      <g
         id="ID000006" />
      <g
         id="ID000007" />
      <g
         id="ID000008" />
    </g>
    <g
       id="g48">
      <polyline
         style="fill:none;stroke:#000000;stroke-width:0.5pt;stroke-dasharray:none"
         id="polyline50"
         points="145.133,373.800 145.133,369.460 " />
      <polyline
         style="fill:none;stroke:#000000;stroke-width:0.5pt;stroke-dasharray:none"
         id="polyline52"
         points="217.467,373.800 217.467,369.460 " />
      <polyline
         style="fill:none;stroke:#000000;stroke-width:0.5pt;stroke-dasharray:none"
         id="polyline54"
         points="289.800,373.800 289.800,369.460 " />
      <polyline
         style="fill:none;stroke:#000000;stroke-width:0.5pt;stroke-dasharray:none"
         id="polyline56"
         points="362.133,373.800 362.133,369.460 " />
      <polyline
         style="fill:none;stroke:#000000;stroke-width:0.5pt;stroke-dasharray:none"
         id="polyline58"
         points="434.467,373.800 434.467,369.460 " />
      <polyline
         style="fill:none;stroke:#000000;stroke-width:0.5pt;stroke-dasharray:none"
         id="polyline60"
         points="72.800,373.800 506.800,373.800 " />
      <polyline
         style="fill:none;stroke:#000000;stroke-width:0.5pt;stroke-dasharray:none"
         id="polyline62"
         points="145.133,31.500 145.133,35.840 " />
      <polyline
         style="fill:none;stroke:#000000;stroke-width:0.5pt;stroke-dasharray:none"
         id="polyline64"
         points="217.467,31.500 217.467,35.840 " />
      <polyline
         style="fill:none;stroke:#000000;stroke-width:0.5pt;stroke-dasharray:none"
         id="polyline66"
         points="289.800,31.500 289.800,35.840 " />
      <polyline
         style="fill:none;stroke:#000000;stroke-width:0.5pt;stroke-dasharray:none"
         id="polyline68"
         points="362.133,31.500 362.133,35.840 " />
      <polyline
         style="fill:none;stroke:#000000;stroke-width:0.5pt;stroke-dasharray:none"
         id="polyline70"
         points="434.467,31.500 434.467,35.840 " />
      <polyline
         style="fill:none;stroke:#000000;stroke-width:0.5pt;stroke-dasharray:none"
         id="polyline72"
         points="72.800,31.500 506.800,31.500 " />
      <g
         id="g74"
         transform="translate(72.8,392.446)">
        <g
           id="g76">
          <text
             style="font-size:12.5px;text-anchor:middle;fill:#000000;font-family:Helvetica"
             id="text78"
             font-size="10pt"
             y="0"
             x="0">0</text>
        </g>
      </g>
      <g
         id="g80"
         transform="translate(145.133,392.446)">
        <g
           id="g82">
          <text
             style="font-size:12.5px;text-anchor:middle;fill:#000000;font-family:Helvetica"
             id="text84"
             font-size="10pt"
             y="0"
             x="0">1</text>
        </g>
      </g>
      <g
         id="g86"
         transform="translate(217.467,392.446)">
        <g
           id="g88">
          <text
             style="font-size:12.5px;text-anchor:middle;fill:#000000;font-family:Helvetica"
             id="text90"
             font-size="10pt"
             y="0"
             x="0">2</text>
        </g>
      </g>
      <g
         id="g92"
         transform="translate(289.8,392.446)">
        <g
           id="g94">
          <text
             style="font-size:12.5px;text-anchor:middle;fill:#000000;font-family:Helvetica"
             id="text96"
             font-size="10pt"
             y="0"
             x="0">3</text>
        </g>
      </g>
      <g
         id="g98"
         transform="translate(362.133,392.446)">
        <g
           id="g100">
          <text
             style="font-size:12.5px;text-anchor:middle;fill:#000000;font-family:Helvetica"
             id="text102"
             font-size="10pt"
             y="0"
             x="0">4</text>
        </g>
      </g>
      <g
         id="g104"
         transform="translate(434.467,392.446)">
        <g
           id="g106">
          <text
             style="font-size:12.5px;text-anchor:middle;fill:#000000;font-family:Helvetica"
             id="text108"
             font-size="10pt"
             y="0"
             x="0">5</text>
        </g>
      </g>
      <g
         id="g110"
         transform="translate(506.8,392.446)">
        <g
           id="g112">
          <text
             style="font-size:12.5px;text-anchor:middle;fill:#000000;font-family:Helvetica"
             id="text114"
             font-size="10pt"
             y="0"
             x="0">6</text>
        </g>
      </g>
      <polyline
         style="fill:none;stroke:#000000;stroke-width:0.5pt;stroke-dasharray:none"
         id="polyline116"
         points="72.800,331.012 77.140,331.012 " />
      <polyline
         style="fill:none;stroke:#000000;stroke-width:0.5pt;stroke-dasharray:none"
         id="polyline118"
         points="72.800,288.225 77.140,288.225 " />
      <polyline
         style="fill:none;stroke:#000000;stroke-width:0.5pt;stroke-dasharray:none"
         id="polyline120"
         points="72.800,245.438 77.140,245.438 " />
      <polyline
         style="fill:none;stroke:#000000;stroke-width:0.5pt;stroke-dasharray:none"
         id="polyline122"
         points="72.800,202.650 77.140,202.650 " />
      <polyline
         style="fill:none;stroke:#000000;stroke-width:0.5pt;stroke-dasharray:none"
         id="polyline124"
         points="72.800,159.863 77.140,159.863 " />
      <polyline
         style="fill:none;stroke:#000000;stroke-width:0.5pt;stroke-dasharray:none"
         id="polyline126"
         points="72.800,117.075 77.140,117.075 " />
      <polyline
         style="fill:none;stroke:#000000;stroke-width:0.5pt;stroke-dasharray:none"
         id="polyline128"
         points="72.800,74.288 77.140,74.288 " />
      <polyline
         style="fill:none;stroke:#000000;stroke-width:0.5pt;stroke-dasharray:none"
         id="polyline130"
         points="72.800,373.800 72.800,31.500 " />
      <polyline
         style="fill:none;stroke:#000000;stroke-width:0.5pt;stroke-dasharray:none"
         id="polyline132"
         points="506.800,331.012 502.460,331.012 " />
      <polyline
         style="fill:none;stroke:#000000;stroke-width:0.5pt;stroke-dasharray:none"
         id="polyline134"
         points="506.800,288.225 502.460,288.225 " />
      <polyline
         style="fill:none;stroke:#000000;stroke-width:0.5pt;stroke-dasharray:none"
         id="polyline136"
         points="506.800,245.438 502.460,245.438 " />
      <polyline
         style="fill:none;stroke:#000000;stroke-width:0.5pt;stroke-dasharray:none"
         id="polyline138"
         points="506.800,202.650 502.460,202.650 " />
      <polyline
         style="fill:none;stroke:#000000;stroke-width:0.5pt;stroke-dasharray:none"
         id="polyline140"
         points="506.800,159.863 502.460,159.863 " />
      <polyline
         style="fill:none;stroke:#000000;stroke-width:0.5pt;stroke-dasharray:none"
         id="polyline142"
         points="506.800,117.075 502.460,117.075 " />
      <polyline
         style="fill:none;stroke:#000000;stroke-width:0.5pt;stroke-dasharray:none"
         id="polyline144"
         points="506.800,74.288 502.460,74.288 " />
      <polyline
         style="fill:none;stroke:#000000;stroke-width:0.5pt;stroke-dasharray:none"
         id="polyline146"
         points="506.800,373.800 506.800,31.500 " />
      <g
         id="g148"
         transform="translate(64.12,378.3)">
        <g
           id="g150">
          <text
             style="font-size:12.5px;text-anchor:end;fill:#000000;font-family:Helvetica"
             id="text152"
             font-size="10pt"
             y="0"
             x="0">-35</text>
        </g>
      </g>
      <g
         id="g154"
         transform="translate(64.12,335.512)">
        <g
           id="g156">
          <text
             style="font-size:12.5px;text-anchor:end;fill:#000000;font-family:Helvetica"
             id="text158"
             font-size="10pt"
             y="0"
             x="0">-30</text>
        </g>
      </g>
      <g
         id="g160"
         transform="translate(64.12,292.725)">
        <g
           id="g162">
          <text
             style="font-size:12.5px;text-anchor:end;fill:#000000;font-family:Helvetica"
             id="text164"
             font-size="10pt"
             y="0"
             x="0">-25</text>
        </g>
      </g>
      <g
         id="g166"
         transform="translate(64.12,249.938)">
        <g
           id="g168">
          <text
             style="font-size:12.5px;text-anchor:end;fill:#000000;font-family:Helvetica"
             id="text170"
             font-size="10pt"
             y="0"
             x="0">-20</text>
        </g>
      </g>
      <g
         id="g172"
         transform="translate(64.12,207.15)">
        <g
           id="g174">
          <text
             style="font-size:12.5px;text-anchor:end;fill:#000000;font-family:Helvetica"
             id="text176"
             font-size="10pt"
             y="0"
             x="0">-15</text>
        </g>
      </g>
      <g
         id="g178"
         transform="translate(64.12,164.363)">
        <g
           id="g180">
          <text
             style="font-size:12.5px;text-anchor:end;fill:#000000;font-family:Helvetica"
             id="text182"
             font-size="10pt"
             y="0"
             x="0">-10</text>
        </g>
      </g>
      <g
         id="g184"
         transform="translate(64.12,121.575)">
        <g
           id="g186">
          <text
             style="font-size:12.5px;text-anchor:end;fill:#000000;font-family:Helvetica"
             id="text188"
             font-size="10pt"
             y="0"
             x="0">-5</text>
        </g>
      </g>
      <g
         id="g190"
         transform="translate(64.12,78.788)">
        <g
           id="g192">
          <text
             style="font-size:12.5px;text-anchor:end;fill:#000000;font-family:Helvetica"
             id="text194"
             font-size="10pt"
             y="0"
             x="0">0</text>
        </g>
      </g>
      <g
         id="g196"
         transform="translate(64.12,36)">
        <g
           id="g198">
          <text
             style="font-size:12.5px;text-anchor:end;fill:#000000;font-family:Helvetica"
             id="text200"
             font-size="10pt"
             y="0"
             x="0">5</text>
        </g>
      </g>
      <polyline
         style="fill:none;stroke:#000000;stroke-width:0.5pt;stroke-dasharray:none"
         id="polyline202"
         points="72.800,373.800 72.800,370.377 " />
      <polyline
         style="fill:none;stroke:#000000;stroke-width:0.5pt;stroke-dasharray:none"
         id="polyline204"
         points="72.800,373.800 72.800,373.800 " />
    </g>
  </g>
  <polygon
     points="502.25,38.75 423.75,38.75 423.75,86.375 502.25,86.375 "
     id="polygon210"
     style="fill:#ffffff;fill-opacity:1;stroke:none"
     transform="translate(-32.6875,-27.325)" />
  <polygon
     points="502.25,38.75 423.75,38.75 423.75,38.75 502.25,38.75 "
     id="polygon212"
     style="fill:#ffffff;fill-opacity:1;stroke:none"
     transform="translate(-32.6875,-27.325)" />
  <polygon
     points="423.75,38.75 423.75,38.75 423.75,86.375 423.75,86.375 "
     id="polygon214"
     style="fill:#ffffff;fill-opacity:1;stroke:none"
     transform="translate(-32.6875,-27.325)" />
  <g
     id="g216"
     transform="translate(-42.597482,-30.156423)">
    <g
       id="ID000011">
      <g
         transform="translate(473.567,56.93)"
         id="g219">
        <g
           id="g221">
          <text
             x="0"
             y="0"
             font-size="10pt"
             id="text223"
             style="font-size:12.5px;text-anchor:start;fill:#000000;font-family:Helvetica">
            <tspan
               id="tspan225">EVM</tspan>
            <tspan
               dy="5"
               font-size="7pt"
               id="tspan227"
               style="font-size:8.75px">R</tspan>
            <tspan
               dy="-5"
               font-size="10pt"
               id="tspan229"
               style="font-size:12.5px" />
          </text>
        </g>
      </g>
    </g>
    <g
       id="ID000012"
       clip-path="url(#ID000010)">
      <polyline
         points="431.250,51.750 468.750,51.750 "
         id="polyline232"
         style="fill:none;stroke:#0000ff;stroke-width:0.5pt;stroke-dasharray:none" />
      <g
         id="g234" />
    </g>
    <g
       id="ID000013"
       clip-path="url(#ID000010)">
      <g
         id="g237" />
    </g>
    <g
       id="ID000014">
      <g
         transform="translate(473.567,79.222)"
         id="g240">
        <g
           id="g242">
          <text
             x="0"
             y="0"
             font-size="10pt"
             id="text244"
             style="font-size:12.5px;text-anchor:start;fill:#000000;font-family:Helvetica">
            <tspan
               id="tspan246">EVM</tspan>
            <tspan
               dy="5"
               font-size="7pt"
               id="tspan248"
               style="font-size:8.75px">D</tspan>
            <tspan
               dy="-5"
               font-size="10pt"
               id="tspan250"
               style="font-size:12.5px" />
          </text>
        </g>
      </g>
    </g>
    <g
       id="ID000015"
       clip-path="url(#ID000010)">
      <polyline
         points="431.250,73.375 468.750,73.375 "
         id="polyline253"
         style="fill:none;stroke:#007f00;stroke-width:0.5pt;stroke-dasharray:none" />
      <g
         id="g255" />
    </g>
    <g
       id="ID000016"
       clip-path="url(#ID000010)">
      <g
         id="g258" />
    </g>
    <g
       id="ID000017" />
    <g
       id="ID000018" />
    <g
       id="ID000019" />
  </g>
  <g
     id="g263"
     transform="matrix(1.0984065,0,0,1,-82.142916,-27.325)">
    <polyline
       points="423.750,86.375 502.250,86.375 "
       id="polyline265"
       style="fill:none;stroke:#000000;stroke-width:0.47707696pt;stroke-dasharray:none" />
    <polyline
       points="423.750,38.750 502.250,38.750 "
       id="polyline267"
       style="fill:none;stroke:#000000;stroke-width:0.47707696pt;stroke-dasharray:none" />
    <polyline
       points="423.750,86.375 423.750,38.750 "
       id="polyline269"
       style="fill:none;stroke:#000000;stroke-width:0.47707696pt;stroke-dasharray:none" />
    <polyline
       points="502.250,86.375 502.250,38.750 "
       id="polyline271"
       style="fill:none;stroke:#000000;stroke-width:0.47707696pt;stroke-dasharray:none" />
    <polyline
       points="423.750,86.375 423.750,85.899 "
       id="polyline273"
       style="fill:none;stroke:#000000;stroke-width:0.47707696pt;stroke-dasharray:none" />
    <polyline
       points="423.750,86.375 423.750,86.375 "
       id="polyline275"
       style="fill:none;stroke:#000000;stroke-width:0.47707696pt;stroke-dasharray:none" />
  </g>
</svg>
