<?xml version="1.0" encoding="UTF-8" standalone="no"?>
<svg
   xmlns:dc="http://purl.org/dc/elements/1.1/"
   xmlns:cc="http://creativecommons.org/ns#"
   xmlns:rdf="http://www.w3.org/1999/02/22-rdf-syntax-ns#"
   xmlns:svg="http://www.w3.org/2000/svg"
   xmlns="http://www.w3.org/2000/svg"
   xmlns:sodipodi="http://sodipodi.sourceforge.net/DTD/sodipodi-0.dtd"
   xmlns:inkscape="http://www.inkscape.org/namespaces/inkscape"
   preserveAspectRatio="xMinYMin meet"
   width="100%"
   height="100%"
   viewBox="0 0 477.046 380.3315"
   version="1.1"
   id="svg2"
   inkscape:version="0.48.4 r9939"
   sodipodi:docname="res_450_qam4_evm_pcorr_initial.svg">
  <metadata
     id="metadata291">
    <rdf:RDF>
      <cc:Work
         rdf:about="">
        <dc:format>image/svg+xml</dc:format>
        <dc:type
           rdf:resource="http://purl.org/dc/dcmitype/StillImage" />
        <dc:title />
      </cc:Work>
    </rdf:RDF>
  </metadata>
  <defs
     id="defs289">
    <clipPath
       id="ID000010">
      <rect
         x="423.75"
         y="38.75"
         width="78.5"
         height="47.625"
         id="rect218" />
    </clipPath>
  </defs>
  <sodipodi:namedview
     pagecolor="#ffffff"
     bordercolor="#666666"
     borderopacity="1"
     objecttolerance="10"
     gridtolerance="10"
     guidetolerance="10"
     inkscape:pageopacity="0"
     inkscape:pageshadow="2"
     inkscape:window-width="1737"
     inkscape:window-height="1002"
     id="namedview287"
     showgrid="false"
     inkscape:zoom="1.5893067"
     inkscape:cx="176.42518"
     inkscape:cy="225.99536"
     inkscape:window-x="0"
     inkscape:window-y="25"
     inkscape:window-maximized="0"
     inkscape:current-layer="svg2"
     fit-margin-top="0"
     fit-margin-left="0"
     fit-margin-right="0"
     fit-margin-bottom="0" />
  <desc
     id="desc4">Matlab Figure Converted by PLOT2SVG written by Juerg Schwizer</desc>
  <g
     id="ID000000"
     transform="translate(-32.6875,-27.1375)">
    <clipPath
       id="ID000001">
      <rect
         id="rect11"
         height="342.29999"
         width="434"
         y="31.5"
         x="72.800003" />
    </clipPath>
    <polygon
       style="fill:#ffffff;fill-opacity:1;stroke:none"
       id="polygon13"
       points="506.8,373.8 506.8,31.5 72.8,31.5 72.8,373.8 " />
    <polygon
       style="fill:#ffffff;fill-opacity:1;stroke:none"
       id="polygon15"
       points="506.8,31.5 506.8,31.5 72.8,31.5 72.8,31.5 " />
    <polygon
       style="fill:#ffffff;fill-opacity:1;stroke:none"
       id="polygon17"
       points="72.8,373.8 72.8,31.5 72.8,31.5 72.8,373.8 " />
    <g
       id="g19">
      <g
         clip-path="url(#ID000001)"
         id="ID000002">
        <polyline
           style="fill:none;stroke:#0000ff;stroke-width:0.5pt;stroke-dasharray:none"
           id="polyline22"
           points="72.800,257.109 72.961,284.737 73.121,275.024 73.282,221.724 73.443,285.468 73.604,284.723 73.764,229.137 73.925,234.990 74.086,278.681 74.247,245.234 74.407,275.426 74.568,257.426 74.729,287.507 74.890,260.520 75.050,264.183 75.211,277.268 75.372,286.163 75.533,278.871 75.693,286.575 75.854,275.353 76.015,274.295 76.176,292.977 76.336,274.492 76.497,260.386 76.658,259.702 76.819,277.152 76.979,299.812 77.140,304.400 77.301,258.829 77.461,259.584 77.622,231.457 77.783,257.318 77.944,257.451 78.104,261.638 78.265,243.275 78.426,247.306 78.587,296.537 78.747,262.624 78.908,269.010 79.069,229.510 79.230,265.320 79.390,255.864 79.551,248.076 79.712,263.789 79.873,270.541 80.033,280.121 80.194,221.886 80.355,288.272 80.516,225.343 80.676,284.845 80.837,308.985 80.998,246.778 81.159,270.574 81.319,260.002 81.480,287.403 81.641,303.497 81.801,261.671 81.962,299.543 82.123,266.115 82.284,296.661 82.444,246.751 82.605,261.534 82.766,257.956 82.927,247.059 83.087,254.055 83.248,256.728 83.409,240.705 83.570,290.775 83.730,297.178 83.891,248.323 84.052,258.733 84.213,249.986 84.373,270.056 84.534,244.259 84.695,293.956 84.856,245.837 85.016,309.037 85.177,269.032 85.338,276.420 85.499,245.015 85.659,239.561 85.820,241.022 85.981,269.707 86.141,266.310 86.302,270.412 86.463,228.353 86.624,308.632 86.784,290.530 86.945,270.185 87.106,283.879 87.267,326.694 87.427,292.459 87.588,245.766 87.749,276.141 87.910,242.960 88.070,289.708 88.231,260.431 88.392,250.705 88.553,235.990 88.713,290.140 88.874,252.880 89.035,271.663 89.196,293.558 89.356,261.072 89.517,245.805 89.678,309.805 89.839,265.448 89.999,257.982 90.160,284.541 90.321,240.863 90.481,301.138 90.642,286.584 90.803,259.354 90.964,242.281 91.124,256.601 91.285,272.812 91.446,246.049 91.607,263.802 91.767,292.443 91.928,289.034 92.089,279.429 92.250,306.894 92.410,289.910 92.571,250.700 92.732,266.636 92.893,278.566 93.053,243.015 93.214,290.272 93.375,233.131 93.536,276.401 93.696,267.204 93.857,259.652 94.018,284.509 94.179,276.977 94.339,243.046 94.500,235.891 94.661,296.853 94.821,287.293 94.982,268.199 95.143,272.361 95.304,247.502 95.464,269.270 95.625,250.036 95.786,269.798 95.947,272.029 96.107,239.095 96.268,258.099 96.429,290.412 96.590,262.339 96.750,266.665 96.911,277.314 97.072,284.276 97.233,277.288 97.393,323.688 97.554,290.247 97.715,248.982 97.876,235.243 98.036,283.413 98.197,259.187 98.358,226.714 98.519,282.448 98.679,234.793 98.840,239.399 99.001,248.518 99.161,254.882 99.322,280.781 99.483,248.671 99.644,264.311 99.804,275.192 99.965,285.145 100.126,271.164 100.287,239.549 100.447,301.964 100.608,300.910 100.769,249.154 100.930,271.552 101.090,261.842 101.251,233.736 101.412,247.513 101.573,256.566 101.733,226.240 101.894,287.618 102.055,247.010 102.216,262.337 102.376,251.443 102.537,261.616 102.698,244.993 102.859,285.150 103.019,249.488 103.180,269.057 103.341,233.534 103.501,285.415 103.662,266.374 103.823,293.108 103.984,253.091 104.144,263.899 104.305,286.922 104.466,293.228 104.627,239.286 104.787,282.705 104.948,303.182 105.109,243.347 105.270,263.018 105.430,277.316 105.591,308.403 105.752,283.588 105.913,278.538 106.073,259.320 106.234,253.540 106.395,273.486 106.556,253.341 106.716,260.477 106.877,250.210 107.038,285.982 107.199,302.476 107.359,266.452 107.520,286.328 107.681,232.346 107.841,229.580 108.002,239.840 108.163,268.783 108.324,304.985 108.484,246.462 108.645,277.832 108.806,289.769 108.967,252.276 109.127,273.801 109.288,228.083 109.449,291.490 109.610,262.716 109.770,237.526 109.931,257.739 110.092,282.986 110.253,303.998 110.413,289.658 110.574,257.670 110.735,300.219 110.896,263.584 111.056,211.652 111.217,268.652 111.378,305.723 111.539,284.054 111.699,260.997 111.860,274.630 112.021,224.853 112.181,228.815 112.342,267.472 112.503,225.109 112.664,274.195 112.824,257.415 112.985,230.240 113.146,263.069 113.307,284.058 113.467,260.911 113.628,244.535 113.789,257.259 113.950,262.655 114.110,307.554 114.271,316.338 114.432,250.081 114.593,269.844 114.753,238.860 114.914,276.885 115.075,273.518 115.236,229.573 115.396,276.566 115.557,278.284 115.718,244.610 115.879,276.698 116.039,245.384 116.200,240.017 116.361,312.797 116.521,257.786 116.682,234.279 116.843,226.933 117.004,227.064 117.164,268.098 117.325,243.341 117.486,309.170 117.647,277.442 117.807,259.010 117.968,254.387 118.129,255.740 118.290,277.409 118.450,256.992 118.611,278.945 118.772,277.197 118.933,290.329 119.093,264.938 119.254,226.657 119.415,244.586 119.576,263.363 119.736,222.298 119.897,264.682 120.058,241.051 120.219,240.038 120.379,273.282 120.540,269.348 120.701,226.827 120.861,273.653 121.022,246.235 121.183,289.355 121.344,276.085 121.504,296.464 121.665,232.926 121.826,215.685 121.987,277.605 122.147,288.463 122.308,287.032 122.469,279.084 122.630,301.540 122.790,288.370 122.951,295.068 123.112,274.585 123.273,249.819 123.433,283.309 123.594,280.637 123.755,251.726 123.916,245.100 124.076,305.651 124.237,246.111 124.398,240.769 124.559,274.591 124.719,253.117 124.880,253.042 125.041,267.914 125.201,285.143 125.362,289.467 125.523,269.342 125.684,271.453 125.844,272.018 126.005,282.397 126.166,269.371 126.327,269.820 126.487,281.334 126.648,314.702 126.809,285.940 126.970,267.799 127.130,276.890 127.291,288.056 127.452,275.329 127.613,243.086 127.773,264.463 127.934,255.658 128.095,276.420 128.256,262.992 128.416,239.641 128.577,260.963 128.738,234.790 128.899,245.821 129.059,312.732 129.220,261.272 129.381,260.968 129.541,293.946 129.702,267.213 129.863,280.915 130.024,280.510 130.184,255.394 130.345,276.348 130.506,263.534 130.667,238.254 130.827,242.147 130.988,245.126 131.149,275.004 131.310,287.788 131.470,251.026 131.631,257.028 131.792,244.893 131.953,255.803 132.113,234.002 132.274,245.390 132.435,238.042 132.596,268.910 132.756,264.835 132.917,275.459 133.078,227.248 133.239,246.499 133.399,279.565 133.560,241.304 133.721,247.989 133.881,248.392 134.042,322.046 134.203,274.610 134.364,260.395 134.524,267.238 134.685,270.089 134.846,256.942 135.007,278.938 135.167,299.362 135.328,251.210 135.489,278.790 135.650,251.807 135.810,255.352 135.971,282.841 136.132,267.862 136.293,276.727 136.453,228.511 136.614,239.783 136.775,268.444 136.936,251.394 137.096,278.845 137.257,265.306 137.418,222.821 137.579,284.449 137.739,290.723 137.900,235.568 138.061,285.175 138.221,259.776 138.382,258.163 138.543,297.039 138.704,303.487 138.864,271.600 139.025,282.831 139.186,310.053 139.347,294.434 139.507,286.302 139.668,238.998 139.829,262.944 139.990,268.217 140.150,278.349 140.311,244.243 140.472,290.018 140.633,255.602 140.793,254.061 140.954,263.996 141.115,231.391 141.276,298.693 141.436,233.696 141.597,241.310 141.758,273.720 141.919,264.105 142.079,309.864 142.240,272.446 142.401,267.622 142.561,255.795 142.722,260.320 142.883,294.781 143.044,267.180 143.204,259.788 143.365,245.505 143.526,245.436 143.687,276.281 143.847,247.945 144.008,266.222 144.169,253.503 144.330,285.009 144.490,267.336 144.651,277.662 144.812,276.357 144.973,283.038 145.133,266.935 145.294,270.375 145.455,254.579 145.616,280.234 145.776,245.947 145.937,302.454 146.098,260.972 146.259,278.986 146.419,287.878 146.580,244.057 146.741,296.968 146.901,261.019 147.062,259.361 147.223,300.133 147.384,263.496 147.544,283.258 147.705,251.129 147.866,314.514 148.027,298.322 148.187,273.537 148.348,268.368 148.509,254.909 148.670,250.142 148.830,323.493 148.991,278.988 149.152,247.914 149.313,239.255 149.473,204.511 149.634,279.876 149.795,299.589 149.956,208.465 150.116,227.953 150.277,241.447 150.438,260.010 150.599,293.447 150.759,255.633 150.920,242.166 151.081,215.678 151.241,238.899 151.402,243.965 151.563,270.133 151.724,281.892 151.884,277.503 152.045,283.154 152.206,280.997 152.367,273.277 152.527,295.352 152.688,268.042 152.849,253.911 153.010,267.494 153.170,279.129 153.331,280.568 153.492,250.039 153.653,281.260 153.813,275.852 153.974,275.930 154.135,267.711 154.296,262.681 154.456,242.268 154.617,270.657 154.778,268.017 154.939,268.924 155.099,286.870 155.260,249.506 155.421,260.328 155.581,276.075 155.742,273.420 155.903,275.168 156.064,257.567 156.224,239.278 156.385,251.392 156.546,270.270 156.707,284.722 156.867,222.304 157.028,262.480 157.189,255.511 157.350,251.908 157.510,274.938 157.671,244.113 157.832,288.685 157.993,275.169 158.153,262.605 158.314,264.819 158.475,250.787 158.636,257.233 158.796,232.550 158.957,286.386 159.118,271.924 159.279,281.038 159.439,239.101 159.600,262.217 159.761,274.918 159.921,265.105 160.082,249.893 160.243,302.798 160.404,313.489 160.564,251.759 160.725,260.279 160.886,275.622 161.047,267.526 161.207,280.321 161.368,261.219 161.529,282.397 161.690,261.600 161.850,258.729 162.011,244.660 162.172,261.993 162.333,267.149 162.493,253.621 162.654,236.720 162.815,244.827 162.976,229.177 163.136,276.386 163.297,265.964 163.458,231.582 163.619,255.949 163.779,240.707 163.940,268.309 164.101,312.619 164.261,241.154 164.422,259.990 164.583,284.517 164.744,248.988 164.904,270.680 165.065,264.038 165.226,300.122 165.387,298.808 165.547,284.840 165.708,296.705 165.869,273.978 166.030,239.421 166.190,273.289 166.351,310.052 166.512,273.559 166.673,301.041 166.833,263.967 166.994,268.568 167.155,276.447 167.316,303.606 167.476,258.131 167.637,323.775 167.798,239.392 167.959,274.605 168.119,292.401 168.280,260.938 168.441,252.460 168.601,293.116 168.762,256.427 168.923,185.428 169.084,221.408 169.244,250.498 169.405,258.659 169.566,281.969 169.727,186.697 169.887,244.122 170.048,266.743 170.209,291.393 170.370,261.744 170.530,267.339 170.691,251.477 170.852,277.781 171.013,293.045 171.173,278.069 171.334,281.949 171.495,298.272 171.656,278.652 171.816,251.948 171.977,271.124 172.138,256.121 172.299,331.886 172.459,263.055 172.620,316.627 172.781,304.766 172.941,252.182 173.102,297.565 173.263,267.894 173.424,251.243 173.584,239.168 173.745,277.238 173.906,296.846 174.067,260.644 174.227,285.852 174.388,268.680 174.549,252.489 174.710,273.625 174.870,336.509 175.031,255.338 175.192,267.990 175.353,282.833 175.513,276.000 175.674,256.644 175.835,282.520 175.996,252.743 176.156,250.213 176.317,271.682 176.478,287.243 176.639,253.473 176.799,276.804 176.960,294.080 177.121,262.288 177.281,282.132 177.442,257.695 177.603,292.692 177.764,252.905 177.924,246.598 178.085,278.020 178.246,241.095 178.407,258.943 178.567,246.242 178.728,266.132 178.889,261.522 179.050,253.845 179.210,280.642 179.371,243.364 179.532,279.432 179.693,228.153 179.853,294.210 180.014,264.757 180.175,221.393 180.336,270.815 180.496,285.355 180.657,233.948 180.818,236.436 180.979,269.321 181.139,241.918 181.300,245.580 181.461,285.235 181.621,269.910 181.782,257.963 181.943,292.395 182.104,259.954 182.264,225.567 182.425,213.092 182.586,323.482 182.747,293.238 182.907,270.244 183.068,310.674 183.229,294.046 183.390,225.526 183.550,250.893 183.711,263.714 183.872,246.487 184.033,267.201 184.193,221.605 184.354,278.595 184.515,276.716 184.676,266.433 184.836,292.591 184.997,244.191 185.158,253.431 185.319,299.182 185.479,252.314 185.640,221.083 185.801,234.608 185.961,262.863 186.122,250.760 186.283,262.398 186.444,287.965 186.604,292.415 186.765,245.846 186.926,234.805 187.087,254.050 187.247,293.217 187.408,255.643 187.569,234.396 187.730,246.233 187.890,249.642 188.051,230.630 188.212,241.193 188.373,282.423 188.533,288.186 188.694,264.367 188.855,255.486 189.016,252.015 189.176,227.628 189.337,279.457 189.498,295.049 189.659,249.503 189.819,228.916 189.980,262.984 190.141,273.315 190.301,283.693 190.462,220.904 190.623,268.277 190.784,278.707 190.944,264.106 191.105,224.027 191.266,276.430 191.427,286.230 191.587,255.890 191.748,246.144 191.909,274.215 192.070,248.177 192.230,254.194 192.391,252.975 192.552,265.139 192.713,279.569 192.873,302.323 193.034,248.299 193.195,172.102 193.356,264.468 193.516,259.979 193.677,275.760 193.838,283.618 193.999,253.076 194.159,284.370 194.320,259.848 194.481,260.705 194.641,279.162 194.802,267.800 194.963,265.408 195.124,242.122 195.284,290.957 195.445,282.891 195.606,244.620 195.767,244.920 195.927,287.591 196.088,260.330 196.249,237.025 196.410,275.186 196.570,280.143 196.731,308.865 196.892,279.126 197.053,259.225 197.213,284.737 197.374,279.100 197.535,286.903 197.696,245.956 197.856,265.948 198.017,292.008 198.178,260.425 198.339,234.574 198.499,261.311 198.660,287.340 198.821,266.588 198.981,271.014 199.142,260.708 199.303,266.027 199.464,286.654 199.624,268.406 199.785,278.890 199.946,283.362 200.107,275.619 200.267,299.751 200.428,321.339 200.589,274.209 200.750,274.134 200.910,275.474 201.071,257.170 201.232,259.909 201.393,276.247 201.553,279.370 201.714,261.936 201.875,256.506 202.036,266.655 202.196,234.172 202.357,256.753 202.518,258.846 202.679,269.475 202.839,228.631 203.000,290.412 203.161,261.143 203.321,281.370 203.482,264.363 203.643,271.120 203.804,262.459 203.964,205.412 204.125,255.107 204.286,283.758 204.447,243.900 204.607,286.734 204.768,263.275 204.929,263.906 205.090,292.899 205.250,285.707 205.411,244.340 205.572,272.772 205.733,236.289 205.893,283.101 206.054,272.973 206.215,314.766 206.376,269.057 206.536,237.547 206.697,279.455 206.858,244.234 207.019,246.950 207.179,246.076 207.340,288.783 207.501,300.837 207.661,287.198 207.822,252.242 207.983,249.638 208.144,262.726 208.304,287.483 208.465,239.939 208.626,250.108 208.787,270.460 208.947,257.241 209.108,288.729 209.269,285.848 209.430,264.834 209.590,208.293 209.751,234.836 209.912,262.856 210.073,271.587 210.233,257.605 210.394,257.393 210.555,297.163 210.716,231.991 210.876,270.214 211.037,269.706 211.198,241.420 211.359,289.279 211.519,264.455 211.680,272.292 211.841,247.074 212.001,253.767 212.162,278.825 212.323,264.817 212.484,263.520 212.644,279.570 212.805,240.713 212.966,290.469 213.127,291.058 213.287,243.976 213.448,261.572 213.609,288.746 213.770,240.662 213.930,315.261 214.091,259.075 214.252,266.646 214.413,290.707 214.573,300.753 214.734,254.633 214.895,270.541 215.056,279.332 215.216,246.162 215.377,289.166 215.538,280.706 215.699,275.190 215.859,252.267 216.020,260.079 216.181,233.399 216.341,248.367 216.502,282.605 216.663,322.141 216.824,255.915 216.984,282.475 217.145,291.388 217.306,230.294 217.467,251.568 217.627,272.048 217.788,220.679 217.949,294.740 218.110,308.408 218.270,219.554 218.431,235.625 218.592,270.087 218.753,264.833 218.913,193.960 219.074,250.949 219.235,276.507 219.396,230.511 219.556,258.054 219.717,264.794 219.878,265.973 220.039,228.513 220.199,271.659 220.360,249.074 220.521,270.955 220.681,314.774 220.842,235.320 221.003,323.321 221.164,268.432 221.324,238.764 221.485,265.463 221.646,263.231 221.807,237.650 221.967,302.505 222.128,264.896 222.289,263.851 222.450,212.217 222.610,249.800 222.771,247.925 222.932,287.202 223.093,259.954 223.253,241.324 223.414,273.125 223.575,292.877 223.736,293.912 223.896,254.956 224.057,276.712 224.218,251.668 224.379,279.389 224.539,265.678 224.700,296.892 224.861,303.226 225.021,258.530 225.182,268.294 225.343,270.584 225.504,256.597 225.664,218.818 225.825,276.013 225.986,241.992 226.147,219.761 226.307,199.650 226.468,238.798 226.629,273.376 226.790,228.798 226.950,241.334 227.111,277.520 227.272,292.518 227.433,299.920 227.593,275.367 227.754,235.706 227.915,243.337 228.076,284.440 228.236,264.750 228.397,282.789 228.558,258.102 228.719,234.887 228.879,209.646 229.040,279.173 229.201,245.904 229.361,266.576 229.522,303.518 229.683,263.388 229.844,231.420 230.004,216.968 230.165,283.138 230.326,260.200 230.487,259.570 230.647,261.181 230.808,269.922 230.969,261.583 231.130,297.354 231.290,273.609 231.451,222.115 231.612,235.340 231.773,225.733 231.933,220.735 232.094,286.610 232.255,261.704 232.416,258.354 232.576,246.606 232.737,272.230 232.898,297.450 233.059,305.026 233.219,236.492 233.380,255.680 233.541,281.013 233.701,289.926 233.862,254.465 234.023,269.562 234.184,241.746 234.344,246.518 234.505,295.210 234.666,266.063 234.827,263.754 234.987,229.380 235.148,269.630 235.309,281.485 235.470,252.800 235.630,271.568 235.791,267.272 235.952,276.312 236.113,265.786 236.273,288.399 236.434,248.607 236.595,273.474 236.756,248.640 236.916,259.895 237.077,293.053 237.238,259.342 237.399,257.842 237.559,271.862 237.720,262.221 237.881,283.425 238.041,279.650 238.202,285.620 238.363,248.033 238.524,280.207 238.684,312.183 238.845,256.305 239.006,307.367 239.167,285.030 239.327,234.910 239.488,266.867 239.649,231.710 239.810,261.878 239.970,290.070 240.131,223.693 240.292,245.198 240.453,325.579 240.613,258.657 240.774,265.467 240.935,270.106 241.096,287.691 241.256,264.101 241.417,253.332 241.578,257.732 241.739,256.669 241.899,256.056 242.060,259.334 242.221,255.386 242.381,298.750 242.542,291.299 242.703,279.229 242.864,281.215 243.024,262.437 243.185,249.573 243.346,312.340 243.507,256.866 243.667,272.830 243.828,296.535 243.989,262.038 244.150,266.415 244.310,239.975 244.471,247.984 244.632,266.405 244.793,272.650 244.953,283.078 245.114,250.333 245.275,246.583 245.436,278.408 245.596,267.048 245.757,278.400 245.918,243.098 246.079,286.716 246.239,255.740 246.400,299.319 246.561,225.129 246.721,276.023 246.882,281.588 247.043,293.214 247.204,279.818 247.364,251.241 247.525,282.337 247.686,283.117 247.847,284.336 248.007,253.193 248.168,286.414 248.329,216.749 248.490,294.483 248.650,241.095 248.811,257.389 248.972,249.953 249.133,264.252 249.293,279.012 249.454,239.929 249.615,259.757 249.776,258.318 249.936,277.576 250.097,277.651 250.258,278.675 250.419,241.066 250.579,287.542 250.740,282.532 250.901,248.179 251.061,313.732 251.222,297.147 251.383,275.199 251.544,281.671 251.704,252.744 251.865,244.066 252.026,255.341 252.187,255.523 252.347,221.396 252.508,236.994 252.669,280.247 252.830,298.483 252.990,218.197 253.151,238.884 253.312,260.226 253.473,275.959 253.633,293.464 253.794,257.724 253.955,246.216 254.116,246.743 254.276,275.818 254.437,267.614 254.598,293.821 254.759,281.635 254.919,301.401 255.080,240.860 255.241,296.417 255.401,273.057 255.562,218.946 255.723,252.268 255.884,284.228 256.044,251.024 256.205,253.566 256.366,278.945 256.527,282.490 256.687,271.014 256.848,291.732 257.009,301.983 257.170,271.951 257.330,259.739 257.491,268.434 257.652,235.168 257.813,298.513 257.973,278.997 258.134,262.926 258.295,303.890 258.456,287.091 258.616,293.763 258.777,304.463 258.938,251.019 259.099,217.300 259.259,280.250 259.420,288.480 259.581,263.943 259.741,296.737 259.902,263.024 260.063,271.025 260.224,205.461 260.384,233.621 260.545,292.867 260.706,309.397 260.867,259.330 261.027,271.700 261.188,275.677 261.349,299.244 261.510,239.835 261.670,258.344 261.831,241.150 261.992,291.982 262.153,269.613 262.313,264.565 262.474,259.205 262.635,262.552 262.796,251.988 262.956,245.001 263.117,258.161 263.278,249.901 263.439,233.491 263.599,256.250 263.760,289.973 263.921,260.156 264.081,274.893 264.242,247.353 264.403,229.142 264.564,271.841 264.724,281.521 264.885,273.810 265.046,282.019 265.207,223.467 265.367,265.755 265.528,255.275 265.689,285.120 265.850,270.246 266.010,241.917 266.171,254.446 266.332,226.502 266.493,289.853 266.653,273.134 266.814,279.413 266.975,288.779 267.136,252.305 267.296,254.336 267.457,240.199 267.618,258.158 267.779,250.314 267.939,282.288 268.100,246.556 268.261,289.699 268.421,262.476 268.582,281.975 268.743,246.379 268.904,280.439 269.064,263.325 269.225,243.739 269.386,273.355 269.547,293.696 269.707,274.790 269.868,249.201 270.029,225.497 270.190,229.406 270.350,241.907 270.511,276.503 270.672,244.724 270.833,252.688 270.993,258.292 271.154,296.035 271.315,258.149 271.476,272.402 271.636,220.804 271.797,253.820 271.958,258.711 272.119,249.170 272.279,283.355 272.440,283.812 272.601,279.643 272.761,277.476 272.922,309.915 273.083,268.385 273.244,245.417 273.404,238.085 273.565,239.525 273.726,266.768 273.887,272.342 274.047,266.276 274.208,305.828 274.369,263.780 274.530,237.293 274.690,282.730 274.851,239.390 275.012,243.213 275.173,304.097 275.333,268.646 275.494,259.225 275.655,274.577 275.816,230.378 275.976,311.678 276.137,289.061 276.298,285.268 276.459,284.414 276.619,278.933 276.780,275.181 276.941,291.485 277.101,272.094 277.262,262.313 277.423,281.116 277.584,315.138 277.744,261.502 277.905,270.610 278.066,256.905 278.227,227.926 278.387,283.226 278.548,308.143 278.709,235.794 278.870,261.401 279.030,275.563 279.191,291.551 279.352,270.044 279.513,250.082 279.673,248.620 279.834,254.179 279.995,266.909 280.156,272.740 280.316,241.476 280.477,279.617 280.638,238.288 280.799,260.689 280.959,276.089 281.120,208.151 281.281,288.392 281.441,282.824 281.602,254.098 281.763,279.202 281.924,225.984 282.084,267.792 282.245,270.274 282.406,301.118 282.567,272.728 282.727,231.134 282.888,215.911 283.049,271.649 283.210,265.039 283.370,252.359 283.531,304.305 283.692,264.778 283.853,242.236 284.013,250.006 284.174,279.940 284.335,299.858 284.496,264.163 284.656,274.224 284.817,236.610 284.978,277.733 285.139,207.346 285.299,209.647 285.460,273.842 285.621,266.824 285.781,254.288 285.942,245.421 286.103,281.569 286.264,263.637 286.424,321.836 286.585,258.891 286.746,266.970 286.907,266.760 287.067,276.100 287.228,284.398 287.389,280.641 287.550,236.287 287.710,282.787 287.871,290.243 288.032,285.968 288.193,230.714 288.353,247.934 288.514,259.192 288.675,229.399 288.836,244.110 288.996,296.508 289.157,246.269 289.318,278.674 289.479,271.312 289.639,277.542 289.800,299.100 289.961,266.382 290.121,245.551 290.282,250.675 290.443,291.622 290.604,257.657 290.764,267.954 290.925,269.651 291.086,246.684 291.247,260.618 291.407,242.583 291.568,250.847 291.729,292.657 291.890,269.621 292.050,262.967 292.211,286.078 292.372,221.787 292.533,267.435 292.693,246.256 292.854,235.304 293.015,283.994 293.176,303.228 293.336,286.014 293.497,272.072 293.658,282.455 293.819,270.433 293.979,301.638 294.140,294.436 294.301,278.851 294.461,257.737 294.622,262.334 294.783,277.068 294.944,273.698 295.104,260.887 295.265,264.576 295.426,266.334 295.587,278.387 295.747,273.775 295.908,269.893 296.069,258.185 296.230,268.729 296.390,257.717 296.551,258.597 296.712,276.886 296.873,277.111 297.033,244.041 297.194,269.258 297.355,321.307 297.516,238.562 297.676,243.542 297.837,208.950 297.998,275.186 298.159,303.406 298.319,225.024 298.480,277.553 298.641,241.800 298.801,300.225 298.962,264.961 299.123,258.494 299.284,264.715 299.444,309.384 299.605,273.603 299.766,275.855 299.927,279.212 300.087,269.741 300.248,286.339 300.409,268.443 300.570,243.248 300.730,204.170 300.891,258.164 301.052,293.325 301.213,282.281 301.373,271.912 301.534,285.943 301.695,266.469 301.856,313.516 302.016,260.046 302.177,300.998 302.338,254.180 302.499,257.417 302.659,287.016 302.820,283.371 302.981,329.007 303.141,267.428 303.302,274.794 303.463,273.164 303.624,278.148 303.784,278.422 303.945,272.837 304.106,268.586 304.267,254.812 304.427,272.474 304.588,301.660 304.749,258.736 304.910,277.203 305.070,236.866 305.231,270.311 305.392,265.713 305.553,258.416 305.713,291.784 305.874,261.930 306.035,242.289 306.196,289.032 306.356,315.839 306.517,237.480 306.678,270.659 306.839,268.139 306.999,260.452 307.160,265.172 307.321,256.644 307.481,270.819 307.642,281.511 307.803,299.560 307.964,241.312 308.124,263.201 308.285,251.209 308.446,278.226 308.607,264.955 308.767,276.051 308.928,275.690 309.089,267.731 309.250,229.231 309.410,268.175 309.571,254.470 309.732,301.802 309.893,299.155 310.053,222.881 310.214,299.384 310.375,279.523 310.536,312.320 310.696,290.443 310.857,255.209 311.018,298.932 311.179,256.327 311.339,260.910 311.500,269.632 311.661,249.838 311.821,247.303 311.982,257.667 312.143,295.467 312.304,284.159 312.464,226.288 312.625,278.979 312.786,267.848 312.947,225.969 313.107,326.627 313.268,284.420 313.429,287.386 313.590,296.105 313.750,262.943 313.911,247.396 314.072,261.065 314.233,229.194 314.393,253.240 314.554,288.244 314.715,286.735 314.876,241.445 315.036,288.433 315.197,271.152 315.358,217.421 315.519,259.039 315.679,275.783 315.840,250.915 316.001,224.306 316.161,240.038 316.322,269.278 316.483,274.831 316.644,278.744 316.804,259.572 316.965,264.934 317.126,269.662 317.287,280.157 317.447,266.541 317.608,287.439 317.769,281.718 317.930,233.879 318.090,237.270 318.251,235.882 318.412,252.754 318.573,296.359 318.733,265.252 318.894,283.713 319.055,288.466 319.216,253.639 319.376,219.865 319.537,259.502 319.698,254.609 319.859,278.795 320.019,265.921 320.180,283.449 320.341,299.148 320.501,300.164 320.662,268.653 320.823,282.262 320.984,241.344 321.144,238.227 321.305,270.370 321.466,256.444 321.627,270.393 321.787,286.376 321.948,294.285 322.109,265.209 322.270,208.818 322.430,286.013 322.591,256.291 322.752,277.238 322.913,253.992 323.073,277.028 323.234,275.678 323.395,296.487 323.556,270.996 323.716,269.001 323.877,287.046 324.038,264.342 324.199,288.472 324.359,292.591 324.520,251.193 324.681,293.612 324.841,243.620 325.002,284.783 325.163,268.168 325.324,205.647 325.484,249.223 325.645,322.126 325.806,251.444 325.967,256.086 326.127,286.711 326.288,280.867 326.449,261.130 326.610,235.752 326.770,214.662 326.931,254.557 327.092,270.052 327.253,238.750 327.413,242.531 327.574,235.932 327.735,241.876 327.896,232.787 328.056,260.365 328.217,269.719 328.378,241.708 328.539,279.884 328.699,266.598 328.860,266.116 329.021,237.627 329.181,222.232 329.342,275.255 329.503,264.207 329.664,278.403 329.824,302.502 329.985,292.834 330.146,301.065 330.307,265.055 330.467,270.636 330.628,248.947 330.789,254.191 330.950,264.871 331.110,233.978 331.271,249.395 331.432,261.432 331.593,267.660 331.753,279.176 331.914,239.108 332.075,258.996 332.236,212.784 332.396,274.922 332.557,256.979 332.718,293.948 332.879,234.545 333.039,267.526 333.200,242.895 333.361,255.779 333.521,245.448 333.682,250.268 333.843,247.610 334.004,266.015 334.164,192.672 334.325,252.038 334.486,241.970 334.647,292.581 334.807,286.514 334.968,275.686 335.129,257.275 335.290,236.502 335.450,249.192 335.611,250.075 335.772,230.899 335.933,267.646 336.093,228.784 336.254,266.790 336.415,269.266 336.576,294.307 336.736,225.669 336.897,231.440 337.058,225.961 337.219,206.809 337.379,248.830 337.540,237.215 337.701,269.651 337.861,259.937 338.022,234.692 338.183,251.383 338.344,237.320 338.504,268.874 338.665,262.310 338.826,258.703 338.987,275.327 339.147,237.337 339.308,247.498 339.469,269.980 339.630,253.203 339.790,255.107 339.951,262.635 340.112,232.905 340.273,274.881 340.433,310.346 340.594,260.553 340.755,230.881 340.916,241.962 341.076,275.431 341.237,256.402 341.398,268.543 341.559,297.211 341.719,278.869 341.880,261.191 342.041,248.444 342.201,211.696 342.362,243.402 342.523,222.283 342.684,251.561 342.844,196.421 343.005,275.368 343.166,287.493 343.327,247.553 343.487,211.000 343.648,254.886 343.809,222.094 343.970,255.803 344.130,312.849 344.291,271.536 344.452,285.067 344.613,255.906 344.773,282.935 344.934,228.417 345.095,248.902 345.256,286.362 345.416,302.619 345.577,317.905 345.738,288.101 345.899,251.059 346.059,251.203 346.220,278.276 346.381,240.265 346.541,272.108 346.702,277.155 346.863,246.361 347.024,262.210 347.184,296.138 347.345,296.976 347.506,244.684 347.667,252.802 347.827,273.930 347.988,279.510 348.149,275.871 348.310,289.743 348.470,226.995 348.631,259.821 348.792,276.212 348.953,266.774 349.113,285.264 349.274,264.403 349.435,280.398 349.596,238.885 349.756,277.639 349.917,245.658 350.078,241.050 350.239,248.802 350.399,276.169 350.560,262.329 350.721,294.498 350.881,299.982 351.042,250.739 351.203,281.715 351.364,224.949 351.524,272.070 351.685,255.601 351.846,250.850 352.007,269.253 352.167,225.052 352.328,259.996 352.489,228.973 352.650,243.502 352.810,257.899 352.971,233.491 353.132,273.908 353.293,282.491 353.453,262.002 353.614,258.476 353.775,258.740 353.936,257.119 354.096,248.269 354.257,266.416 354.418,280.108 354.579,289.415 354.739,262.084 354.900,268.058 355.061,254.773 355.221,268.515 355.382,291.667 355.543,268.629 355.704,279.051 355.864,260.893 356.025,246.213 356.186,222.411 356.347,256.413 356.507,251.343 356.668,239.379 356.829,273.987 356.990,281.191 357.150,295.791 357.311,252.776 357.472,277.298 357.633,305.473 357.793,263.767 357.954,273.843 358.115,312.790 358.276,314.738 358.436,239.039 358.597,283.753 358.758,278.237 358.919,284.035 359.079,279.806 359.240,224.871 359.401,283.418 359.561,262.209 359.722,277.892 359.883,262.772 360.044,263.906 360.204,266.804 360.365,267.459 360.526,290.410 360.687,251.930 360.847,241.369 361.008,254.497 361.169,251.257 361.330,242.487 361.490,230.103 361.651,293.699 361.812,219.040 361.973,274.630 362.133,282.557 362.294,257.954 362.455,266.444 362.616,274.286 362.776,278.758 362.937,286.661 363.098,312.809 363.259,254.318 363.419,264.358 363.580,302.039 363.741,262.796 363.901,255.447 364.062,255.544 364.223,198.553 364.384,261.624 364.544,280.000 364.705,294.224 364.866,279.402 365.027,293.412 365.187,245.927 365.348,255.874 365.509,270.614 365.670,261.540 365.830,256.943 365.991,285.424 366.152,236.474 366.313,334.910 366.473,273.466 366.634,240.280 366.795,298.594 366.956,277.996 367.116,252.155 367.277,256.782 367.438,245.673 367.599,326.300 367.759,316.652 367.920,285.954 368.081,315.244 368.241,281.325 368.402,278.574 368.563,281.545 368.724,252.294 368.884,295.636 369.045,297.490 369.206,215.120 369.367,293.442 369.527,277.330 369.688,292.396 369.849,269.463 370.010,267.746 370.170,233.879 370.331,264.370 370.492,262.597 370.653,266.229 370.813,207.759 370.974,286.556 371.135,230.683 371.296,263.260 371.456,290.395 371.617,271.445 371.778,274.169 371.939,243.668 372.099,289.306 372.260,315.181 372.421,268.827 372.581,310.733 372.742,260.281 372.903,233.720 373.064,252.154 373.224,276.532 373.385,237.997 373.546,225.133 373.707,293.946 373.867,287.545 374.028,302.418 374.189,213.692 374.350,284.884 374.510,280.988 374.671,247.593 374.832,283.099 374.993,282.791 375.153,218.312 375.314,274.403 375.475,304.166 375.636,266.975 375.796,236.335 375.957,291.137 376.118,289.504 376.279,271.067 376.439,275.393 376.600,230.622 376.761,265.569 376.921,219.202 377.082,283.619 377.243,237.238 377.404,269.151 377.564,269.829 377.725,280.286 377.886,294.338 378.047,281.835 378.207,262.998 378.368,257.131 378.529,255.704 378.690,284.557 378.850,261.230 379.011,292.127 379.172,266.911 379.333,265.694 379.493,256.420 379.654,238.611 379.815,271.734 379.976,259.800 380.136,295.196 380.297,258.477 380.458,256.767 380.619,255.733 380.779,260.870 380.940,279.601 381.101,280.390 381.261,253.595 381.422,275.627 381.583,234.338 381.744,284.262 381.904,276.032 382.065,271.141 382.226,277.943 382.387,258.334 382.547,266.499 382.708,293.780 382.869,237.212 383.030,277.969 383.190,262.775 383.351,257.577 383.512,291.037 383.673,272.761 383.833,260.141 383.994,232.835 384.155,281.280 384.316,218.659 384.476,280.640 384.637,238.704 384.798,266.434 384.959,271.713 385.119,290.059 385.280,286.312 385.441,240.803 385.601,251.606 385.762,266.531 385.923,254.459 386.084,273.447 386.244,301.692 386.405,262.663 386.566,246.462 386.727,266.105 386.887,269.650 387.048,287.515 387.209,317.577 387.370,228.169 387.530,258.017 387.691,301.192 387.852,263.604 388.013,301.598 388.173,291.410 388.334,246.894 388.495,260.219 388.656,285.768 388.816,266.783 388.977,261.892 389.138,287.683 389.299,257.015 389.459,270.680 389.620,297.771 389.781,254.124 389.941,319.549 390.102,242.918 390.263,270.762 390.424,305.786 390.584,260.449 390.745,289.802 390.906,249.203 391.067,278.574 391.227,224.934 391.388,314.607 391.549,264.754 391.710,239.824 391.870,252.930 392.031,247.783 392.192,250.247 392.353,279.967 392.513,276.519 392.674,260.786 392.835,256.410 392.996,263.308 393.156,240.700 393.317,236.615 393.478,271.375 393.639,268.242 393.799,251.066 393.960,260.244 394.121,274.991 394.281,267.581 394.442,246.001 394.603,247.530 394.764,257.104 394.924,269.959 395.085,283.168 395.246,253.019 395.407,271.573 395.567,264.123 395.728,268.760 395.889,224.529 396.050,270.223 396.210,277.353 396.371,296.036 396.532,289.406 396.693,237.832 396.853,272.210 397.014,180.827 397.175,213.628 397.336,287.148 397.496,286.362 397.657,275.650 397.818,285.211 397.979,253.467 398.139,266.080 398.300,248.052 398.461,259.424 398.621,262.907 398.782,249.023 398.943,250.018 399.104,246.505 399.264,286.621 399.425,278.754 399.586,259.220 399.747,277.127 399.907,241.215 400.068,249.777 400.229,268.961 400.390,199.509 400.550,293.544 400.711,233.634 400.872,228.063 401.033,268.668 401.193,284.238 401.354,262.017 401.515,260.605 401.676,284.976 401.836,219.812 401.997,261.150 402.158,272.960 402.319,265.205 402.479,203.547 402.640,243.354 402.801,233.422 402.961,237.396 403.122,279.254 403.283,266.048 403.444,248.628 403.604,239.432 403.765,235.533 403.926,280.414 404.087,258.354 404.247,247.416 404.408,312.570 404.569,269.000 404.730,248.283 404.890,265.324 405.051,225.676 405.212,274.144 405.373,247.369 405.533,284.498 405.694,259.337 405.855,283.698 406.016,296.090 406.176,284.858 406.337,267.270 406.498,210.614 406.659,275.680 406.819,258.716 406.980,280.284 407.141,313.657 407.301,260.590 407.462,258.506 407.623,294.795 407.784,243.333 407.944,253.915 408.105,268.861 408.266,280.224 408.427,277.085 408.587,238.569 408.748,272.101 408.909,264.305 409.070,215.794 409.230,297.143 409.391,230.713 409.552,295.591 409.713,213.362 409.873,283.118 410.034,253.520 410.195,260.651 410.356,257.381 410.516,309.707 410.677,273.523 410.838,295.278 410.999,251.977 411.159,263.761 411.320,248.401 411.481,302.073 411.641,263.139 411.802,282.523 411.963,278.056 412.124,255.505 412.284,248.187 412.445,233.825 412.606,301.826 412.767,239.660 412.927,253.709 413.088,273.083 413.249,249.511 413.410,266.406 413.570,266.664 413.731,261.432 413.892,283.172 414.053,267.013 414.213,302.903 414.374,249.596 414.535,302.060 414.696,263.692 414.856,285.297 415.017,267.364 415.178,318.803 415.339,282.545 415.499,249.288 415.660,281.447 415.821,294.549 415.981,270.939 416.142,278.816 416.303,288.462 416.464,275.426 416.624,257.281 416.785,291.121 416.946,262.471 417.107,240.329 417.267,250.981 417.428,289.120 417.589,286.222 417.750,278.478 417.910,289.367 418.071,273.627 418.232,292.007 418.393,277.276 418.553,294.535 418.714,256.921 418.875,253.970 419.036,285.307 419.196,215.482 419.357,254.009 419.518,220.561 419.679,230.994 419.839,258.951 420.000,266.305 420.161,218.475 420.321,274.410 420.482,276.004 420.643,258.445 420.804,273.341 420.964,277.228 421.125,276.737 421.286,225.596 421.447,287.738 421.607,293.606 421.768,244.796 421.929,270.531 422.090,261.358 422.250,274.681 422.411,228.731 422.572,244.998 422.733,276.569 422.893,270.369 423.054,249.027 423.215,294.353 423.376,276.346 423.536,253.867 423.697,285.124 423.858,285.611 424.019,295.843 424.179,213.130 424.340,266.380 424.501,271.025 424.661,225.170 424.822,267.664 424.983,250.314 425.144,270.104 425.304,266.235 425.465,238.423 425.626,283.780 425.787,241.656 425.947,280.518 426.108,237.381 426.269,294.494 426.430,239.732 426.590,246.639 426.751,271.658 426.912,267.721 427.073,248.752 427.233,295.564 427.394,259.549 427.555,266.122 427.716,249.072 427.876,268.236 428.037,225.902 428.198,284.773 428.359,285.727 428.519,240.430 428.680,249.144 428.841,244.060 429.001,262.958 429.162,275.597 429.323,250.665 429.484,278.126 429.644,242.021 429.805,267.688 429.966,266.411 430.127,274.384 430.287,314.359 430.448,203.200 430.609,214.215 430.770,258.855 430.930,288.240 431.091,280.377 431.252,257.649 431.413,236.324 431.573,269.957 431.734,272.201 431.895,235.114 432.056,259.389 432.216,244.164 432.377,300.730 432.538,237.897 432.699,217.681 432.859,258.192 433.020,290.152 433.181,229.560 433.341,202.745 433.502,279.402 433.663,254.298 433.824,269.818 433.984,257.549 434.145,256.416 434.306,241.969 434.467,276.098 434.627,271.666 434.788,277.861 434.949,215.658 435.110,233.592 435.270,238.177 435.431,266.932 435.592,277.782 435.753,285.703 435.913,279.769 436.074,234.845 436.235,263.796 436.396,303.868 436.556,302.051 436.717,249.280 436.878,251.646 437.039,256.768 437.199,272.644 437.360,251.188 437.521,278.619 437.681,252.026 437.842,216.124 438.003,276.118 438.164,255.376 438.324,268.090 438.485,304.810 438.646,227.961 438.807,279.665 438.967,269.413 439.128,288.909 439.289,298.662 439.450,244.618 439.610,268.245 439.771,322.752 439.932,251.004 440.093,285.642 440.253,236.029 440.414,226.397 440.575,326.755 440.736,263.495 440.896,301.782 441.057,269.926 441.218,237.325 441.379,261.714 441.539,283.363 441.700,283.337 441.861,280.916 442.021,253.760 442.182,261.485 442.343,226.227 442.504,251.491 442.664,240.220 442.825,255.004 442.986,292.075 443.147,277.791 443.307,245.193 443.468,278.404 443.629,260.835 443.790,259.122 443.950,267.602 444.111,260.087 444.272,296.974 444.433,220.693 444.593,304.847 444.754,274.480 444.915,238.027 445.076,277.274 445.236,241.024 445.397,252.289 445.558,251.555 445.719,319.476 445.879,269.075 446.040,210.639 446.201,315.886 446.361,281.412 446.522,285.779 446.683,256.730 446.844,249.309 447.004,269.872 447.165,281.969 447.326,267.781 447.487,263.710 447.647,233.812 447.808,264.314 447.969,302.751 448.130,228.909 448.290,261.866 448.451,181.840 448.612,250.374 448.773,283.151 448.933,275.269 449.094,276.052 449.255,276.223 449.416,245.123 449.576,258.189 449.737,212.816 449.898,240.666 450.059,253.366 450.219,241.434 450.380,264.583 450.541,249.924 450.701,294.550 450.862,244.237 451.023,231.736 451.184,255.024 451.344,287.736 451.505,312.198 451.666,287.603 451.827,252.665 451.987,283.257 452.148,253.976 452.309,322.415 452.470,270.963 452.630,302.350 452.791,266.534 452.952,266.344 453.113,302.641 453.273,254.982 453.434,257.335 453.595,277.608 453.756,257.933 453.916,246.110 454.077,248.170 454.238,255.706 454.399,248.041 454.559,230.804 454.720,245.015 454.881,255.648 455.041,267.913 455.202,226.452 455.363,267.120 455.524,231.423 455.684,230.732 455.845,275.802 456.006,232.927 456.167,300.918 456.327,286.654 456.488,271.100 456.649,253.522 456.810,273.415 456.970,260.187 457.131,262.636 457.292,246.384 457.453,275.492 457.613,216.985 457.774,273.039 457.935,240.292 458.096,245.234 458.256,244.249 458.417,277.624 458.578,274.816 458.739,308.461 458.899,305.322 459.060,291.236 459.221,224.336 459.381,242.540 459.542,270.113 459.703,291.002 459.864,289.548 460.024,219.910 460.185,283.196 460.346,244.839 460.507,223.149 460.667,247.687 460.828,248.777 460.989,295.990 461.150,291.609 461.310,263.892 461.471,224.743 461.632,313.486 461.793,273.617 461.953,230.367 462.114,244.218 462.275,257.655 462.436,273.633 462.596,248.777 462.757,255.839 462.918,271.367 463.079,232.899 463.239,297.994 463.400,251.901 463.561,219.690 463.721,214.517 463.882,271.280 464.043,217.632 464.204,288.912 464.364,255.755 464.525,271.886 464.686,245.127 464.847,258.131 465.007,267.612 465.168,265.980 465.329,262.657 465.490,265.802 465.650,262.400 465.811,273.315 465.972,277.827 466.133,234.002 466.293,296.041 466.454,212.814 466.615,250.868 466.776,229.064 466.936,266.624 467.097,228.589 467.258,239.066 467.419,288.836 467.579,280.258 467.740,238.855 467.901,248.452 468.061,262.303 468.222,275.296 468.383,228.182 468.544,230.569 468.704,249.001 468.865,245.483 469.026,275.972 469.187,261.402 469.347,253.038 469.508,268.513 469.669,278.070 469.830,286.265 469.990,286.535 470.151,230.757 470.312,266.737 470.473,242.802 470.633,225.104 470.794,281.968 470.955,230.088 471.116,224.952 471.276,285.418 471.437,271.960 471.598,254.106 471.759,269.303 471.919,282.875 472.080,278.243 472.241,252.703 472.401,245.870 472.562,275.547 472.723,263.173 472.884,290.907 473.044,265.256 473.205,210.053 473.366,197.919 473.527,285.687 473.687,294.734 473.848,274.772 474.009,273.956 474.170,237.331 474.330,260.542 474.491,244.881 " />
        <g
           id="g24" />
      </g>
      <g
         clip-path="url(#ID000001)"
         id="ID000003">
        <polyline
           style="fill:none;stroke:#007f00;stroke-width:0.5pt;stroke-dasharray:none"
           id="polyline27"
           points="72.800,217.786 72.961,224.302 73.121,222.258 73.282,198.140 73.443,223.400 73.604,225.905 73.764,192.007 73.925,193.953 74.086,223.558 74.247,199.217 74.407,222.693 74.568,165.248 74.729,241.381 74.890,212.109 75.050,188.545 75.211,233.968 75.372,215.558 75.533,197.106 75.693,206.146 75.854,230.775 76.015,190.458 76.176,230.891 76.336,215.989 76.497,196.491 76.658,198.349 76.819,204.436 76.979,215.946 77.140,235.722 77.301,179.972 77.461,153.892 77.622,179.300 77.783,178.200 77.944,168.331 78.104,195.610 78.265,180.252 78.426,162.661 78.587,227.162 78.747,207.624 78.908,195.451 79.069,158.456 79.230,221.716 79.390,201.153 79.551,208.170 79.712,220.495 79.873,217.391 80.033,230.184 80.194,165.691 80.355,245.821 80.516,172.879 80.676,195.832 80.837,184.757 80.998,178.099 81.159,211.299 81.319,190.009 81.480,196.482 81.641,242.017 81.801,225.569 81.962,235.888 82.123,199.972 82.284,194.891 82.444,194.233 82.605,196.045 82.766,179.614 82.927,184.895 83.087,187.986 83.248,158.620 83.409,196.518 83.570,234.632 83.730,224.345 83.891,187.104 84.052,205.742 84.213,216.441 84.373,219.218 84.534,204.920 84.695,229.825 84.856,175.154 85.016,259.583 85.177,211.435 85.338,238.835 85.499,203.685 85.659,209.410 85.820,181.979 85.981,217.592 86.141,202.612 86.302,212.922 86.463,180.399 86.624,243.466 86.784,253.457 86.945,224.842 87.106,220.555 87.267,271.037 87.427,245.043 87.588,183.031 87.749,230.385 87.910,177.320 88.070,230.084 88.231,196.380 88.392,156.251 88.553,190.216 88.713,228.031 88.874,213.574 89.035,221.222 89.196,235.036 89.356,218.046 89.517,188.218 89.678,248.728 89.839,225.514 89.999,212.021 90.160,222.499 90.321,208.664 90.481,217.597 90.642,225.510 90.803,206.597 90.964,169.721 91.124,206.752 91.285,209.765 91.446,179.189 91.607,204.029 91.767,232.499 91.928,236.306 92.089,241.667 92.250,245.277 92.410,224.114 92.571,213.312 92.732,204.834 92.893,188.727 93.053,186.074 93.214,248.303 93.375,179.132 93.536,215.192 93.696,222.269 93.857,198.516 94.018,243.632 94.179,220.161 94.339,195.423 94.500,195.619 94.661,239.908 94.821,220.982 94.982,228.164 95.143,209.843 95.304,192.206 95.464,220.928 95.625,194.169 95.786,209.092 95.947,213.201 96.107,166.508 96.268,220.521 96.429,238.423 96.590,213.208 96.750,207.398 96.911,223.512 97.072,219.043 97.233,235.924 97.393,280.295 97.554,232.733 97.715,198.139 97.876,190.863 98.036,210.857 98.197,196.693 98.358,172.763 98.519,226.895 98.679,186.526 98.840,197.463 99.001,182.734 99.161,214.776 99.322,211.038 99.483,217.600 99.644,203.753 99.804,226.814 99.965,234.185 100.126,216.412 100.287,202.236 100.447,259.097 100.608,233.514 100.769,194.043 100.930,215.367 101.090,200.390 101.251,199.693 101.412,206.622 101.573,213.858 101.733,172.155 101.894,219.708 102.055,179.709 102.216,206.469 102.376,195.228 102.537,199.998 102.698,202.531 102.859,209.678 103.019,209.038 103.180,210.345 103.341,185.131 103.501,232.896 103.662,180.043 103.823,231.647 103.984,205.607 104.144,228.719 104.305,217.958 104.466,236.747 104.627,182.569 104.787,233.988 104.948,248.537 105.109,165.643 105.270,210.669 105.430,226.479 105.591,234.539 105.752,231.910 105.913,207.046 106.073,224.929 106.234,202.762 106.395,220.003 106.556,220.019 106.716,214.060 106.877,203.490 107.038,230.849 107.199,242.107 107.359,224.436 107.520,226.450 107.681,193.524 107.841,185.799 108.002,211.882 108.163,196.621 108.324,242.320 108.484,203.724 108.645,212.514 108.806,240.545 108.967,208.160 109.127,206.124 109.288,164.074 109.449,214.006 109.610,227.505 109.770,182.806 109.931,210.236 110.092,207.253 110.253,233.310 110.413,236.026 110.574,220.638 110.735,249.648 110.896,189.644 111.056,173.772 111.217,211.484 111.378,211.369 111.539,209.201 111.699,206.244 111.860,222.230 112.021,178.213 112.181,184.758 112.342,194.869 112.503,191.341 112.664,229.528 112.824,199.873 112.985,183.300 113.146,196.533 113.307,212.558 113.467,199.096 113.628,194.582 113.789,214.622 113.950,211.566 114.110,225.524 114.271,243.349 114.432,194.130 114.593,245.190 114.753,203.785 114.914,224.321 115.075,218.026 115.236,177.359 115.396,222.112 115.557,221.452 115.718,192.456 115.879,227.376 116.039,198.604 116.200,196.109 116.361,255.055 116.521,204.677 116.682,187.784 116.843,181.049 117.004,164.054 117.164,224.586 117.325,210.990 117.486,249.049 117.647,238.103 117.807,219.685 117.968,201.406 118.129,209.254 118.290,226.457 118.450,192.485 118.611,235.999 118.772,217.661 118.933,239.711 119.093,192.452 119.254,173.722 119.415,196.908 119.576,216.264 119.736,164.394 119.897,240.993 120.058,183.846 120.219,191.413 120.379,230.069 120.540,235.187 120.701,175.788 120.861,216.250 121.022,204.513 121.183,236.888 121.344,215.142 121.504,254.843 121.665,204.512 121.826,158.180 121.987,222.025 122.147,219.959 122.308,237.515 122.469,205.467 122.630,248.340 122.790,237.052 122.951,247.172 123.112,237.214 123.273,194.662 123.433,218.170 123.594,224.264 123.755,207.288 123.916,186.676 124.076,247.728 124.237,191.259 124.398,203.700 124.559,233.865 124.719,209.528 124.880,194.758 125.041,230.909 125.201,217.336 125.362,244.795 125.523,203.731 125.684,205.323 125.844,212.872 126.005,242.346 126.166,210.593 126.327,224.899 126.487,241.567 126.648,250.614 126.809,224.957 126.970,195.101 127.130,201.309 127.291,240.700 127.452,226.620 127.613,201.133 127.773,214.342 127.934,203.815 128.095,224.590 128.256,221.399 128.416,196.329 128.577,213.565 128.738,199.033 128.899,173.229 129.059,209.003 129.220,194.172 129.381,201.563 129.541,221.849 129.702,205.615 129.863,218.926 130.024,219.809 130.184,197.861 130.345,228.213 130.506,198.769 130.667,178.373 130.827,173.961 130.988,167.088 131.149,217.946 131.310,224.457 131.470,209.455 131.631,205.144 131.792,179.205 131.953,200.426 132.113,195.615 132.274,203.868 132.435,195.441 132.596,212.322 132.756,211.527 132.917,205.104 133.078,187.773 133.239,177.261 133.399,241.406 133.560,170.746 133.721,200.912 133.881,210.439 134.042,234.775 134.203,202.198 134.364,217.658 134.524,183.933 134.685,195.394 134.846,198.249 135.007,217.787 135.167,225.448 135.328,219.508 135.489,201.745 135.650,178.463 135.810,206.633 135.971,231.708 136.132,208.225 136.293,234.583 136.453,194.627 136.614,161.719 136.775,201.242 136.936,193.150 137.096,221.451 137.257,232.503 137.418,193.300 137.579,231.815 137.739,231.240 137.900,191.878 138.061,211.614 138.221,202.358 138.382,185.221 138.543,229.269 138.704,236.390 138.864,223.958 139.025,193.033 139.186,195.122 139.347,239.193 139.507,213.861 139.668,198.187 139.829,158.776 139.990,159.444 140.150,172.660 140.311,182.971 140.472,229.146 140.633,166.517 140.793,180.715 140.954,124.092 141.115,119.380 141.276,199.502 141.436,162.536 141.597,168.321 141.758,215.763 141.919,176.928 142.079,159.462 142.240,214.880 142.401,195.586 142.561,190.351 142.722,203.079 142.883,234.512 143.044,191.248 143.204,190.003 143.365,183.410 143.526,198.512 143.687,173.271 143.847,182.094 144.008,183.833 144.169,197.898 144.330,207.056 144.490,191.008 144.651,231.695 144.812,207.106 144.973,204.813 145.133,192.843 145.294,199.839 145.455,151.538 145.616,99.473 145.776,149.482 145.937,201.168 146.098,202.012 146.259,196.622 146.419,222.825 146.580,185.453 146.741,222.343 146.901,142.634 147.062,196.806 147.223,193.214 147.384,184.783 147.544,143.744 147.705,200.128 147.866,216.789 148.027,223.389 148.187,229.140 148.348,178.589 148.509,187.506 148.670,197.929 148.830,181.697 148.991,236.420 149.152,198.779 149.313,141.462 149.473,159.748 149.634,227.473 149.795,170.842 149.956,152.623 150.116,191.516 150.277,184.621 150.438,195.936 150.599,211.604 150.759,199.379 150.920,188.717 151.081,153.997 151.241,188.557 151.402,156.023 151.563,209.006 151.724,222.095 151.884,225.539 152.045,211.718 152.206,208.990 152.367,199.733 152.527,209.641 152.688,203.255 152.849,206.980 153.010,199.213 153.170,180.982 153.331,167.118 153.492,187.402 153.653,180.885 153.813,219.337 153.974,196.145 154.135,171.439 154.296,171.405 154.456,162.571 154.617,200.119 154.778,202.875 154.939,201.752 155.099,204.735 155.260,164.771 155.421,208.275 155.581,168.685 155.742,211.169 155.903,178.284 156.064,191.773 156.224,178.538 156.385,197.318 156.546,145.450 156.707,227.571 156.867,160.055 157.028,185.996 157.189,137.801 157.350,172.559 157.510,182.434 157.671,199.895 157.832,228.947 157.993,198.901 158.153,205.039 158.314,178.898 158.475,176.079 158.636,214.237 158.796,195.862 158.957,199.980 159.118,209.187 159.279,196.694 159.439,180.738 159.600,190.731 159.761,219.324 159.921,216.473 160.082,209.778 160.243,235.867 160.404,235.893 160.564,197.425 160.725,197.288 160.886,199.686 161.047,203.572 161.207,218.788 161.368,181.199 161.529,221.102 161.690,207.677 161.850,198.196 162.011,211.038 162.172,206.206 162.333,207.138 162.493,192.963 162.654,185.212 162.815,183.098 162.976,164.583 163.136,189.190 163.297,193.509 163.458,168.286 163.619,205.375 163.779,214.463 163.940,213.474 164.101,213.994 164.261,179.727 164.422,211.275 164.583,234.920 164.744,173.368 164.904,210.290 165.065,217.246 165.226,193.071 165.387,231.444 165.547,258.946 165.708,228.387 165.869,208.497 166.030,146.860 166.190,224.479 166.351,203.845 166.512,241.867 166.673,208.616 166.833,195.066 166.994,217.956 167.155,217.555 167.316,229.015 167.476,194.652 167.637,272.892 167.798,181.264 167.959,230.602 168.119,223.619 168.280,225.098 168.441,210.769 168.601,227.267 168.762,202.079 168.923,152.992 169.084,180.961 169.244,190.648 169.405,213.194 169.566,207.682 169.727,140.260 169.887,193.498 170.048,215.063 170.209,247.808 170.370,225.008 170.530,198.756 170.691,180.580 170.852,217.555 171.013,184.182 171.173,220.000 171.334,238.321 171.495,231.979 171.656,144.037 171.816,206.174 171.977,168.233 172.138,199.623 172.299,244.887 172.459,170.508 172.620,200.583 172.781,207.187 172.941,181.472 173.102,233.982 173.263,229.248 173.424,200.686 173.584,154.808 173.745,199.359 173.906,216.013 174.067,158.909 174.227,245.276 174.388,203.358 174.549,173.449 174.710,183.437 174.870,260.396 175.031,193.825 175.192,203.624 175.353,217.529 175.513,226.185 175.674,202.234 175.835,205.460 175.996,209.985 176.156,173.279 176.317,193.963 176.478,189.636 176.639,212.186 176.799,179.693 176.960,234.066 177.121,218.904 177.281,198.105 177.442,195.328 177.603,232.232 177.764,201.852 177.924,192.441 178.085,222.442 178.246,197.095 178.407,179.407 178.567,143.320 178.728,172.696 178.889,184.819 179.050,199.346 179.210,212.542 179.371,181.382 179.532,197.511 179.693,168.764 179.853,188.568 180.014,209.951 180.175,142.382 180.336,218.408 180.496,234.048 180.657,162.996 180.818,158.119 180.979,207.384 181.139,166.460 181.300,155.399 181.461,205.079 181.621,167.825 181.782,189.266 181.943,193.115 182.104,168.615 182.264,125.253 182.425,140.556 182.586,214.586 182.747,230.934 182.907,200.317 183.068,237.695 183.229,178.044 183.390,171.217 183.550,177.446 183.711,199.614 183.872,181.758 184.033,177.476 184.193,157.237 184.354,213.757 184.515,166.245 184.676,207.196 184.836,241.489 184.997,195.240 185.158,200.956 185.319,226.618 185.479,175.847 185.640,166.961 185.801,183.103 185.961,217.824 186.122,188.042 186.283,209.947 186.444,224.713 186.604,238.169 186.765,189.200 186.926,184.734 187.087,185.309 187.247,244.216 187.408,158.114 187.569,184.451 187.730,205.702 187.890,161.738 188.051,193.421 188.212,187.069 188.373,168.980 188.533,249.634 188.694,207.904 188.855,184.228 189.016,183.699 189.176,180.678 189.337,197.348 189.498,223.673 189.659,176.562 189.819,180.508 189.980,193.895 190.141,202.589 190.301,173.844 190.462,174.401 190.623,222.794 190.784,213.804 190.944,196.442 191.105,191.384 191.266,226.410 191.427,225.807 191.587,206.231 191.748,182.386 191.909,167.052 192.070,175.450 192.230,191.759 192.391,189.663 192.552,210.973 192.713,224.056 192.873,245.669 193.034,188.065 193.195,125.174 193.356,226.426 193.516,194.832 193.677,208.757 193.838,215.010 193.999,192.792 194.159,228.290 194.320,216.535 194.481,205.869 194.641,225.475 194.802,208.539 194.963,209.062 195.124,184.164 195.284,238.206 195.445,242.638 195.606,195.322 195.767,160.049 195.927,219.246 196.088,219.307 196.249,181.271 196.410,224.620 196.570,224.719 196.731,259.569 196.892,230.751 197.053,199.832 197.213,231.257 197.374,217.049 197.535,213.478 197.696,177.719 197.856,217.140 198.017,237.049 198.178,218.340 198.339,175.141 198.499,207.204 198.660,218.418 198.821,224.613 198.981,201.761 199.142,217.017 199.303,214.662 199.464,224.345 199.624,216.031 199.785,192.269 199.946,238.282 200.107,195.655 200.267,229.562 200.428,258.720 200.589,231.293 200.750,222.663 200.910,214.438 201.071,212.526 201.232,221.347 201.393,208.511 201.553,208.565 201.714,205.813 201.875,175.857 202.036,213.643 202.196,192.880 202.357,196.932 202.518,213.170 202.679,195.906 202.839,191.318 203.000,226.521 203.161,204.871 203.321,188.474 203.482,200.330 203.643,198.422 203.804,178.427 203.964,146.460 204.125,217.806 204.286,198.329 204.447,178.925 204.607,192.626 204.768,178.956 204.929,190.269 205.090,219.983 205.250,197.373 205.411,115.784 205.572,202.678 205.733,157.709 205.893,205.169 206.054,226.763 206.215,203.774 206.376,200.174 206.536,207.206 206.697,227.916 206.858,189.103 207.019,203.312 207.179,164.585 207.340,224.206 207.501,211.538 207.661,176.002 207.822,187.992 207.983,202.475 208.144,185.508 208.304,198.944 208.465,182.065 208.626,186.380 208.787,225.362 208.947,184.377 209.108,219.748 209.269,159.302 209.430,231.913 209.590,128.320 209.751,170.349 209.912,214.146 210.073,227.779 210.233,197.982 210.394,199.810 210.555,214.401 210.716,193.286 210.876,216.748 211.037,208.917 211.198,120.045 211.359,195.014 211.519,183.277 211.680,188.524 211.841,181.972 212.001,188.964 212.162,178.540 212.323,162.005 212.484,180.036 212.644,226.430 212.805,174.301 212.966,194.443 213.127,221.799 213.287,174.094 213.448,169.672 213.609,221.572 213.770,163.036 213.930,243.189 214.091,205.476 214.252,190.240 214.413,218.232 214.573,209.814 214.734,166.532 214.895,208.748 215.056,196.180 215.216,121.642 215.377,151.926 215.538,230.994 215.699,184.159 215.859,182.109 216.020,152.969 216.181,167.124 216.341,170.208 216.502,186.594 216.663,213.041 216.824,157.543 216.984,158.823 217.145,172.854 217.306,120.460 217.467,165.724 217.627,155.724 217.788,171.312 217.949,199.285 218.110,236.652 218.270,111.146 218.431,173.558 218.592,202.350 218.753,178.384 218.913,140.133 219.074,160.113 219.235,154.678 219.396,180.111 219.556,175.563 219.717,176.815 219.878,183.393 220.039,163.262 220.199,177.637 220.360,198.186 220.521,193.614 220.681,185.308 220.842,162.080 221.003,237.274 221.164,122.273 221.324,205.246 221.485,195.141 221.646,165.833 221.807,173.158 221.967,211.360 222.128,134.886 222.289,166.712 222.450,138.948 222.610,190.693 222.771,192.138 222.932,220.060 223.093,189.440 223.253,183.774 223.414,218.373 223.575,161.639 223.736,193.160 223.896,147.606 224.057,172.537 224.218,194.648 224.379,201.134 224.539,169.382 224.700,213.526 224.861,201.279 225.021,161.939 225.182,212.601 225.343,135.833 225.504,206.389 225.664,139.958 225.825,190.833 225.986,191.041 226.147,173.861 226.307,158.197 226.468,128.022 226.629,158.839 226.790,170.224 226.950,151.702 227.111,211.861 227.272,216.813 227.433,214.010 227.593,160.513 227.754,198.143 227.915,184.410 228.076,205.929 228.236,196.930 228.397,169.391 228.558,198.884 228.719,170.131 228.879,127.391 229.040,172.797 229.201,194.154 229.361,203.720 229.522,186.271 229.683,206.671 229.844,139.062 230.004,163.106 230.165,180.598 230.326,127.706 230.487,146.923 230.647,158.886 230.808,176.791 230.969,180.165 231.130,184.278 231.290,144.728 231.451,145.354 231.612,129.432 231.773,130.927 231.933,158.039 232.094,172.060 232.255,153.643 232.416,138.652 232.576,146.955 232.737,148.603 232.898,236.239 233.059,260.460 233.219,160.146 233.380,123.003 233.541,204.178 233.701,232.929 233.862,163.448 234.023,201.093 234.184,149.440 234.344,194.220 234.505,225.100 234.666,213.628 234.827,212.504 234.987,153.942 235.148,191.421 235.309,164.198 235.470,183.385 235.630,210.501 235.791,201.365 235.952,200.463 236.113,141.555 236.273,230.380 236.434,132.687 236.595,159.709 236.756,168.710 236.916,169.190 237.077,239.336 237.238,164.975 237.399,158.059 237.559,195.621 237.720,172.887 237.881,218.662 238.041,211.677 238.202,228.933 238.363,202.352 238.524,190.125 238.684,244.101 238.845,191.042 239.006,207.679 239.167,174.134 239.327,182.180 239.488,207.056 239.649,180.015 239.810,168.689 239.970,206.975 240.131,147.820 240.292,200.172 240.453,206.088 240.613,208.340 240.774,171.071 240.935,212.116 241.096,229.411 241.256,137.558 241.417,173.333 241.578,176.940 241.739,196.703 241.899,165.111 242.060,173.949 242.221,173.594 242.381,216.412 242.542,231.793 242.703,217.441 242.864,224.886 243.024,200.089 243.185,175.150 243.346,245.386 243.507,197.378 243.667,168.698 243.828,190.684 243.989,174.832 244.150,213.857 244.310,165.711 244.471,228.858 244.632,221.427 244.793,218.111 244.953,239.500 245.114,191.143 245.275,180.975 245.436,200.276 245.596,201.092 245.757,220.056 245.918,212.942 246.079,215.498 246.239,206.008 246.400,232.811 246.561,193.152 246.721,213.527 246.882,227.636 247.043,235.114 247.204,207.070 247.364,196.092 247.525,223.837 247.686,248.271 247.847,213.513 248.007,206.740 248.168,218.950 248.329,149.846 248.490,215.899 248.650,197.112 248.811,228.332 248.972,202.349 249.133,224.650 249.293,228.396 249.454,189.883 249.615,213.892 249.776,205.565 249.936,231.436 250.097,237.386 250.258,247.718 250.419,203.125 250.579,232.916 250.740,238.316 250.901,184.213 251.061,252.621 251.222,236.086 251.383,209.461 251.544,215.757 251.704,196.910 251.865,211.461 252.026,208.099 252.187,170.873 252.347,170.778 252.508,181.006 252.669,227.689 252.830,231.539 252.990,160.790 253.151,195.376 253.312,188.121 253.473,211.724 253.633,224.095 253.794,194.890 253.955,200.111 254.116,203.367 254.276,235.105 254.437,216.952 254.598,229.744 254.759,203.013 254.919,223.634 255.080,179.447 255.241,247.777 255.401,207.411 255.562,172.306 255.723,200.699 255.884,229.198 256.044,217.613 256.205,166.973 256.366,216.398 256.527,209.914 256.687,197.543 256.848,238.172 257.009,239.772 257.170,215.008 257.330,209.492 257.491,172.942 257.652,180.879 257.813,236.220 257.973,227.948 258.134,219.268 258.295,255.647 258.456,220.790 258.616,225.694 258.777,197.949 258.938,205.238 259.099,181.051 259.259,215.258 259.420,202.294 259.581,213.193 259.741,235.945 259.902,212.993 260.063,214.700 260.224,165.472 260.384,177.822 260.545,245.653 260.706,237.692 260.867,178.485 261.027,220.122 261.188,226.601 261.349,188.085 261.510,186.079 261.670,198.141 261.831,205.748 261.992,236.307 262.153,180.871 262.313,194.186 262.474,193.156 262.635,223.426 262.796,183.687 262.956,200.258 263.117,204.159 263.278,202.418 263.439,193.723 263.599,176.506 263.760,174.605 263.921,187.065 264.081,171.292 264.242,208.296 264.403,160.339 264.564,186.392 264.724,217.534 264.885,178.772 265.046,208.204 265.207,160.442 265.367,185.586 265.528,203.736 265.689,215.570 265.850,178.684 266.010,142.341 266.171,176.794 266.332,148.001 266.493,171.113 266.653,148.850 266.814,197.644 266.975,183.292 267.136,133.515 267.296,161.750 267.457,118.800 267.618,105.456 267.779,160.245 267.939,124.792 268.100,159.122 268.261,187.612 268.421,167.381 268.582,176.864 268.743,179.308 268.904,172.302 269.064,175.956 269.225,160.932 269.386,196.193 269.547,218.742 269.707,202.074 269.868,212.201 270.029,173.764 270.190,148.563 270.350,180.729 270.511,173.141 270.672,204.145 270.833,139.881 270.993,193.524 271.154,199.555 271.315,137.102 271.476,151.242 271.636,164.307 271.797,155.890 271.958,189.140 272.119,179.097 272.279,177.172 272.440,217.760 272.601,215.975 272.761,201.260 272.922,181.964 273.083,185.200 273.244,160.312 273.404,164.232 273.565,180.791 273.726,160.966 273.887,190.063 274.047,200.057 274.208,249.788 274.369,155.404 274.530,200.311 274.690,149.676 274.851,148.210 275.012,181.181 275.173,186.315 275.333,203.532 275.494,197.587 275.655,155.034 275.816,180.884 275.976,223.114 276.137,230.461 276.298,214.770 276.459,222.478 276.619,154.008 276.780,189.867 276.941,171.657 277.101,196.685 277.262,119.194 277.423,235.700 277.584,172.020 277.744,181.126 277.905,195.203 278.066,164.115 278.227,170.989 278.387,213.153 278.548,145.863 278.709,134.999 278.870,193.218 279.030,169.210 279.191,205.052 279.352,170.449 279.513,162.714 279.673,134.843 279.834,169.860 279.995,199.655 280.156,176.376 280.316,190.399 280.477,135.891 280.638,176.968 280.799,199.473 280.959,197.885 281.120,175.024 281.281,227.198 281.441,225.332 281.602,172.040 281.763,177.760 281.924,174.832 282.084,165.059 282.245,195.096 282.406,187.498 282.567,197.357 282.727,189.558 282.888,102.141 283.049,194.265 283.210,196.261 283.370,161.124 283.531,232.460 283.692,177.144 283.853,175.090 284.013,181.245 284.174,188.984 284.335,182.668 284.496,155.903 284.656,198.800 284.817,130.675 284.978,193.099 285.139,156.110 285.299,99.343 285.460,149.596 285.621,188.805 285.781,177.005 285.942,179.594 286.103,187.541 286.264,191.869 286.424,199.319 286.585,188.712 286.746,200.384 286.907,212.391 287.067,218.675 287.228,176.449 287.389,203.320 287.550,174.866 287.710,220.697 287.871,230.359 288.032,204.707 288.193,194.335 288.353,139.433 288.514,195.424 288.675,164.075 288.836,137.633 288.996,237.445 289.157,177.029 289.318,196.458 289.479,173.804 289.639,184.270 289.800,209.823 289.961,213.869 290.121,101.145 290.282,141.249 290.443,183.005 290.604,172.529 290.764,148.571 290.925,177.332 291.086,142.571 291.247,184.987 291.407,164.473 291.568,193.846 291.729,193.317 291.890,212.222 292.050,168.249 292.211,218.941 292.372,173.605 292.533,198.676 292.693,150.283 292.854,150.610 293.015,205.761 293.176,199.953 293.336,204.571 293.497,188.628 293.658,181.245 293.819,221.151 293.979,242.953 294.140,206.746 294.301,219.702 294.461,189.811 294.622,207.683 294.783,193.292 294.944,169.880 295.104,222.643 295.265,211.236 295.426,205.382 295.587,199.452 295.747,206.464 295.908,172.909 296.069,205.570 296.230,213.914 296.390,160.143 296.551,201.654 296.712,230.469 296.873,174.448 297.033,213.656 297.194,196.473 297.355,250.849 297.516,211.188 297.676,191.877 297.837,128.395 297.998,196.282 298.159,180.412 298.319,145.425 298.480,210.430 298.641,191.840 298.801,212.780 298.962,178.336 299.123,216.793 299.284,176.319 299.444,262.081 299.605,190.720 299.766,226.207 299.927,213.711 300.087,210.069 300.248,191.466 300.409,199.395 300.570,196.296 300.730,140.921 300.891,188.560 301.052,189.273 301.213,219.708 301.373,216.042 301.534,226.312 301.695,145.809 301.856,243.132 302.016,215.100 302.177,240.395 302.338,194.199 302.499,166.410 302.659,163.092 302.820,232.137 302.981,273.625 303.141,187.913 303.302,221.413 303.463,212.829 303.624,155.980 303.784,201.952 303.945,190.411 304.106,202.865 304.267,176.920 304.427,224.646 304.588,166.437 304.749,181.613 304.910,236.120 305.070,182.410 305.231,222.688 305.392,195.887 305.553,202.992 305.713,171.187 305.874,188.463 306.035,151.588 306.196,240.794 306.356,210.829 306.517,189.214 306.678,197.293 306.839,200.907 306.999,205.021 307.160,227.597 307.321,193.435 307.481,194.962 307.642,228.974 307.803,236.717 307.964,191.186 308.124,214.974 308.285,183.542 308.446,188.484 308.607,196.123 308.767,236.179 308.928,204.402 309.089,216.164 309.250,200.669 309.410,197.774 309.571,201.283 309.732,185.556 309.893,199.470 310.053,177.725 310.214,242.093 310.375,190.940 310.536,208.825 310.696,219.188 310.857,182.459 311.018,227.101 311.179,193.010 311.339,189.442 311.500,185.760 311.661,198.739 311.821,205.056 311.982,219.019 312.143,223.569 312.304,191.192 312.464,167.539 312.625,223.332 312.786,220.567 312.947,185.942 313.107,213.027 313.268,209.962 313.429,225.122 313.590,232.924 313.750,176.981 313.911,115.592 314.072,159.799 314.233,144.065 314.393,136.815 314.554,214.368 314.715,223.239 314.876,189.243 315.036,234.255 315.197,158.552 315.358,128.378 315.519,201.457 315.679,230.532 315.840,188.006 316.001,169.729 316.161,172.104 316.322,199.123 316.483,222.889 316.644,198.625 316.804,188.303 316.965,159.264 317.126,156.346 317.287,203.566 317.447,200.760 317.608,190.653 317.769,209.005 317.930,145.384 318.090,151.458 318.251,137.812 318.412,211.910 318.573,232.886 318.733,181.025 318.894,198.161 319.055,171.971 319.216,183.532 319.376,178.756 319.537,198.789 319.698,200.260 319.859,211.384 320.019,184.243 320.180,222.960 320.341,192.756 320.501,198.656 320.662,193.627 320.823,214.145 320.984,142.200 321.144,176.786 321.305,203.835 321.466,149.132 321.627,181.275 321.787,191.844 321.948,167.687 322.109,213.024 322.270,142.835 322.430,226.095 322.591,213.222 322.752,217.011 322.913,122.512 323.073,175.216 323.234,239.816 323.395,223.572 323.556,207.774 323.716,210.403 323.877,187.230 324.038,216.310 324.199,199.488 324.359,231.888 324.520,191.731 324.681,230.743 324.841,175.394 325.002,210.630 325.163,195.805 325.324,159.870 325.484,170.229 325.645,226.501 325.806,152.338 325.967,173.905 326.127,212.309 326.288,209.432 326.449,200.267 326.610,163.901 326.770,150.868 326.931,198.614 327.092,152.107 327.253,145.149 327.413,138.631 327.574,111.548 327.735,110.001 327.896,146.400 328.056,128.122 328.217,173.211 328.378,157.049 328.539,181.227 328.699,169.054 328.860,145.990 329.021,146.609 329.181,101.938 329.342,151.420 329.503,155.223 329.664,175.039 329.824,182.896 329.985,220.346 330.146,139.846 330.307,135.527 330.467,166.230 330.628,87.955 330.789,140.529 330.950,136.352 331.110,153.469 331.271,123.035 331.432,125.761 331.593,130.008 331.753,128.430 331.914,129.950 332.075,199.529 332.236,86.701 332.396,171.738 332.557,104.686 332.718,187.314 332.879,134.275 333.039,123.440 333.200,99.152 333.361,167.785 333.521,121.287 333.682,128.812 333.843,103.879 334.004,109.735 334.164,79.041 334.325,144.057 334.486,108.028 334.647,183.716 334.807,171.071 334.968,166.405 335.129,124.819 335.290,167.822 335.450,133.995 335.611,120.163 335.772,168.226 335.933,158.647 336.093,133.471 336.254,141.170 336.415,120.162 336.576,187.030 336.736,144.629 336.897,154.156 337.058,100.146 337.219,122.399 337.379,137.822 337.540,108.195 337.701,159.701 337.861,186.532 338.022,111.860 338.183,155.089 338.344,121.287 338.504,139.883 338.665,154.427 338.826,190.238 338.987,181.945 339.147,168.114 339.308,97.218 339.469,149.268 339.630,167.596 339.790,169.365 339.951,198.911 340.112,175.012 340.273,125.538 340.433,165.880 340.594,190.057 340.755,98.101 340.916,163.292 341.076,154.636 341.237,124.752 341.398,167.880 341.559,199.715 341.719,155.913 341.880,134.039 342.041,122.651 342.201,50.223 342.362,137.772 342.523,125.102 342.684,115.540 342.844,124.965 343.005,176.509 343.166,183.892 343.327,128.309 343.487,128.958 343.648,154.025 343.809,130.763 343.970,132.905 344.130,201.466 344.291,174.608 344.452,192.506 344.613,163.527 344.773,173.958 344.934,134.773 345.095,156.300 345.256,171.262 345.416,191.062 345.577,239.466 345.738,157.270 345.899,179.348 346.059,149.099 346.220,187.400 346.381,163.424 346.541,191.372 346.702,143.818 346.863,172.673 347.024,135.534 347.184,186.873 347.345,181.252 347.506,163.112 347.667,147.715 347.827,197.622 347.988,222.636 348.149,152.684 348.310,204.533 348.470,152.041 348.631,187.287 348.792,191.426 348.953,173.263 349.113,193.323 349.274,210.560 349.435,207.214 349.596,138.146 349.756,179.830 349.917,117.175 350.078,201.977 350.239,217.925 350.399,148.981 350.560,199.624 350.721,232.965 350.881,172.990 351.042,175.658 351.203,225.506 351.364,164.540 351.524,186.974 351.685,218.398 351.846,185.566 352.007,221.146 352.167,185.413 352.328,197.708 352.489,144.483 352.650,177.926 352.810,195.702 352.971,179.421 353.132,210.669 353.293,228.430 353.453,171.038 353.614,190.882 353.775,195.200 353.936,206.278 354.096,205.576 354.257,168.177 354.418,154.849 354.579,230.532 354.739,167.858 354.900,195.597 355.061,196.938 355.221,180.309 355.382,219.678 355.543,178.139 355.704,161.769 355.864,199.679 356.025,184.123 356.186,182.418 356.347,162.780 356.507,179.341 356.668,181.791 356.829,204.777 356.990,227.031 357.150,219.324 357.311,178.703 357.472,220.129 357.633,186.775 357.793,219.235 357.954,189.813 358.115,217.188 358.276,224.537 358.436,168.322 358.597,208.403 358.758,192.686 358.919,205.100 359.079,214.344 359.240,157.181 359.401,187.070 359.561,203.501 359.722,230.870 359.883,196.859 360.044,203.205 360.204,212.640 360.365,211.722 360.526,196.461 360.687,183.418 360.847,176.047 361.008,182.450 361.169,195.373 361.330,172.825 361.490,183.120 361.651,218.031 361.812,166.763 361.973,227.556 362.133,222.806 362.294,210.776 362.455,207.216 362.616,172.378 362.776,214.307 362.937,203.581 363.098,262.093 363.259,212.408 363.419,192.929 363.580,239.733 363.741,231.973 363.901,180.421 364.062,171.583 364.223,118.489 364.384,203.139 364.544,216.514 364.705,226.091 364.866,192.600 365.027,213.447 365.187,198.756 365.348,216.235 365.509,230.123 365.670,207.054 365.830,171.145 365.991,248.508 366.152,194.788 366.313,265.128 366.473,205.763 366.634,179.108 366.795,224.473 366.956,209.012 367.116,208.063 367.277,200.053 367.438,185.803 367.599,240.854 367.759,255.438 367.920,233.954 368.081,223.782 368.241,220.746 368.402,221.239 368.563,225.085 368.724,185.551 368.884,246.073 369.045,239.170 369.206,135.532 369.367,251.032 369.527,216.785 369.688,250.986 369.849,203.383 370.010,216.128 370.170,180.907 370.331,217.710 370.492,202.238 370.653,211.327 370.813,106.911 370.974,236.339 371.135,170.144 371.296,202.360 371.456,236.387 371.617,216.064 371.778,190.940 371.939,188.641 372.099,183.583 372.260,209.140 372.421,217.960 372.581,214.153 372.742,193.645 372.903,184.882 373.064,201.522 373.224,234.103 373.385,193.120 373.546,182.228 373.707,232.382 373.867,222.693 374.028,207.908 374.189,167.328 374.350,228.710 374.510,225.071 374.671,193.288 374.832,226.760 374.993,219.139 375.153,165.512 375.314,232.281 375.475,250.265 375.636,207.912 375.796,180.275 375.957,210.823 376.118,220.558 376.279,187.174 376.439,212.099 376.600,164.133 376.761,212.330 376.921,166.810 377.082,198.797 377.243,177.394 377.404,214.817 377.564,188.004 377.725,214.338 377.886,226.230 378.047,235.953 378.207,204.923 378.368,187.680 378.529,208.179 378.690,236.881 378.850,180.688 379.011,246.001 379.172,189.775 379.333,224.642 379.493,203.548 379.654,194.556 379.815,189.432 379.976,199.597 380.136,228.442 380.297,153.010 380.458,161.371 380.619,187.731 380.779,184.979 380.940,200.605 381.101,233.190 381.261,186.778 381.422,217.318 381.583,153.435 381.744,218.226 381.904,187.560 382.065,211.299 382.226,203.148 382.387,176.729 382.547,190.323 382.708,208.573 382.869,190.536 383.030,209.061 383.190,197.769 383.351,192.347 383.512,228.812 383.673,193.870 383.833,188.635 383.994,193.077 384.155,217.220 384.316,195.358 384.476,217.457 384.637,167.938 384.798,209.216 384.959,197.566 385.119,212.554 385.280,238.103 385.441,136.211 385.601,161.763 385.762,225.206 385.923,212.511 386.084,205.730 386.244,176.859 386.405,178.871 386.566,180.796 386.727,198.140 386.887,221.009 387.048,147.684 387.209,215.084 387.370,168.699 387.530,166.333 387.691,247.773 387.852,184.028 388.013,241.625 388.173,205.279 388.334,180.326 388.495,197.397 388.656,202.534 388.816,184.557 388.977,174.665 389.138,191.233 389.299,182.395 389.459,180.281 389.620,206.539 389.781,138.496 389.941,176.468 390.102,174.395 390.263,219.782 390.424,173.335 390.584,157.549 390.745,231.892 390.906,152.846 391.067,147.614 391.227,129.885 391.388,182.399 391.549,178.002 391.710,178.540 391.870,100.755 392.031,151.889 392.192,153.567 392.353,205.378 392.513,215.695 392.674,196.590 392.835,102.530 392.996,135.409 393.156,136.114 393.317,173.633 393.478,180.482 393.639,140.419 393.799,89.161 393.960,192.324 394.121,193.636 394.281,185.234 394.442,163.385 394.603,147.756 394.764,156.043 394.924,208.208 395.085,201.248 395.246,137.946 395.407,204.738 395.567,205.536 395.728,157.822 395.889,150.702 396.050,206.101 396.210,180.254 396.371,210.740 396.532,205.201 396.693,144.680 396.853,185.856 397.014,97.537 397.175,89.132 397.336,214.574 397.496,188.429 397.657,180.775 397.818,191.699 397.979,154.431 398.139,132.778 398.300,145.939 398.461,174.510 398.621,153.722 398.782,172.130 398.943,133.991 399.104,185.389 399.264,163.626 399.425,139.221 399.586,145.387 399.747,151.443 399.907,171.585 400.068,145.871 400.229,176.366 400.390,124.576 400.550,176.716 400.711,152.350 400.872,122.046 401.033,174.156 401.193,189.897 401.354,189.270 401.515,142.849 401.676,197.238 401.836,143.116 401.997,154.834 402.158,132.224 402.319,172.161 402.479,97.151 402.640,145.035 402.801,118.533 402.961,168.580 403.122,174.428 403.283,178.181 403.444,128.915 403.604,189.170 403.765,149.700 403.926,161.496 404.087,206.671 404.247,183.682 404.408,169.521 404.569,203.604 404.730,165.787 404.890,152.561 405.051,112.209 405.212,157.431 405.373,143.861 405.533,176.924 405.694,103.758 405.855,174.024 406.016,227.021 406.176,217.720 406.337,177.035 406.498,111.164 406.659,189.530 406.819,168.920 406.980,190.989 407.141,213.632 407.301,159.796 407.462,180.613 407.623,218.458 407.784,149.170 407.944,167.904 408.105,206.282 408.266,188.041 408.427,196.486 408.587,182.060 408.748,161.840 408.909,155.683 409.070,147.491 409.230,184.101 409.391,181.430 409.552,211.397 409.713,153.985 409.873,186.473 410.034,184.365 410.195,172.216 410.356,125.877 410.516,184.432 410.677,184.755 410.838,213.777 410.999,169.815 411.159,177.882 411.320,158.680 411.481,208.941 411.641,205.269 411.802,168.747 411.963,229.940 412.124,155.746 412.284,174.249 412.445,150.930 412.606,187.345 412.767,107.944 412.927,189.737 413.088,174.363 413.249,201.728 413.410,173.562 413.570,168.459 413.731,175.574 413.892,227.158 414.053,207.603 414.213,227.059 414.374,194.646 414.535,240.431 414.696,222.619 414.856,225.128 415.017,176.982 415.178,208.589 415.339,194.610 415.499,198.192 415.660,190.938 415.821,247.539 415.981,156.988 416.142,178.897 416.303,198.806 416.464,201.228 416.624,153.826 416.785,222.779 416.946,153.071 417.107,160.569 417.267,138.620 417.428,148.733 417.589,173.954 417.750,221.228 417.910,130.826 418.071,224.123 418.232,220.609 418.393,202.447 418.553,201.758 418.714,188.733 418.875,179.678 419.036,204.141 419.196,121.740 419.357,171.183 419.518,158.389 419.679,171.270 419.839,188.540 420.000,110.203 420.161,161.916 420.321,176.640 420.482,208.864 420.643,191.313 420.804,178.074 420.964,206.143 421.125,183.518 421.286,165.726 421.447,159.853 421.607,197.846 421.768,150.386 421.929,198.741 422.090,159.260 422.250,173.431 422.411,150.825 422.572,165.395 422.733,163.714 422.893,175.416 423.054,172.444 423.215,217.857 423.376,216.232 423.536,191.302 423.697,163.927 423.858,183.052 424.019,218.220 424.179,139.769 424.340,208.737 424.501,184.454 424.661,139.800 424.822,138.681 424.983,178.678 425.144,153.183 425.304,187.404 425.465,162.070 425.626,191.129 425.787,150.006 425.947,215.401 426.108,138.698 426.269,192.445 426.430,185.963 426.590,136.119 426.751,160.132 426.912,159.790 427.073,193.441 427.233,211.520 427.394,182.729 427.555,95.515 427.716,110.943 427.876,174.491 428.037,130.065 428.198,185.217 428.359,183.814 428.519,118.158 428.680,108.171 428.841,177.768 429.001,178.779 429.162,185.363 429.323,160.812 429.484,129.357 429.644,121.826 429.805,173.843 429.966,206.032 430.127,156.376 430.287,229.530 430.448,113.069 430.609,118.939 430.770,177.877 430.930,150.350 431.091,167.178 431.252,174.624 431.413,117.912 431.573,172.298 431.734,189.869 431.895,179.190 432.056,171.733 432.216,164.651 432.377,161.381 432.538,141.053 432.699,136.414 432.859,157.805 433.020,235.656 433.181,136.079 433.341,134.667 433.502,188.795 433.663,157.332 433.824,197.427 433.984,179.226 434.145,175.163 434.306,135.118 434.467,197.590 434.627,184.519 434.788,186.359 434.949,137.266 435.110,166.648 435.270,152.056 435.431,189.968 435.592,224.461 435.753,130.838 435.913,178.897 436.074,171.687 436.235,193.769 436.396,219.779 436.556,231.786 436.717,194.320 436.878,175.944 437.039,173.345 437.199,159.329 437.360,204.808 437.521,202.392 437.681,177.668 437.842,145.359 438.003,205.449 438.164,180.868 438.324,216.075 438.485,211.099 438.646,143.349 438.807,193.043 438.967,201.281 439.128,153.299 439.289,229.590 439.450,173.544 439.610,206.853 439.771,202.105 439.932,182.288 440.093,182.005 440.253,191.331 440.414,147.039 440.575,164.594 440.736,204.778 440.896,203.994 441.057,170.115 441.218,121.054 441.379,186.983 441.539,187.381 441.700,229.348 441.861,180.318 442.021,149.729 442.182,195.388 442.343,126.482 442.504,172.571 442.664,135.449 442.825,169.829 442.986,158.741 443.147,164.158 443.307,147.170 443.468,172.407 443.629,202.013 443.790,161.626 443.950,147.412 444.111,164.174 444.272,203.645 444.433,144.607 444.593,202.525 444.754,219.450 444.915,158.327 445.076,197.258 445.236,162.843 445.397,156.874 445.558,178.561 445.719,240.049 445.879,183.439 446.040,148.188 446.201,232.692 446.361,166.201 446.522,220.299 446.683,195.033 446.844,107.338 447.004,220.922 447.165,208.183 447.326,193.951 447.487,180.364 447.647,156.853 447.808,176.610 447.969,242.354 448.130,166.903 448.290,195.337 448.451,138.706 448.612,162.988 448.773,181.464 448.933,232.968 449.094,212.163 449.255,224.330 449.416,167.694 449.576,200.632 449.737,145.653 449.898,216.537 450.059,186.535 450.219,180.704 450.380,200.459 450.541,179.203 450.701,218.629 450.862,190.536 451.023,190.623 451.184,176.287 451.344,213.383 451.505,209.772 451.666,191.634 451.827,180.767 451.987,203.866 452.148,175.773 452.309,222.810 452.470,181.614 452.630,186.577 452.791,210.262 452.952,145.952 453.113,227.071 453.273,167.411 453.434,151.883 453.595,122.109 453.756,167.873 453.916,103.208 454.077,142.313 454.238,153.132 454.399,134.070 454.559,142.257 454.720,182.604 454.881,181.073 455.041,152.559 455.202,168.998 455.363,142.264 455.524,176.544 455.684,159.379 455.845,173.707 456.006,129.255 456.167,241.016 456.327,205.722 456.488,147.291 456.649,193.247 456.810,189.678 456.970,165.722 457.131,178.494 457.292,103.974 457.453,144.267 457.613,80.206 457.774,157.840 457.935,180.084 458.096,169.594 458.256,147.941 458.417,122.686 458.578,193.536 458.739,168.841 458.899,207.524 459.060,181.908 459.221,97.485 459.381,126.668 459.542,185.302 459.703,176.436 459.864,205.066 460.024,148.288 460.185,204.036 460.346,175.072 460.507,108.879 460.667,192.791 460.828,188.819 460.989,147.832 461.150,166.629 461.310,169.231 461.471,166.197 461.632,229.011 461.793,174.949 461.953,167.179 462.114,130.077 462.275,121.930 462.436,195.968 462.596,188.991 462.757,179.165 462.918,161.599 463.079,105.763 463.239,125.874 463.400,121.916 463.561,145.960 463.721,115.145 463.882,151.227 464.043,111.578 464.204,168.668 464.364,160.339 464.525,172.893 464.686,156.218 464.847,126.335 465.007,153.644 465.168,166.118 465.329,120.280 465.490,169.590 465.650,86.747 465.811,148.938 465.972,194.493 466.133,117.263 466.293,135.077 466.454,122.279 466.615,157.220 466.776,106.876 466.936,149.413 467.097,144.997 467.258,91.971 467.419,183.294 467.579,206.724 467.740,169.009 467.901,171.243 468.061,138.093 468.222,132.856 468.383,159.938 468.544,130.776 468.704,136.114 468.865,162.867 469.026,108.022 469.187,133.641 469.347,136.552 469.508,160.764 469.669,164.260 469.830,197.759 469.990,181.708 470.151,154.549 470.312,210.660 470.473,158.345 470.633,130.014 470.794,192.425 470.955,134.210 471.116,149.372 471.276,134.766 471.437,145.755 471.598,157.280 471.759,135.793 471.919,165.220 472.080,177.765 472.241,162.259 472.401,165.687 472.562,172.904 472.723,207.940 472.884,131.770 473.044,175.913 473.205,151.891 473.366,121.544 473.527,236.906 473.687,170.208 473.848,183.235 474.009,167.609 474.170,166.155 474.330,151.858 474.491,190.692 " />
        <g
           id="g29" />
      </g>
      <g
         id="ID000004">
        <g
           id="g32"
           transform="translate(289.3,404.819)">
          <g
             id="g34">
            <text
               style="font-size:12.5px;text-anchor:middle;fill:#000000;font-family:Helvetica"
               id="text36"
               font-size="10pt"
               y="0"
               x="0">time [us]</text>
          </g>
        </g>
      </g>
      <g
         id="ID000005">
        <g
           id="g39"
           transform="translate(41.8,204.151)">
          <g
             id="g41"
             transform="matrix(0,-1,1,0,0,0)">
            <text
               style="font-size:12.5px;text-anchor:middle;fill:#000000;font-family:Helvetica"
               id="text43"
               font-size="10pt"
               y="0"
               x="0">EVM [dB]</text>
          </g>
        </g>
      </g>
      <g
         id="ID000006" />
      <g
         id="ID000007" />
      <g
         id="ID000008" />
    </g>
    <g
       id="g48">
      <polyline
         style="fill:none;stroke:#000000;stroke-width:0.5pt;stroke-dasharray:none"
         id="polyline50"
         points="145.133,373.800 145.133,369.460 " />
      <polyline
         style="fill:none;stroke:#000000;stroke-width:0.5pt;stroke-dasharray:none"
         id="polyline52"
         points="217.467,373.800 217.467,369.460 " />
      <polyline
         style="fill:none;stroke:#000000;stroke-width:0.5pt;stroke-dasharray:none"
         id="polyline54"
         points="289.800,373.800 289.800,369.460 " />
      <polyline
         style="fill:none;stroke:#000000;stroke-width:0.5pt;stroke-dasharray:none"
         id="polyline56"
         points="362.133,373.800 362.133,369.460 " />
      <polyline
         style="fill:none;stroke:#000000;stroke-width:0.5pt;stroke-dasharray:none"
         id="polyline58"
         points="434.467,373.800 434.467,369.460 " />
      <polyline
         style="fill:none;stroke:#000000;stroke-width:0.5pt;stroke-dasharray:none"
         id="polyline60"
         points="72.800,373.800 506.800,373.800 " />
      <polyline
         style="fill:none;stroke:#000000;stroke-width:0.5pt;stroke-dasharray:none"
         id="polyline62"
         points="145.133,31.500 145.133,35.840 " />
      <polyline
         style="fill:none;stroke:#000000;stroke-width:0.5pt;stroke-dasharray:none"
         id="polyline64"
         points="217.467,31.500 217.467,35.840 " />
      <polyline
         style="fill:none;stroke:#000000;stroke-width:0.5pt;stroke-dasharray:none"
         id="polyline66"
         points="289.800,31.500 289.800,35.840 " />
      <polyline
         style="fill:none;stroke:#000000;stroke-width:0.5pt;stroke-dasharray:none"
         id="polyline68"
         points="362.133,31.500 362.133,35.840 " />
      <polyline
         style="fill:none;stroke:#000000;stroke-width:0.5pt;stroke-dasharray:none"
         id="polyline70"
         points="434.467,31.500 434.467,35.840 " />
      <polyline
         style="fill:none;stroke:#000000;stroke-width:0.5pt;stroke-dasharray:none"
         id="polyline72"
         points="72.800,31.500 506.800,31.500 " />
      <g
         id="g74"
         transform="translate(72.8,392.446)">
        <g
           id="g76">
          <text
             style="font-size:12.5px;text-anchor:middle;fill:#000000;font-family:Helvetica"
             id="text78"
             font-size="10pt"
             y="0"
             x="0">0</text>
        </g>
      </g>
      <g
         id="g80"
         transform="translate(145.133,392.446)">
        <g
           id="g82">
          <text
             style="font-size:12.5px;text-anchor:middle;fill:#000000;font-family:Helvetica"
             id="text84"
             font-size="10pt"
             y="0"
             x="0">1</text>
        </g>
      </g>
      <g
         id="g86"
         transform="translate(217.467,392.446)">
        <g
           id="g88">
          <text
             style="font-size:12.5px;text-anchor:middle;fill:#000000;font-family:Helvetica"
             id="text90"
             font-size="10pt"
             y="0"
             x="0">2</text>
        </g>
      </g>
      <g
         id="g92"
         transform="translate(289.8,392.446)">
        <g
           id="g94">
          <text
             style="font-size:12.5px;text-anchor:middle;fill:#000000;font-family:Helvetica"
             id="text96"
             font-size="10pt"
             y="0"
             x="0">3</text>
        </g>
      </g>
      <g
         id="g98"
         transform="translate(362.133,392.446)">
        <g
           id="g100">
          <text
             style="font-size:12.5px;text-anchor:middle;fill:#000000;font-family:Helvetica"
             id="text102"
             font-size="10pt"
             y="0"
             x="0">4</text>
        </g>
      </g>
      <g
         id="g104"
         transform="translate(434.467,392.446)">
        <g
           id="g106">
          <text
             style="font-size:12.5px;text-anchor:middle;fill:#000000;font-family:Helvetica"
             id="text108"
             font-size="10pt"
             y="0"
             x="0">5</text>
        </g>
      </g>
      <g
         id="g110"
         transform="translate(506.8,392.446)">
        <g
           id="g112">
          <text
             style="font-size:12.5px;text-anchor:middle;fill:#000000;font-family:Helvetica"
             id="text114"
             font-size="10pt"
             y="0"
             x="0">6</text>
        </g>
      </g>
      <polyline
         style="fill:none;stroke:#000000;stroke-width:0.5pt;stroke-dasharray:none"
         id="polyline116"
         points="72.800,335.767 77.140,335.767 " />
      <polyline
         style="fill:none;stroke:#000000;stroke-width:0.5pt;stroke-dasharray:none"
         id="polyline118"
         points="72.800,297.733 77.140,297.733 " />
      <polyline
         style="fill:none;stroke:#000000;stroke-width:0.5pt;stroke-dasharray:none"
         id="polyline120"
         points="72.800,259.700 77.140,259.700 " />
      <polyline
         style="fill:none;stroke:#000000;stroke-width:0.5pt;stroke-dasharray:none"
         id="polyline122"
         points="72.800,221.667 77.140,221.667 " />
      <polyline
         style="fill:none;stroke:#000000;stroke-width:0.5pt;stroke-dasharray:none"
         id="polyline124"
         points="72.800,183.633 77.140,183.633 " />
      <polyline
         style="fill:none;stroke:#000000;stroke-width:0.5pt;stroke-dasharray:none"
         id="polyline126"
         points="72.800,145.600 77.140,145.600 " />
      <polyline
         style="fill:none;stroke:#000000;stroke-width:0.5pt;stroke-dasharray:none"
         id="polyline128"
         points="72.800,107.567 77.140,107.567 " />
      <polyline
         style="fill:none;stroke:#000000;stroke-width:0.5pt;stroke-dasharray:none"
         id="polyline130"
         points="72.800,69.533 77.140,69.533 " />
      <polyline
         style="fill:none;stroke:#000000;stroke-width:0.5pt;stroke-dasharray:none"
         id="polyline132"
         points="72.800,373.800 72.800,31.500 " />
      <polyline
         style="fill:none;stroke:#000000;stroke-width:0.5pt;stroke-dasharray:none"
         id="polyline134"
         points="506.800,335.767 502.460,335.767 " />
      <polyline
         style="fill:none;stroke:#000000;stroke-width:0.5pt;stroke-dasharray:none"
         id="polyline136"
         points="506.800,297.733 502.460,297.733 " />
      <polyline
         style="fill:none;stroke:#000000;stroke-width:0.5pt;stroke-dasharray:none"
         id="polyline138"
         points="506.800,259.700 502.460,259.700 " />
      <polyline
         style="fill:none;stroke:#000000;stroke-width:0.5pt;stroke-dasharray:none"
         id="polyline140"
         points="506.800,221.667 502.460,221.667 " />
      <polyline
         style="fill:none;stroke:#000000;stroke-width:0.5pt;stroke-dasharray:none"
         id="polyline142"
         points="506.800,183.633 502.460,183.633 " />
      <polyline
         style="fill:none;stroke:#000000;stroke-width:0.5pt;stroke-dasharray:none"
         id="polyline144"
         points="506.800,145.600 502.460,145.600 " />
      <polyline
         style="fill:none;stroke:#000000;stroke-width:0.5pt;stroke-dasharray:none"
         id="polyline146"
         points="506.800,107.567 502.460,107.567 " />
      <polyline
         style="fill:none;stroke:#000000;stroke-width:0.5pt;stroke-dasharray:none"
         id="polyline148"
         points="506.800,69.533 502.460,69.533 " />
      <polyline
         style="fill:none;stroke:#000000;stroke-width:0.5pt;stroke-dasharray:none"
         id="polyline150"
         points="506.800,373.800 506.800,31.500 " />
      <g
         id="g152"
         transform="translate(64.12,378.3)">
        <g
           id="g154">
          <text
             style="font-size:12.5px;text-anchor:end;fill:#000000;font-family:Helvetica"
             id="text156"
             font-size="10pt"
             y="0"
             x="0">-35</text>
        </g>
      </g>
      <g
         id="g158"
         transform="translate(64.12,340.267)">
        <g
           id="g160">
          <text
             style="font-size:12.5px;text-anchor:end;fill:#000000;font-family:Helvetica"
             id="text162"
             font-size="10pt"
             y="0"
             x="0">-34</text>
        </g>
      </g>
      <g
         id="g164"
         transform="translate(64.12,302.233)">
        <g
           id="g166">
          <text
             style="font-size:12.5px;text-anchor:end;fill:#000000;font-family:Helvetica"
             id="text168"
             font-size="10pt"
             y="0"
             x="0">-33</text>
        </g>
      </g>
      <g
         id="g170"
         transform="translate(64.12,264.2)">
        <g
           id="g172">
          <text
             style="font-size:12.5px;text-anchor:end;fill:#000000;font-family:Helvetica"
             id="text174"
             font-size="10pt"
             y="0"
             x="0">-32</text>
        </g>
      </g>
      <g
         id="g176"
         transform="translate(64.12,226.167)">
        <g
           id="g178">
          <text
             style="font-size:12.5px;text-anchor:end;fill:#000000;font-family:Helvetica"
             id="text180"
             font-size="10pt"
             y="0"
             x="0">-31</text>
        </g>
      </g>
      <g
         id="g182"
         transform="translate(64.12,188.133)">
        <g
           id="g184">
          <text
             style="font-size:12.5px;text-anchor:end;fill:#000000;font-family:Helvetica"
             id="text186"
             font-size="10pt"
             y="0"
             x="0">-30</text>
        </g>
      </g>
      <g
         id="g188"
         transform="translate(64.12,150.1)">
        <g
           id="g190">
          <text
             style="font-size:12.5px;text-anchor:end;fill:#000000;font-family:Helvetica"
             id="text192"
             font-size="10pt"
             y="0"
             x="0">-29</text>
        </g>
      </g>
      <g
         id="g194"
         transform="translate(64.12,112.067)">
        <g
           id="g196">
          <text
             style="font-size:12.5px;text-anchor:end;fill:#000000;font-family:Helvetica"
             id="text198"
             font-size="10pt"
             y="0"
             x="0">-28</text>
        </g>
      </g>
      <g
         id="g200"
         transform="translate(64.12,74.033)">
        <g
           id="g202">
          <text
             style="font-size:12.5px;text-anchor:end;fill:#000000;font-family:Helvetica"
             id="text204"
             font-size="10pt"
             y="0"
             x="0">-27</text>
        </g>
      </g>
      <g
         id="g206"
         transform="translate(64.12,36)">
        <g
           id="g208">
          <text
             style="font-size:12.5px;text-anchor:end;fill:#000000;font-family:Helvetica"
             id="text210"
             font-size="10pt"
             y="0"
             x="0">-26</text>
        </g>
      </g>
      <polyline
         style="fill:none;stroke:#000000;stroke-width:0.5pt;stroke-dasharray:none"
         id="polyline212"
         points="72.800,373.800 72.800,370.377 " />
      <polyline
         style="fill:none;stroke:#000000;stroke-width:0.5pt;stroke-dasharray:none"
         id="polyline214"
         points="72.800,373.800 72.800,373.800 " />
    </g>
  </g>
  <polygon
     points="423.75,86.375 502.25,86.375 502.25,38.75 423.75,38.75 "
     id="polygon220"
     style="fill:#ffffff;fill-opacity:1;stroke:none"
     transform="translate(-37.721142,-25.87909)" />
  <polygon
     points="423.75,38.75 502.25,38.75 502.25,38.75 423.75,38.75 "
     id="polygon222"
     style="fill:#ffffff;fill-opacity:1;stroke:none"
     transform="translate(-37.721142,-25.87909)" />
  <polygon
     points="423.75,86.375 423.75,86.375 423.75,38.75 423.75,38.75 "
     id="polygon224"
     style="fill:#ffffff;fill-opacity:1;stroke:none"
     transform="translate(-37.721142,-25.87909)" />
  <g
     id="g226"
     transform="translate(-46.844617,-28.867814)">
    <g
       id="ID000011">
      <g
         transform="translate(473.567,56.93)"
         id="g229">
        <g
           id="g231">
          <text
             x="0"
             y="0"
             font-size="10pt"
             id="text233"
             style="font-size:12.5px;text-anchor:start;fill:#000000;font-family:Helvetica">
            <tspan
               id="tspan235">EVM</tspan>
            <tspan
               dy="5"
               font-size="7pt"
               id="tspan237"
               style="font-size:8.75px">R</tspan>
            <tspan
               dy="-5"
               font-size="10pt"
               id="tspan239"
               style="font-size:12.5px" />
          </text>
        </g>
      </g>
    </g>
    <g
       id="ID000012"
       clip-path="url(#ID000010)">
      <polyline
         points="431.250,51.750 468.750,51.750 "
         id="polyline242"
         style="fill:none;stroke:#0000ff;stroke-width:0.5pt;stroke-dasharray:none" />
      <g
         id="g244" />
    </g>
    <g
       id="ID000013"
       clip-path="url(#ID000010)">
      <g
         id="g247" />
    </g>
    <g
       id="ID000014">
      <g
         transform="translate(473.567,79.222)"
         id="g250">
        <g
           id="g252">
          <text
             x="0"
             y="0"
             font-size="10pt"
             id="text254"
             style="font-size:12.5px;text-anchor:start;fill:#000000;font-family:Helvetica">
            <tspan
               id="tspan256">EVM</tspan>
            <tspan
               dy="5"
               font-size="7pt"
               id="tspan258"
               style="font-size:8.75px">D</tspan>
            <tspan
               dy="-5"
               font-size="10pt"
               id="tspan260"
               style="font-size:12.5px" />
          </text>
        </g>
      </g>
    </g>
    <g
       id="ID000015"
       clip-path="url(#ID000010)">
      <polyline
         points="431.250,73.375 468.750,73.375 "
         id="polyline263"
         style="fill:none;stroke:#007f00;stroke-width:0.5pt;stroke-dasharray:none" />
      <g
         id="g265" />
    </g>
    <g
       id="ID000016"
       clip-path="url(#ID000010)">
      <g
         id="g268" />
    </g>
    <g
       id="ID000017" />
    <g
       id="ID000018" />
    <g
       id="ID000019" />
  </g>
  <g
     id="g273"
     transform="matrix(1.1092232,0,0,1,-92.617274,-25.87909)">
    <polyline
       points="423.750,86.375 502.250,86.375 "
       id="polyline275"
       style="fill:none;stroke:#000000;stroke-width:0.47474513pt;stroke-dasharray:none" />
    <polyline
       points="423.750,38.750 502.250,38.750 "
       id="polyline277"
       style="fill:none;stroke:#000000;stroke-width:0.47474513pt;stroke-dasharray:none" />
    <polyline
       points="423.750,86.375 423.750,38.750 "
       id="polyline279"
       style="fill:none;stroke:#000000;stroke-width:0.47474513pt;stroke-dasharray:none" />
    <polyline
       points="502.250,86.375 502.250,38.750 "
       id="polyline281"
       style="fill:none;stroke:#000000;stroke-width:0.47474513pt;stroke-dasharray:none" />
    <polyline
       points="423.750,86.375 423.750,85.899 "
       id="polyline283"
       style="fill:none;stroke:#000000;stroke-width:0.47474513pt;stroke-dasharray:none" />
    <polyline
       points="423.750,86.375 423.750,86.375 "
       id="polyline285"
       style="fill:none;stroke:#000000;stroke-width:0.47474513pt;stroke-dasharray:none" />
  </g>
</svg>
