<?xml version="1.0" encoding="UTF-8" standalone="no"?>
<svg
   xmlns:dc="http://purl.org/dc/elements/1.1/"
   xmlns:cc="http://creativecommons.org/ns#"
   xmlns:rdf="http://www.w3.org/1999/02/22-rdf-syntax-ns#"
   xmlns:svg="http://www.w3.org/2000/svg"
   xmlns="http://www.w3.org/2000/svg"
   xmlns:sodipodi="http://sodipodi.sourceforge.net/DTD/sodipodi-0.dtd"
   xmlns:inkscape="http://www.inkscape.org/namespaces/inkscape"
   preserveAspectRatio="xMinYMin meet"
   width="100%"
   height="100%"
   viewBox="0 0 473.49133 365.496"
   version="1.1"
   id="svg2"
   inkscape:version="0.48.4 r9939"
   sodipodi:docname="rdrdbvec.svg">
  <metadata
     id="metadata241">
    <rdf:RDF>
      <cc:Work
         rdf:about="">
        <dc:format>image/svg+xml</dc:format>
        <dc:type
           rdf:resource="http://purl.org/dc/dcmitype/StillImage" />
        <dc:title></dc:title>
      </cc:Work>
    </rdf:RDF>
  </metadata>
  <defs
     id="defs239" />
  <sodipodi:namedview
     pagecolor="#ffffff"
     bordercolor="#666666"
     borderopacity="1"
     objecttolerance="10"
     gridtolerance="10"
     guidetolerance="10"
     inkscape:pageopacity="0"
     inkscape:pageshadow="2"
     inkscape:window-width="1584"
     inkscape:window-height="1250"
     id="namedview237"
     showgrid="false"
     fit-margin-top="0"
     fit-margin-left="0"
     fit-margin-right="0"
     fit-margin-bottom="0"
     inkscape:zoom="1.5893067"
     inkscape:cx="162.28282"
     inkscape:cy="275.07357"
     inkscape:window-x="0"
     inkscape:window-y="25"
     inkscape:window-maximized="0"
     inkscape:current-layer="svg2" />
  <desc
     id="desc4">Matlab Figure Converted by PLOT2SVG written by Juerg Schwizer</desc>
  <g
     id="ID000000"
     transform="translate(-46.60418,-27.1375)">
    <clipPath
       id="ID000001">
      <rect
         id="rect11"
         height="342.29999"
         width="434"
         y="31.5"
         x="72.800003" />
    </clipPath>
    <polygon
       style="fill:#ffffff;fill-opacity:1;stroke:none"
       id="polygon13"
       points="72.8,373.8 506.8,373.8 506.8,31.5 72.8,31.5 " />
    <polygon
       style="fill:#ffffff;fill-opacity:1;stroke:none"
       id="polygon15"
       points="72.8,31.5 506.8,31.5 506.8,31.5 72.8,31.5 " />
    <polygon
       style="fill:#ffffff;fill-opacity:1;stroke:none"
       id="polygon17"
       points="72.8,373.8 72.8,373.8 72.8,31.5 72.8,31.5 " />
    <g
       id="g19">
      <g
         clip-path="url(#ID000001)"
         id="ID000002">
        <polyline
           style="fill:none;stroke:#0000ff;stroke-width:0.5pt;stroke-dasharray:none"
           id="polyline22"
           points="72.896,320.128 72.993,318.850 73.089,317.445 73.186,315.916 73.282,314.267 73.379,312.500 73.475,310.621 73.572,308.632 73.668,306.538 73.764,304.343 73.861,302.051 73.957,299.667 74.054,297.195 74.150,294.640 74.247,292.006 74.343,289.297 74.440,286.517 74.536,283.672 74.632,280.764 74.729,277.799 74.825,274.780 74.922,271.711 75.018,268.595 75.115,265.438 75.211,262.241 75.308,259.009 75.404,255.745 75.500,252.452 75.597,249.132 75.693,245.789 75.790,242.426 75.886,239.045 75.983,235.648 76.079,232.238 76.176,228.817 76.272,225.388 76.368,221.951 76.465,218.509 76.561,215.065 76.658,211.618 76.754,208.171 76.851,204.726 76.947,201.283 77.044,197.845 77.140,194.411 77.236,190.983 77.333,187.563 77.429,184.151 77.526,180.748 77.622,177.355 77.719,173.972 77.815,170.601 77.912,167.241 78.008,163.894 78.104,160.560 78.201,157.239 78.297,153.933 78.394,150.640 78.490,147.363 78.587,144.100 78.683,140.853 78.780,137.621 78.876,134.405 78.972,131.206 79.069,128.022 79.165,124.855 79.262,121.704 79.358,118.570 79.455,115.452 79.551,112.352 79.648,109.268 79.744,106.201 79.840,103.151 79.937,100.118 80.033,97.101 80.130,94.102 80.226,91.120 80.323,88.154 80.419,85.205 80.516,82.273 80.612,79.357 80.708,76.459 80.805,73.576 80.901,70.710 80.998,67.861 81.094,65.028 81.191,323.756 81.287,322.734 81.384,321.578 81.480,320.290 81.576,318.873 81.673,317.330 81.769,315.665 81.866,313.881 81.962,311.982 82.059,309.972 82.155,307.856 82.252,305.637 82.348,303.320 82.444,300.910 82.541,298.411 82.637,295.828 82.734,293.164 82.830,290.425 82.927,287.615 83.023,284.739 83.120,281.800 83.216,278.803 83.312,275.751 83.409,272.650 83.505,269.502 83.602,266.312 83.698,263.083 83.795,259.818 83.891,256.521 83.988,253.195 84.084,249.844 84.180,246.469 84.277,243.074 84.373,239.661 84.470,236.233 84.566,232.792 84.663,229.341 84.759,225.881 84.856,222.415 84.952,218.944 85.048,215.470 85.145,211.995 85.241,208.521 85.338,205.048 85.434,201.578 85.531,198.113 85.627,194.653 85.724,191.199 85.820,187.754 85.916,184.317 86.013,180.889 86.109,177.472 86.206,174.066 86.302,170.671 86.399,167.289 86.495,163.919 86.592,160.563 86.688,157.221 86.784,153.894 86.881,150.581 86.977,147.283 87.074,144.000 87.170,140.733 87.267,137.483 87.363,134.248 87.460,131.030 87.556,127.828 87.652,124.643 87.749,121.474 87.845,118.323 87.942,115.189 88.038,112.071 88.135,108.971 88.231,105.888 88.328,102.822 88.424,99.774 88.520,96.742 88.617,93.728 88.713,90.731 88.810,87.751 88.906,84.788 89.003,81.841 89.099,78.912 89.196,76.000 89.292,73.104 89.388,70.225 89.485,326.825 89.581,326.077 89.678,325.188 89.774,324.161 89.871,322.997 89.967,321.699 90.064,320.270 90.160,318.713 90.256,317.032 90.353,315.230 90.449,313.312 90.546,311.282 90.642,309.143 90.739,306.901 90.835,304.559 90.932,302.123 91.028,299.597 91.124,296.985 91.221,294.292 91.317,291.524 91.414,288.683 91.510,285.776 91.607,282.805 91.703,279.776 91.800,276.693 91.896,273.559 91.992,270.379 92.089,267.156 92.185,263.894 92.282,260.597 92.378,257.268 92.475,253.910 92.571,250.526 92.668,247.119 92.764,243.692 92.860,240.248 92.957,236.789 93.053,233.317 93.150,229.836 93.246,226.346 93.343,222.850 93.439,219.350 93.536,215.847 93.632,212.344 93.728,208.842 93.825,205.341 93.921,201.844 94.018,198.352 94.114,194.866 94.211,191.387 94.307,187.917 94.404,184.455 94.500,181.003 94.596,177.562 94.693,174.132 94.789,170.715 94.886,167.310 94.982,163.918 95.079,160.540 95.175,157.177 95.272,153.828 95.368,150.495 95.464,147.177 95.561,143.874 95.657,140.588 95.754,137.318 95.850,134.065 95.947,130.828 96.043,127.608 96.140,124.405 96.236,121.220 96.332,118.051 96.429,114.900 96.525,111.767 96.622,108.650 96.718,105.551 96.815,102.470 96.911,99.406 97.008,96.359 97.104,93.330 97.200,90.318 97.297,87.324 97.393,84.347 97.490,81.387 97.586,78.444 97.683,75.518 97.779,329.290 97.876,328.832 97.972,328.227 98.068,327.479 98.165,326.587 98.261,325.554 98.358,324.383 98.454,323.075 98.551,321.634 98.647,320.064 98.744,318.367 98.840,316.548 98.936,314.611 99.033,312.559 99.129,310.398 99.226,308.132 99.322,305.766 99.419,303.304 99.515,300.750 99.612,298.111 99.708,295.389 99.804,292.591 99.901,289.720 99.997,286.781 100.094,283.780 100.190,280.719 100.287,277.603 100.383,274.437 100.480,271.225 100.576,267.969 100.672,264.675 100.769,261.345 100.865,257.983 100.962,254.593 101.058,251.177 101.155,247.738 101.251,244.280 101.348,240.804 101.444,237.315 101.540,233.812 101.637,230.300 101.733,226.781 101.830,223.255 101.926,219.726 102.023,216.195 102.119,212.664 102.216,209.133 102.312,205.606 102.408,202.082 102.505,198.564 102.601,195.052 102.698,191.547 102.794,188.051 102.891,184.565 102.987,181.089 103.084,177.624 103.180,174.171 103.276,170.731 103.373,167.303 103.469,163.890 103.566,160.491 103.662,157.106 103.759,153.736 103.855,150.382 103.952,147.044 104.048,143.722 104.144,140.417 104.241,137.128 104.337,133.856 104.434,130.601 104.530,127.363 104.627,124.143 104.723,120.940 104.820,117.755 104.916,114.587 105.012,111.437 105.109,108.304 105.205,105.190 105.302,102.093 105.398,99.013 105.495,95.952 105.591,92.908 105.688,89.882 105.784,86.873 105.880,83.882 105.977,80.908 106.073,331.114 106.170,330.958 106.266,330.652 106.363,330.197 106.459,329.595 106.556,328.845 106.652,327.951 106.748,326.913 106.845,325.734 106.941,324.417 107.038,322.964 107.134,321.380 107.231,319.668 107.327,317.832 107.424,315.876 107.520,313.804 107.616,311.621 107.713,309.331 107.809,306.940 107.906,304.452 108.002,301.871 108.099,299.203 108.195,296.453 108.292,293.625 108.388,290.724 108.484,287.755 108.581,284.721 108.677,281.629 108.774,278.481 108.870,275.283 108.967,272.038 109.063,268.750 109.160,265.423 109.256,262.061 109.352,258.667 109.449,255.245 109.545,251.797 109.642,248.326 109.738,244.837 109.835,241.330 109.931,237.809 110.028,234.277 110.124,230.735 110.220,227.185 110.317,223.631 110.413,220.072 110.510,216.513 110.606,212.953 110.703,209.395 110.799,205.841 110.896,202.290 110.992,198.746 111.088,195.208 111.185,191.678 111.281,188.157 111.378,184.647 111.474,181.147 111.571,177.658 111.667,174.182 111.764,170.719 111.860,167.269 111.956,163.834 112.053,160.413 112.149,157.008 112.246,153.617 112.342,150.243 112.439,146.885 112.535,143.544 112.632,140.219 112.728,136.911 112.824,133.621 112.921,130.348 113.017,127.092 113.114,123.855 113.210,120.635 113.307,117.432 113.403,114.248 113.500,111.082 113.596,107.933 113.692,104.803 113.789,101.691 113.885,98.596 113.982,95.520 114.078,92.461 114.175,89.421 114.271,86.398 114.368,332.267 114.464,332.420 114.560,332.423 114.657,332.275 114.753,331.976 114.850,331.526 114.946,330.925 115.043,330.175 115.139,329.278 115.236,328.235 115.332,327.049 115.428,325.722 115.525,324.259 115.621,322.661 115.718,320.934 115.814,319.080 115.911,317.105 116.007,315.013 116.104,312.808 116.200,310.495 116.296,308.079 116.393,305.565 116.489,302.958 116.586,300.262 116.682,297.483 116.779,294.625 116.875,291.694 116.972,288.694 117.068,285.630 117.164,282.505 117.261,279.326 117.357,276.096 117.454,272.818 117.550,269.498 117.647,266.139 117.743,262.745 117.840,259.319 117.936,255.864 118.032,252.384 118.129,248.882 118.225,245.361 118.322,241.824 118.418,238.272 118.515,234.709 118.611,231.137 118.708,227.558 118.804,223.975 118.900,220.388 118.997,216.800 119.093,213.212 119.190,209.627 119.286,206.045 119.383,202.468 119.479,198.898 119.576,195.334 119.672,191.780 119.768,188.234 119.865,184.699 119.961,181.175 120.058,177.664 120.154,174.164 120.251,170.679 120.347,167.207 120.444,163.750 120.540,160.308 120.636,156.882 120.733,153.471 120.829,150.077 120.926,146.699 121.022,143.338 121.119,139.995 121.215,136.668 121.312,133.360 121.408,130.069 121.504,126.795 121.601,123.540 121.697,120.303 121.794,117.084 121.890,113.884 121.987,110.701 122.083,107.537 122.180,104.391 122.276,101.264 122.372,98.154 122.469,95.063 122.565,91.990 122.662,332.725 122.758,333.193 122.855,333.511 122.951,333.678 123.048,333.692 123.144,333.553 123.240,333.261 123.337,332.815 123.433,332.216 123.530,331.466 123.626,330.567 123.723,329.519 123.819,328.326 123.916,326.991 124.012,325.516 124.108,323.905 124.205,322.163 124.301,320.292 124.398,318.299 124.494,316.186 124.591,313.959 124.687,311.623 124.784,309.183 124.880,306.643 124.976,304.009 125.073,301.285 125.169,298.477 125.266,295.590 125.362,292.629 125.459,289.598 125.555,286.503 125.652,283.347 125.748,280.136 125.844,276.874 125.941,273.565 126.037,270.212 126.134,266.821 126.230,263.395 126.327,259.936 126.423,256.450 126.520,252.939 126.616,249.405 126.712,245.853 126.809,242.285 126.905,238.703 127.002,235.110 127.098,231.508 127.195,227.900 127.291,224.287 127.388,220.672 127.484,217.056 127.580,213.440 127.677,209.828 127.773,206.219 127.870,202.616 127.966,199.020 128.063,195.431 128.159,191.851 128.256,188.281 128.352,184.722 128.448,181.175 128.545,177.640 128.641,174.118 128.738,170.610 128.834,167.116 128.931,163.638 129.027,160.175 129.124,156.728 129.220,153.297 129.316,149.882 129.413,146.485 129.509,143.105 129.606,139.743 129.702,136.398 129.799,133.071 129.895,129.762 129.992,126.472 130.088,123.200 130.184,119.946 130.281,116.710 130.377,113.493 130.474,110.295 130.570,107.115 130.667,103.954 130.763,100.811 130.860,97.687 130.956,332.476 131.052,333.258 131.149,333.894 131.245,334.379 131.342,334.713 131.438,334.894 131.535,334.920 131.631,334.790 131.728,334.504 131.824,334.063 131.920,333.467 132.017,332.717 132.113,331.815 132.210,330.763 132.306,329.564 132.403,328.219 132.499,326.734 132.596,325.110 132.692,323.353 132.788,321.466 132.885,319.454 132.981,317.321 133.078,315.073 133.174,312.714 133.271,310.249 133.367,307.683 133.464,305.022 133.560,302.271 133.656,299.435 133.753,296.519 133.849,293.528 133.946,290.467 134.042,287.340 134.139,284.153 134.235,280.911 134.332,277.617 134.428,274.276 134.524,270.891 134.621,267.468 134.717,264.010 134.814,260.520 134.910,257.002 135.007,253.459 135.103,249.894 135.200,246.311 135.296,242.712 135.392,239.100 135.489,235.477 135.585,231.846 135.682,228.208 135.778,224.567 135.875,220.923 135.971,217.279 136.068,213.637 136.164,209.997 136.260,206.362 136.357,202.733 136.453,199.111 136.550,195.497 136.646,191.892 136.743,188.298 136.839,184.715 136.936,181.144 137.032,177.586 137.128,174.042 137.225,170.512 137.321,166.997 137.418,163.497 137.514,160.013 137.611,156.545 137.707,153.094 137.804,149.660 137.900,146.244 137.996,142.845 138.093,139.463 138.189,136.100 138.286,132.756 138.382,129.429 138.479,126.121 138.575,122.832 138.672,119.562 138.768,116.310 138.864,113.077 138.961,109.863 139.057,106.667 139.154,103.491 139.250,331.516 139.347,332.608 139.443,333.558 139.540,334.362 139.636,335.017 139.732,335.521 139.829,335.871 139.925,336.066 140.022,336.103 140.118,335.983 140.215,335.705 140.311,335.269 140.408,334.675 140.504,333.926 140.600,333.022 140.697,331.966 140.793,330.760 140.890,329.407 140.986,327.911 141.083,326.275 141.179,324.503 141.276,322.600 141.372,320.569 141.468,318.417 141.565,316.147 141.661,313.765 141.758,311.276 141.854,308.685 141.951,305.998 142.047,303.219 142.144,300.355 142.240,297.410 142.336,294.389 142.433,291.297 142.529,288.140 142.626,284.923 142.722,281.649 142.819,278.323 142.915,274.950 143.012,271.534 143.108,268.079 143.204,264.589 143.301,261.068 143.397,257.518 143.494,253.944 143.590,250.349 143.687,246.735 143.783,243.105 143.880,239.463 143.976,235.810 144.072,232.150 144.169,228.483 144.265,224.813 144.362,221.142 144.458,217.470 144.555,213.801 144.651,210.134 144.748,206.473 144.844,202.818 144.940,199.170 145.037,195.531 145.133,191.902 145.230,188.284 145.326,184.677 145.423,181.083 145.519,177.503 145.616,173.936 145.712,170.384 145.808,166.847 145.905,163.326 146.001,159.822 146.098,156.334 146.194,152.863 146.291,149.409 146.387,145.974 146.484,142.556 146.580,139.156 146.676,135.775 146.773,132.413 146.869,129.069 146.966,125.744 147.062,122.438 147.159,119.151 147.255,115.883 147.352,112.634 147.448,109.404 147.544,329.851 147.641,331.244 147.737,332.502 147.834,333.619 147.930,334.592 148.027,335.419 148.123,336.094 148.220,336.616 148.316,336.983 148.412,337.191 148.509,337.241 148.605,337.131 148.702,336.860 148.798,336.430 148.895,335.839 148.991,335.091 149.088,334.185 149.184,333.126 149.280,331.914 149.377,330.553 149.473,329.046 149.570,327.398 149.666,325.611 149.763,323.692 149.859,321.643 149.956,319.471 150.052,317.180 150.148,314.776 150.245,312.263 150.341,309.647 150.438,306.933 150.534,304.128 150.631,301.235 150.727,298.261 150.824,295.211 150.920,292.090 151.016,288.902 151.113,285.653 151.209,282.348 151.306,278.991 151.402,275.587 151.499,272.140 151.595,268.653 151.692,265.132 151.788,261.579 151.884,257.998 151.981,254.393 152.077,250.767 152.174,247.123 152.270,243.463 152.367,239.791 152.463,236.109 152.560,232.419 152.656,228.724 152.752,225.026 152.849,221.327 152.945,217.628 153.042,213.931 153.138,210.238 153.235,206.551 153.331,202.870 153.428,199.197 153.524,195.534 153.620,191.881 153.717,188.238 153.813,184.609 153.910,180.992 154.006,177.388 154.103,173.800 154.199,170.226 154.296,166.668 154.392,163.126 154.488,159.601 154.585,156.093 154.681,152.602 154.778,149.130 154.874,145.675 154.971,142.239 155.067,138.821 155.164,135.422 155.260,132.042 155.356,128.681 155.453,125.339 155.549,122.016 155.646,118.713 155.742,115.429 155.839,327.499 155.935,329.180 156.032,330.733 156.128,332.154 156.224,333.438 156.321,334.580 156.417,335.578 156.514,336.426 156.610,337.122 156.707,337.663 156.803,338.046 156.900,338.269 156.996,338.331 157.092,338.231 157.189,337.969 157.285,337.544 157.382,336.957 157.478,336.210 157.575,335.303 157.671,334.240 157.768,333.022 157.864,331.653 157.960,330.137 158.057,328.476 158.153,326.676 158.250,324.740 158.346,322.674 158.443,320.483 158.539,318.171 158.636,315.744 158.732,313.208 158.828,310.567 158.925,307.828 159.021,304.995 159.118,302.075 159.214,299.072 159.311,295.993 159.407,292.842 159.504,289.624 159.600,286.345 159.696,283.009 159.793,279.621 159.889,276.185 159.986,272.707 160.082,269.189 160.179,265.636 160.275,262.053 160.372,258.441 160.468,254.805 160.564,251.149 160.661,247.474 160.757,243.785 160.854,240.083 160.950,236.372 161.047,232.654 161.143,228.931 161.240,225.204 161.336,221.477 161.432,217.751 161.529,214.028 161.625,210.309 161.722,206.596 161.818,202.890 161.915,199.192 162.011,195.504 162.108,191.827 162.204,188.161 162.300,184.508 162.397,180.868 162.493,177.243 162.590,173.632 162.686,170.037 162.783,166.458 162.879,162.896 162.976,159.351 163.072,155.823 163.168,152.313 163.265,148.821 163.361,145.347 163.458,141.892 163.554,138.457 163.651,135.040 163.747,131.642 163.844,128.264 163.940,124.906 164.036,121.566 164.133,324.484 164.229,326.436 164.326,328.270 164.422,329.980 164.519,331.563 164.615,333.012 164.712,334.323 164.808,335.491 164.904,336.512 165.001,337.383 165.097,338.100 165.194,338.660 165.290,339.059 165.387,339.298 165.483,339.372 165.580,339.283 165.676,339.029 165.772,338.610 165.869,338.027 165.965,337.281 166.062,336.373 166.158,335.307 166.255,334.084 166.351,332.707 166.448,331.181 166.544,329.509 166.640,327.695 166.737,325.744 166.833,323.661 166.930,321.450 167.026,319.118 167.123,316.669 167.219,314.109 167.316,311.444 167.412,308.679 167.508,305.820 167.605,302.872 167.701,299.841 167.798,296.733 167.894,293.552 167.991,290.305 168.087,286.995 168.184,283.629 168.280,280.210 168.376,276.744 168.473,273.234 168.569,269.686 168.666,266.102 168.762,262.488 168.859,258.846 168.955,255.180 169.052,251.493 169.148,247.789 169.244,244.070 169.341,240.339 169.437,236.599 169.534,232.852 169.630,229.101 169.727,225.347 169.823,221.593 169.920,217.840 170.016,214.090 170.112,210.346 170.209,206.607 170.305,202.876 170.402,199.154 170.498,195.441 170.595,191.740 170.691,188.051 170.788,184.376 170.884,180.713 170.980,177.066 171.077,173.434 171.173,169.818 171.270,166.218 171.366,162.635 171.463,159.070 171.559,155.522 171.656,151.993 171.752,148.482 171.848,144.990 171.945,141.517 172.041,138.063 172.138,134.629 172.234,131.214 172.331,127.819 172.427,320.840 172.524,323.043 172.620,325.139 172.716,327.122 172.813,328.987 172.909,330.728 173.006,332.339 173.102,333.817 173.199,335.155 173.295,336.349 173.392,337.394 173.488,338.288 173.584,339.025 173.681,339.604 173.777,340.021 173.874,340.274 173.970,340.362 174.067,340.284 174.163,340.038 174.260,339.625 174.356,339.046 174.452,338.302 174.549,337.394 174.645,336.325 174.742,335.097 174.838,333.713 174.935,332.178 175.031,330.494 175.128,328.667 175.224,326.700 175.320,324.600 175.417,322.371 175.513,320.019 175.610,317.548 175.706,314.965 175.803,312.276 175.899,309.486 175.996,306.600 176.092,303.625 176.188,300.567 176.285,297.430 176.381,294.220 176.478,290.943 176.574,287.604 176.671,284.207 176.767,280.758 176.864,277.261 176.960,273.721 177.056,270.142 177.153,266.528 177.249,262.883 177.346,259.211 177.442,255.515 177.539,251.799 177.635,248.065 177.732,244.317 177.828,240.558 177.924,236.789 178.021,233.014 178.117,229.235 178.214,225.454 178.310,221.673 178.407,217.893 178.503,214.118 178.600,210.347 178.696,206.583 178.792,202.828 178.889,199.081 178.985,195.345 179.082,191.621 179.178,187.909 179.275,184.210 179.371,180.526 179.468,176.857 179.564,173.203 179.660,169.566 179.757,165.946 179.853,162.343 179.950,158.758 180.046,155.191 180.143,151.643 180.239,148.113 180.336,144.603 180.432,141.112 180.528,137.641 180.625,134.189 180.721,316.607 180.818,319.039 180.914,321.376 181.011,323.611 181.107,325.739 181.204,327.754 181.300,329.649 181.396,331.420 181.493,333.061 181.589,334.567 181.686,335.932 181.782,337.152 181.879,338.222 181.975,339.138 182.072,339.896 182.168,340.494 182.264,340.929 182.361,341.197 182.457,341.299 182.554,341.231 182.650,340.994 182.747,340.588 182.843,340.014 182.940,339.272 183.036,338.364 183.132,337.292 183.229,336.059 183.325,334.669 183.422,333.124 183.518,331.430 183.615,329.589 183.711,327.608 183.808,325.491 183.904,323.244 184.000,320.872 184.097,318.380 184.193,315.775 184.290,313.061 184.386,310.246 184.483,307.335 184.579,304.334 184.676,301.247 184.772,298.083 184.868,294.844 184.965,291.538 185.061,288.169 185.158,284.743 185.254,281.264 185.351,277.737 185.447,274.167 185.544,270.557 185.640,266.913 185.736,263.238 185.833,259.536 185.929,255.811 186.026,252.065 186.122,248.302 186.219,244.525 186.315,240.737 186.412,236.941 186.508,233.138 186.604,229.332 186.701,225.524 186.797,221.716 186.894,217.911 186.990,214.109 187.087,210.313 187.183,206.525 187.280,202.745 187.376,198.974 187.472,195.215 187.569,191.467 187.665,187.732 187.762,184.012 187.858,180.306 187.955,176.615 188.051,172.940 188.148,169.283 188.244,165.642 188.340,162.019 188.437,158.415 188.533,154.829 188.630,151.262 188.726,147.714 188.823,144.186 188.919,140.677 189.016,311.829 189.112,314.468 189.208,317.022 189.305,319.487 189.401,321.856 189.498,324.124 189.594,326.283 189.691,328.329 189.787,330.256 189.884,332.057 189.980,333.727 190.076,335.260 190.173,336.652 190.269,337.898 190.366,338.992 190.462,339.931 190.559,340.711 190.655,341.329 190.752,341.781 190.848,342.065 190.944,342.180 191.041,342.123 191.137,341.896 191.234,341.497 191.330,340.927 191.427,340.188 191.523,339.280 191.620,338.206 191.716,336.969 191.812,335.572 191.909,334.019 192.005,332.314 192.102,330.461 192.198,328.466 192.295,326.333 192.391,324.067 192.488,321.676 192.584,319.163 192.680,316.536 192.777,313.799 192.873,310.959 192.970,308.023 193.066,304.995 193.163,301.882 193.259,298.689 193.356,295.423 193.452,292.088 193.548,288.690 193.645,285.234 193.741,281.726 193.838,278.169 193.934,274.569 194.031,270.930 194.127,267.256 194.224,263.552 194.320,259.820 194.416,256.066 194.513,252.291 194.609,248.499 194.706,244.694 194.802,240.878 194.899,237.054 194.995,233.224 195.092,229.391 195.188,225.556 195.284,221.722 195.381,217.891 195.477,214.064 195.574,210.244 195.670,206.430 195.767,202.626 195.863,198.832 195.960,195.049 196.056,191.279 196.152,187.522 196.249,183.779 196.345,180.052 196.442,176.340 196.538,172.645 196.635,168.967 196.731,165.306 196.828,161.664 196.924,158.040 197.020,154.435 197.117,150.850 197.213,147.284 197.310,306.555 197.406,309.376 197.503,312.124 197.599,314.795 197.696,317.381 197.792,319.878 197.888,322.279 197.985,324.578 198.081,326.770 198.178,328.847 198.274,330.803 198.371,332.634 198.467,334.334 198.564,335.895 198.660,337.314 198.756,338.586 198.853,339.705 198.949,340.667 199.046,341.468 199.142,342.105 199.239,342.575 199.335,342.875 199.432,343.003 199.528,342.959 199.624,342.741 199.721,342.349 199.817,341.785 199.914,341.048 200.010,340.140 200.107,339.065 200.203,337.824 200.300,336.421 200.396,334.860 200.492,333.145 200.589,331.280 200.685,329.270 200.782,327.122 200.878,324.839 200.975,322.428 201.071,319.895 201.168,317.246 201.264,314.487 201.360,311.623 201.457,308.662 201.553,305.608 201.650,302.468 201.746,299.248 201.843,295.954 201.939,292.591 202.036,289.165 202.132,285.680 202.228,282.142 202.325,278.557 202.421,274.927 202.518,271.259 202.614,267.556 202.711,263.823 202.807,260.062 202.904,256.279 203.000,252.475 203.096,248.656 203.193,244.823 203.289,240.979 203.386,237.127 203.482,233.270 203.579,229.411 203.675,225.550 203.772,221.690 203.868,217.834 203.964,213.982 204.061,210.137 204.157,206.300 204.254,202.472 204.350,198.654 204.447,194.849 204.543,191.056 204.640,187.277 204.736,183.513 204.832,179.764 204.929,176.031 205.025,172.316 205.122,168.618 205.218,164.937 205.315,161.276 205.411,157.633 205.508,154.010 205.604,300.833 205.700,303.812 205.797,306.731 205.893,309.583 205.990,312.362 206.086,315.064 206.183,317.683 206.279,320.211 206.376,322.644 206.472,324.974 206.568,327.197 206.665,329.304 206.761,331.292 206.858,333.152 206.954,334.880 207.051,336.470 207.147,337.916 207.244,339.213 207.340,340.356 207.436,341.342 207.533,342.164 207.629,342.821 207.726,343.309 207.822,343.625 207.919,343.767 208.015,343.735 208.112,343.527 208.208,343.143 208.304,342.584 208.401,341.850 208.497,340.944 208.594,339.867 208.690,338.623 208.787,337.214 208.883,335.645 208.980,333.920 209.076,332.044 209.172,330.021 209.269,327.857 209.365,325.557 209.462,323.128 209.558,320.576 209.655,317.905 209.751,315.123 209.848,312.236 209.944,309.250 210.040,306.171 210.137,303.006 210.233,299.759 210.330,296.437 210.426,293.047 210.523,289.592 210.619,286.079 210.716,282.513 210.812,278.898 210.908,275.240 211.005,271.543 211.101,267.812 211.198,264.050 211.294,260.261 211.391,256.449 211.487,252.618 211.584,248.770 211.680,244.910 211.776,241.039 211.873,237.160 211.969,233.277 212.066,229.391 212.162,225.504 212.259,221.620 212.355,217.738 212.452,213.862 212.548,209.993 212.644,206.132 212.741,202.280 212.837,198.440 212.934,194.612 213.030,190.797 213.127,186.997 213.223,183.211 213.320,179.442 213.416,175.689 213.512,171.953 213.609,168.235 213.705,164.536 213.802,160.855 213.898,294.715 213.995,297.829 214.091,300.893 214.188,303.902 214.284,306.850 214.380,309.732 214.477,312.542 214.573,315.275 214.670,317.925 214.766,320.484 214.863,322.948 214.959,325.310 215.056,327.563 215.152,329.701 215.248,331.718 215.345,333.608 215.441,335.365 215.538,336.983 215.634,338.456 215.731,339.778 215.827,340.946 215.924,341.954 216.020,342.798 216.116,343.475 216.213,343.981 216.309,344.313 216.406,344.470 216.502,344.450 216.599,344.252 216.695,343.876 216.792,343.322 216.888,342.592 216.984,341.687 217.081,340.610 217.177,339.363 217.274,337.949 217.370,336.373 217.467,334.639 217.563,332.751 217.660,330.715 217.756,328.536 217.852,326.221 217.949,323.774 218.045,321.201 218.142,318.510 218.238,315.707 218.335,312.797 218.431,309.787 218.528,306.683 218.624,303.492 218.720,300.219 218.817,296.871 218.913,293.453 219.010,289.971 219.106,286.430 219.203,282.836 219.299,279.193 219.396,275.507 219.492,271.782 219.588,268.022 219.685,264.232 219.781,260.415 219.878,256.575 219.974,252.717 220.071,248.842 220.167,244.954 220.264,241.057 220.360,237.152 220.456,233.243 220.553,229.331 220.649,225.419 220.746,221.509 220.842,217.604 220.939,213.703 221.035,209.810 221.132,205.926 221.228,202.052 221.324,198.189 221.421,194.339 221.517,190.503 221.614,186.681 221.710,182.874 221.807,179.084 221.903,175.311 222.000,171.556 222.096,167.818 222.192,288.251 222.289,291.477 222.385,294.663 222.482,297.804 222.578,300.896 222.675,303.934 222.771,306.911 222.868,309.823 222.964,312.663 223.060,315.426 223.157,318.106 223.253,320.696 223.350,323.191 223.446,325.583 223.543,327.867 223.639,330.035 223.736,332.082 223.832,334.001 223.928,335.786 224.025,337.432 224.121,338.931 224.218,340.280 224.314,341.472 224.411,342.503 224.507,343.368 224.604,344.065 224.700,344.589 224.796,344.938 224.893,345.109 224.989,345.101 225.086,344.914 225.182,344.546 225.279,343.999 225.375,343.273 225.472,342.369 225.568,341.292 225.664,340.042 225.761,338.623 225.857,337.041 225.954,335.298 226.050,333.399 226.147,331.351 226.243,329.158 226.340,326.827 226.436,324.362 226.532,321.771 226.629,319.060 226.725,316.235 226.822,313.303 226.918,310.270 227.015,307.142 227.111,303.926 227.208,300.628 227.304,297.253 227.400,293.809 227.497,290.300 227.593,286.732 227.690,283.110 227.786,279.440 227.883,275.726 227.979,271.973 228.076,268.186 228.172,264.368 228.268,260.524 228.365,256.657 228.461,252.771 228.558,248.870 228.654,244.956 228.751,241.032 228.847,237.102 228.944,233.167 229.040,229.230 229.136,225.293 229.233,221.359 229.329,217.429 229.426,213.505 229.522,209.589 229.619,205.682 229.715,201.786 229.812,197.901 229.908,194.029 230.004,190.171 230.101,186.328 230.197,182.502 230.294,178.691 230.390,174.898 230.487,281.487 230.583,284.804 230.680,288.090 230.776,291.341 230.872,294.554 230.969,297.722 231.065,300.842 231.162,303.907 231.258,306.913 231.355,309.854 231.451,312.723 231.548,315.516 231.644,318.226 231.740,320.846 231.837,323.371 231.933,325.793 232.030,328.106 232.126,330.304 232.223,332.381 232.319,334.329 232.416,336.142 232.512,337.815 232.608,339.341 232.705,340.715 232.801,341.931 232.898,342.985 232.994,343.872 233.091,344.589 233.187,345.131 233.284,345.496 233.380,345.682 233.476,345.687 233.573,345.511 233.669,345.152 233.766,344.611 233.862,343.889 233.959,342.988 234.055,341.910 234.152,340.658 234.248,339.236 234.344,337.647 234.441,335.896 234.537,333.987 234.634,331.927 234.730,329.721 234.827,327.374 234.923,324.893 235.020,322.284 235.116,319.553 235.212,316.708 235.309,313.754 235.405,310.698 235.502,307.546 235.598,304.306 235.695,300.983 235.791,297.583 235.888,294.113 235.984,290.577 236.080,286.983 236.177,283.334 236.273,279.637 236.370,275.896 236.466,272.116 236.563,268.302 236.659,264.457 236.756,260.586 236.852,256.693 236.948,252.781 237.045,248.853 237.141,244.913 237.238,240.964 237.334,237.008 237.431,233.048 237.527,229.087 237.624,225.126 237.720,221.168 237.816,217.215 237.913,213.268 238.009,209.329 238.106,205.399 238.202,201.481 238.299,197.574 238.395,193.681 238.492,189.803 238.588,185.939 238.684,182.092 238.781,274.469 238.877,277.857 238.974,281.223 239.070,284.563 239.167,287.873 239.263,291.150 239.360,294.388 239.456,297.582 239.552,300.728 239.649,303.821 239.745,306.854 239.842,309.823 239.938,312.722 240.035,315.543 240.131,318.282 240.228,320.932 240.324,323.486 240.420,325.938 240.517,328.281 240.613,330.508 240.710,332.613 240.806,334.590 240.903,336.431 240.999,338.131 241.096,339.683 241.192,341.082 241.288,342.323 241.385,343.399 241.481,344.308 241.578,345.045 241.674,345.605 241.771,345.987 241.867,346.188 241.964,346.206 242.060,346.040 242.156,345.690 242.253,345.156 242.349,344.439 242.446,343.540 242.542,342.463 242.639,341.210 242.735,339.783 242.832,338.189 242.928,336.430 243.024,334.512 243.121,332.441 243.217,330.221 243.314,327.860 243.410,325.363 243.507,322.736 243.603,319.987 243.700,317.122 243.796,314.147 243.892,311.069 243.989,307.895 244.085,304.631 244.182,301.283 244.278,297.859 244.375,294.363 244.471,290.802 244.568,287.182 244.664,283.507 244.760,279.784 244.857,276.016 244.953,272.210 245.050,268.369 245.146,264.498 245.243,260.601 245.339,256.682 245.436,252.744 245.532,248.791 245.628,244.826 245.725,240.851 245.821,236.871 245.918,232.887 246.014,228.901 246.111,224.917 246.207,220.935 246.304,216.959 246.400,212.989 246.496,209.028 246.593,205.076 246.689,201.136 246.786,197.209 246.882,193.295 246.979,189.396 247.075,267.240 247.172,270.681 247.268,274.107 247.364,277.516 247.461,280.904 247.557,284.267 247.654,287.601 247.750,290.901 247.847,294.163 247.943,297.383 248.040,300.555 248.136,303.674 248.232,306.735 248.329,309.731 248.425,312.657 248.522,315.507 248.618,318.275 248.715,320.953 248.811,323.536 248.908,326.017 249.004,328.388 249.100,330.644 249.197,332.778 249.293,334.782 249.390,336.651 249.486,338.377 249.583,339.955 249.679,341.380 249.776,342.644 249.872,343.744 249.968,344.674 250.065,345.430 250.161,346.009 250.258,346.408 250.354,346.624 250.451,346.655 250.547,346.500 250.644,346.159 250.740,345.632 250.836,344.920 250.933,344.025 251.029,342.949 251.126,341.694 251.222,340.265 251.319,338.665 251.415,336.899 251.512,334.973 251.608,332.891 251.704,330.659 251.801,328.284 251.897,325.771 251.994,323.128 252.090,320.361 252.187,317.476 252.283,314.481 252.380,311.381 252.476,308.185 252.572,304.898 252.669,301.528 252.765,298.079 252.862,294.559 252.958,290.973 253.055,287.327 253.151,283.627 253.248,279.878 253.344,276.085 253.440,272.253 253.537,268.387 253.633,264.491 253.730,260.568 253.826,256.623 253.923,252.660 254.019,248.682 254.116,244.692 254.212,240.694 254.308,236.689 254.405,232.681 254.501,228.672 254.598,224.664 254.694,220.660 254.791,216.661 254.887,212.669 254.984,208.686 255.080,204.713 255.176,200.752 255.273,196.804 255.369,259.839 255.466,263.316 255.562,266.786 255.659,270.246 255.755,273.692 255.852,277.121 255.948,280.530 256.044,283.914 256.141,287.270 256.237,290.594 256.334,293.880 256.430,297.124 256.527,300.321 256.623,303.466 256.720,306.552 256.816,309.575 256.912,312.529 257.009,315.406 257.105,318.201 257.202,320.908 257.298,323.519 257.395,326.028 257.491,328.428 257.588,330.712 257.684,332.873 257.780,334.905 257.877,336.800 257.973,338.553 258.070,340.157 258.166,341.606 258.263,342.894 258.359,344.016 258.456,344.968 258.552,345.744 258.648,346.342 258.745,346.757 258.841,346.988 258.938,347.032 259.034,346.889 259.131,346.557 259.227,346.038 259.324,345.331 259.420,344.440 259.516,343.365 259.613,342.110 259.709,340.678 259.806,339.074 259.902,337.301 259.999,335.367 260.095,333.275 260.192,331.031 260.288,328.643 260.384,326.116 260.481,323.456 260.577,320.672 260.674,317.768 260.770,314.754 260.867,311.634 260.963,308.417 261.060,305.108 261.156,301.714 261.252,298.242 261.349,294.698 261.445,291.088 261.542,287.418 261.638,283.694 261.735,279.920 261.831,276.102 261.928,272.245 262.024,268.354 262.120,264.432 262.217,260.485 262.313,256.516 262.410,252.528 262.506,248.526 262.603,244.512 262.699,240.490 262.796,236.462 262.892,232.430 262.988,228.398 263.085,224.368 263.181,220.342 263.278,216.321 263.374,212.307 263.471,208.303 263.567,204.310 263.664,252.301 263.760,255.800 263.856,259.298 263.953,262.792 264.049,266.279 264.146,269.757 264.242,273.222 264.339,276.671 264.435,280.100 264.532,283.505 264.628,286.882 264.724,290.228 264.821,293.537 264.917,296.805 265.014,300.026 265.110,303.195 265.207,306.307 265.303,309.355 265.400,312.335 265.496,315.239 265.592,318.061 265.689,320.795 265.785,323.433 265.882,325.970 265.978,328.397 266.075,330.708 266.171,332.897 266.268,334.955 266.364,336.877 266.460,338.656 266.557,340.285 266.653,341.759 266.750,343.070 266.846,344.215 266.943,345.188 267.039,345.984 267.136,346.600 267.232,347.032 267.328,347.278 267.425,347.336 267.521,347.204 267.618,346.882 267.714,346.371 267.811,345.670 267.907,344.782 268.004,343.709 268.100,342.454 268.196,341.020 268.293,339.412 268.389,337.634 268.486,335.692 268.582,333.591 268.679,331.336 268.775,328.935 268.872,326.394 268.968,323.720 269.064,320.919 269.161,317.998 269.257,314.964 269.354,311.825 269.450,308.587 269.547,305.257 269.643,301.841 269.740,298.347 269.836,294.780 269.932,291.147 270.029,287.453 270.125,283.705 270.222,279.907 270.318,276.065 270.415,272.184 270.511,268.269 270.608,264.323 270.704,260.352 270.800,256.359 270.897,252.347 270.993,248.322 271.090,244.284 271.186,240.239 271.283,236.188 271.379,232.134 271.476,228.080 271.572,224.028 271.668,219.980 271.765,215.937 271.861,211.903 271.958,244.658 272.054,248.167 272.151,251.679 272.247,255.193 272.344,258.706 272.440,262.216 272.536,265.720 272.633,269.215 272.729,272.697 272.826,276.164 272.922,279.613 273.019,283.038 273.115,286.436 273.212,289.803 273.308,293.134 273.404,296.424 273.501,299.668 273.597,302.861 273.694,305.997 273.790,309.070 273.887,312.075 273.983,315.005 274.080,317.853 274.176,320.613 274.272,323.278 274.369,325.841 274.465,328.295 274.562,330.633 274.658,332.848 274.755,334.933 274.851,336.881 274.948,338.685 275.044,340.339 275.140,341.836 275.237,343.171 275.333,344.338 275.430,345.332 275.526,346.148 275.623,346.782 275.719,347.231 275.816,347.492 275.912,347.564 276.008,347.444 276.105,347.132 276.201,346.629 276.298,345.934 276.394,345.051 276.491,343.980 276.587,342.725 276.684,341.290 276.780,339.679 276.876,337.896 276.973,335.946 277.069,333.837 277.166,331.572 277.262,329.160 277.359,326.605 277.455,323.916 277.552,321.100 277.648,318.162 277.744,315.111 277.841,311.953 277.937,308.695 278.034,305.345 278.130,301.908 278.227,298.392 278.323,294.803 278.420,291.148 278.516,287.431 278.612,283.660 278.709,279.839 278.805,275.974 278.902,272.069 278.998,268.130 279.095,264.162 279.191,260.167 279.288,256.151 279.384,252.116 279.480,248.068 279.577,244.008 279.673,239.940 279.770,235.867 279.866,231.791 279.963,227.715 280.059,223.642 280.156,219.573 280.252,236.940 280.348,240.446 280.445,243.961 280.541,247.482 280.638,251.007 280.734,254.535 280.831,258.062 280.927,261.587 281.024,265.107 281.120,268.618 281.216,272.117 281.313,275.602 281.409,279.068 281.506,282.512 281.602,285.930 281.699,289.317 281.795,292.669 281.892,295.980 281.988,299.247 282.084,302.462 282.181,305.622 282.277,308.719 282.374,311.748 282.470,314.702 282.567,317.576 282.663,320.361 282.760,323.052 282.856,325.641 282.952,328.121 283.049,330.485 283.145,332.726 283.242,334.836 283.338,336.810 283.435,338.639 283.531,340.317 283.628,341.838 283.724,343.195 283.820,344.384 283.917,345.398 284.013,346.234 284.110,346.886 284.206,347.352 284.303,347.629 284.399,347.714 284.496,347.606 284.592,347.304 284.688,346.809 284.785,346.122 284.881,345.243 284.978,344.175 285.074,342.921 285.171,341.485 285.267,339.871 285.364,338.084 285.460,336.129 285.556,334.011 285.653,331.737 285.749,329.314 285.846,326.747 285.942,324.045 286.039,321.213 286.135,318.260 286.232,315.191 286.328,312.015 286.424,308.739 286.521,305.369 286.617,301.913 286.714,298.376 286.810,294.766 286.907,291.089 287.003,287.351 287.100,283.557 287.196,279.714 287.292,275.826 287.389,271.899 287.485,267.938 287.582,263.947 287.678,259.930 287.775,255.891 287.871,251.834 287.968,247.764 288.064,243.682 288.160,239.592 288.257,235.498 288.353,231.401 288.450,227.304 288.546,229.171 288.643,232.665 288.739,236.172 288.836,239.689 288.932,243.215 289.028,246.748 289.125,250.285 289.221,253.826 289.318,257.367 289.414,260.905 289.511,264.439 289.607,267.966 289.704,271.481 289.800,274.982 289.896,278.466 289.993,281.928 290.089,285.364 290.186,288.770 290.282,292.142 290.379,295.474 290.475,298.761 290.572,301.999 290.668,305.180 290.764,308.300 290.861,311.353 290.957,314.331 291.054,317.228 291.150,320.038 291.247,322.754 291.343,325.368 291.440,327.873 291.536,330.262 291.632,332.528 291.729,334.664 291.825,336.661 291.922,338.515 292.018,340.217 292.115,341.760 292.211,343.140 292.308,344.350 292.404,345.385 292.500,346.240 292.597,346.910 292.693,347.393 292.790,347.685 292.886,347.784 292.983,347.688 293.079,347.397 293.176,346.911 293.272,346.231 293.368,345.357 293.465,344.293 293.561,343.040 293.658,341.604 293.754,339.988 293.851,338.197 293.947,336.236 294.044,334.112 294.140,331.830 294.236,329.396 294.333,326.818 294.429,324.103 294.526,321.257 294.622,318.289 294.719,315.205 294.815,312.012 294.912,308.718 295.008,305.329 295.104,301.854 295.201,298.297 295.297,294.667 295.394,290.969 295.490,287.210 295.587,283.396 295.683,279.531 295.780,275.622 295.876,271.673 295.972,267.690 296.069,263.677 296.165,259.639 296.262,255.579 296.358,251.501 296.455,247.409 296.551,243.306 296.648,239.195 296.744,235.080 296.840,221.373 296.937,224.848 297.033,228.338 297.130,231.841 297.226,235.357 297.323,238.884 297.419,242.420 297.516,245.964 297.612,249.513 297.708,253.065 297.805,256.618 297.901,260.170 297.998,263.718 298.094,267.258 298.191,270.789 298.287,274.306 298.384,277.805 298.480,281.284 298.576,284.738 298.673,288.162 298.769,291.552 298.866,294.904 298.962,298.211 299.059,301.469 299.155,304.672 299.252,307.814 299.348,310.888 299.444,313.889 299.541,316.810 299.637,319.643 299.734,322.383 299.830,325.021 299.927,327.550 300.023,329.964 300.120,332.254 300.216,334.413 300.312,336.435 300.409,338.312 300.505,340.037 300.602,341.603 300.698,343.005 300.795,344.236 300.891,345.291 300.988,346.165 301.084,346.853 301.180,347.353 301.277,347.660 301.373,347.773 301.470,347.690 301.566,347.409 301.663,346.932 301.759,346.259 301.856,345.391 301.952,344.330 302.048,343.081 302.145,341.645 302.241,340.027 302.338,338.233 302.434,336.268 302.531,334.137 302.627,331.847 302.724,329.405 302.820,326.816 302.916,324.089 303.013,321.231 303.109,318.248 303.206,315.149 303.302,311.940 303.399,308.629 303.495,305.223 303.592,301.730 303.688,298.155 303.784,294.505 303.881,290.788 303.977,287.009 304.074,283.174 304.170,279.289 304.267,275.359 304.363,271.390 304.460,267.386 304.556,263.353 304.652,259.293 304.749,255.212 304.845,251.114 304.942,247.002 305.038,242.879 305.135,213.568 305.231,217.015 305.328,220.480 305.424,223.962 305.520,227.459 305.617,230.971 305.713,234.495 305.810,238.031 305.906,241.576 306.003,245.130 306.099,248.689 306.196,252.252 306.292,255.817 306.388,259.381 306.485,262.941 306.581,266.495 306.678,270.039 306.774,273.571 306.871,277.086 306.967,280.580 307.064,284.050 307.160,287.492 307.256,290.899 307.353,294.269 307.449,297.595 307.546,300.873 307.642,304.096 307.739,307.258 307.835,310.354 307.932,313.377 308.028,316.319 308.124,319.175 308.221,321.937 308.317,324.598 308.414,327.151 308.510,329.588 308.607,331.901 308.703,334.084 308.800,336.129 308.896,338.029 308.992,339.776 309.089,341.365 309.185,342.788 309.282,344.040 309.378,345.114 309.475,346.007 309.571,346.713 309.668,347.229 309.764,347.552 309.860,347.678 309.957,347.607 310.053,347.338 310.150,346.870 310.246,346.205 310.343,345.343 310.439,344.287 310.536,343.040 310.632,341.605 310.728,339.987 310.825,338.191 310.921,336.221 311.018,334.085 311.114,331.789 311.211,329.338 311.307,326.740 311.404,324.002 311.500,321.132 311.596,318.136 311.693,315.023 311.789,311.799 311.886,308.473 311.982,305.050 312.079,301.539 312.175,297.947 312.272,294.279 312.368,290.543 312.464,286.745 312.561,282.891 312.657,278.987 312.754,275.037 312.850,271.049 312.947,267.025 313.043,262.971 313.140,258.892 313.236,254.792 313.332,250.674 313.429,205.770 313.525,209.184 313.622,212.619 313.718,216.072 313.815,219.543 313.911,223.031 314.008,226.535 314.104,230.053 314.200,233.585 314.297,237.129 314.393,240.683 314.490,244.245 314.586,247.814 314.683,251.387 314.779,254.963 314.876,258.538 314.972,262.110 315.068,265.676 315.165,269.233 315.261,272.778 315.358,276.307 315.454,279.816 315.551,283.301 315.647,286.758 315.744,290.183 315.840,293.570 315.936,296.914 316.033,300.209 316.129,303.451 316.226,306.633 316.322,309.749 316.419,312.792 316.515,315.756 316.612,318.633 316.708,321.417 316.804,324.100 316.901,326.675 316.997,329.134 317.094,331.470 317.190,333.675 317.287,335.742 317.383,337.664 317.480,339.433 317.576,341.043 317.672,342.487 317.769,343.759 317.865,344.853 317.962,345.764 318.058,346.488 318.155,347.020 318.251,347.358 318.348,347.499 318.444,347.440 318.540,347.182 318.637,346.724 318.733,346.066 318.830,345.211 318.926,344.160 319.023,342.916 319.119,341.483 319.216,339.865 319.312,338.067 319.408,336.095 319.505,333.954 319.601,331.652 319.698,329.194 319.794,326.587 319.891,323.840 319.987,320.958 320.084,317.951 320.180,314.825 320.276,311.587 320.373,308.246 320.469,304.808 320.566,301.281 320.662,297.672 320.759,293.987 320.855,290.234 320.952,286.418 321.048,282.546 321.144,278.623 321.241,274.655 321.337,270.648 321.434,266.605 321.530,262.533 321.627,258.435 321.723,197.995 321.820,201.371 321.916,204.769 322.012,208.188 322.109,211.626 322.205,215.084 322.302,218.560 322.398,222.054 322.495,225.564 322.591,229.089 322.688,232.627 322.784,236.178 322.880,239.740 322.977,243.310 323.073,246.888 323.170,250.470 323.266,254.055 323.363,257.640 323.459,261.223 323.556,264.800 323.652,268.369 323.748,271.926 323.845,275.468 323.941,278.990 324.038,282.490 324.134,285.962 324.231,289.402 324.327,292.804 324.424,296.165 324.520,299.478 324.616,302.738 324.713,305.938 324.809,309.072 324.906,312.135 325.002,315.118 325.099,318.016 325.195,320.820 325.292,323.524 325.388,326.120 325.484,328.601 325.581,330.958 325.677,333.185 325.774,335.274 325.870,337.217 325.967,339.007 326.063,340.637 326.160,342.101 326.256,343.393 326.352,344.506 326.449,345.435 326.545,346.176 326.642,346.725 326.738,347.077 326.835,347.232 326.931,347.186 327.028,346.939 327.124,346.491 327.220,345.842 327.317,344.994 327.413,343.948 327.510,342.708 327.606,341.277 327.703,339.660 327.799,337.861 327.896,335.887 327.992,333.743 328.088,331.435 328.185,328.971 328.281,326.357 328.378,323.600 328.474,320.709 328.571,317.691 328.667,314.553 328.764,311.303 328.860,307.948 328.956,304.496 329.053,300.954 329.149,297.329 329.246,293.629 329.342,289.859 329.439,286.026 329.535,282.137 329.632,278.197 329.728,274.212 329.824,270.186 329.921,266.126 330.017,190.255 330.114,193.589 330.210,196.946 330.307,200.326 330.403,203.726 330.500,207.148 330.596,210.591 330.692,214.053 330.789,217.533 330.885,221.032 330.982,224.547 331.078,228.077 331.175,231.621 331.271,235.179 331.368,238.747 331.464,242.324 331.560,245.909 331.657,249.500 331.753,253.093 331.850,256.687 331.946,260.280 332.043,263.867 332.139,267.447 332.236,271.015 332.332,274.568 332.428,278.103 332.525,281.616 332.621,285.101 332.718,288.555 332.814,291.973 332.911,295.349 333.007,298.678 333.104,301.954 333.200,305.171 333.296,308.323 333.393,311.404 333.489,314.406 333.586,317.323 333.682,320.146 333.779,322.870 333.875,325.486 333.972,327.987 334.068,330.365 334.164,332.612 334.261,334.722 334.357,336.685 334.454,338.495 334.550,340.146 334.647,341.629 334.743,342.940 334.840,344.071 334.936,345.018 335.032,345.776 335.129,346.341 335.225,346.708 335.322,346.877 335.418,346.844 335.515,346.608 335.611,346.170 335.708,345.530 335.804,344.689 335.900,343.649 335.997,342.413 336.093,340.985 336.190,339.370 336.286,337.572 336.383,335.596 336.479,333.449 336.576,331.137 336.672,328.667 336.768,326.047 336.865,323.283 336.961,320.383 337.058,317.355 337.154,314.206 337.251,310.944 337.347,307.577 337.444,304.112 337.540,300.557 337.636,296.918 337.733,293.202 337.829,289.417 337.926,285.569 338.022,281.664 338.119,277.707 338.215,273.706 338.312,182.560 338.408,185.849 338.504,189.162 338.601,192.498 338.697,195.857 338.794,199.238 338.890,202.642 338.987,206.066 339.083,209.512 339.180,212.977 339.276,216.461 339.372,219.963 339.469,223.483 339.565,227.018 339.662,230.567 339.758,234.130 339.855,237.704 339.951,241.287 340.048,244.879 340.144,248.476 340.240,252.078 340.337,255.680 340.433,259.280 340.530,262.877 340.626,266.466 340.723,270.044 340.819,273.609 340.916,277.155 341.012,280.679 341.108,284.177 341.205,287.644 341.301,291.075 341.398,294.465 341.494,297.809 341.591,301.100 341.687,304.333 341.784,307.502 341.880,310.599 341.976,313.618 342.073,316.553 342.169,319.395 342.266,322.137 342.362,324.772 342.459,327.292 342.555,329.690 342.652,331.956 342.748,334.085 342.844,336.068 342.941,337.898 343.037,339.567 343.134,341.070 343.230,342.399 343.327,343.548 343.423,344.512 343.520,345.287 343.616,345.867 343.712,346.249 343.809,346.432 343.905,346.411 344.002,346.187 344.098,345.760 344.195,345.128 344.291,344.295 344.388,343.261 344.484,342.031 344.580,340.607 344.677,338.993 344.773,337.196 344.870,335.220 344.966,333.071 345.063,330.756 345.159,328.282 345.256,325.656 345.352,322.886 345.448,319.978 345.545,316.941 345.641,313.783 345.738,310.511 345.834,307.132 345.931,303.655 346.027,300.087 346.124,296.435 346.220,292.706 346.316,288.907 346.413,285.045 346.509,281.125 346.606,174.920 346.702,178.161 346.799,181.426 346.895,184.716 346.992,188.030 347.088,191.367 347.184,194.727 347.281,198.110 347.377,201.515 347.474,204.942 347.570,208.389 347.667,211.857 347.763,215.344 347.860,218.849 347.956,222.372 348.052,225.911 348.149,229.464 348.245,233.031 348.342,236.610 348.438,240.199 348.535,243.796 348.631,247.400 348.728,251.008 348.824,254.617 348.920,258.225 349.017,261.829 349.113,265.427 349.210,269.014 349.306,272.588 349.403,276.144 349.499,279.679 349.596,283.188 349.692,286.667 349.788,290.110 349.885,293.513 349.981,296.870 350.078,300.175 350.174,303.423 350.271,306.606 350.367,309.719 350.464,312.755 350.560,315.706 350.656,318.565 350.753,321.325 350.849,323.977 350.946,326.515 351.042,328.931 351.139,331.216 351.235,333.363 351.332,335.365 351.428,337.213 351.524,338.901 351.621,340.421 351.717,341.768 351.814,342.935 351.910,343.916 352.007,344.706 352.103,345.302 352.200,345.699 352.296,345.895 352.392,345.887 352.489,345.675 352.585,345.258 352.682,344.636 352.778,343.811 352.875,342.784 352.971,341.559 353.068,340.139 353.164,338.529 353.260,336.733 353.357,334.757 353.453,332.608 353.550,330.291 353.646,327.813 353.743,325.183 353.839,322.407 353.936,319.493 354.032,316.449 354.128,313.282 354.225,310.001 354.321,306.612 354.418,303.125 354.514,299.545 354.611,295.882 354.707,292.140 354.804,288.328 354.900,167.341 354.996,170.532 355.093,173.748 355.189,176.989 355.286,180.254 355.382,183.544 355.479,186.858 355.575,190.195 355.672,193.556 355.768,196.940 355.864,200.346 355.961,203.774 356.057,207.223 356.154,210.692 356.250,214.181 356.347,217.689 356.443,221.214 356.540,224.756 356.636,228.313 356.732,231.883 356.829,235.466 356.925,239.059 357.022,242.661 357.118,246.270 357.215,249.883 357.311,253.498 357.408,257.113 357.504,260.724 357.600,264.329 357.697,267.924 357.793,271.506 357.890,275.071 357.986,278.615 358.083,282.134 358.179,285.623 358.276,289.077 358.372,292.492 358.468,295.861 358.565,299.179 358.661,302.440 358.758,305.637 358.854,308.764 358.951,311.815 359.047,314.781 359.144,317.655 359.240,320.431 359.336,323.101 359.433,325.655 359.529,328.088 359.626,330.391 359.722,332.555 359.819,334.574 359.915,336.440 360.012,338.145 360.108,339.683 360.204,341.047 360.301,342.230 360.397,343.227 360.494,344.034 360.590,344.644 360.687,345.056 360.783,345.265 360.880,345.271 360.976,345.070 361.072,344.663 361.169,344.051 361.265,343.234 361.362,342.215 361.458,340.996 361.555,339.581 361.651,337.975 361.748,336.181 361.844,334.207 361.940,332.057 362.037,329.739 362.133,327.260 362.230,324.626 362.326,321.846 362.423,318.926 362.519,315.876 362.616,312.702 362.712,309.413 362.808,306.016 362.905,302.519 363.001,298.929 363.098,295.255 363.194,159.830 363.291,162.970 363.387,166.134 363.484,169.324 363.580,172.539 363.676,175.779 363.773,179.044 363.869,182.333 363.966,185.646 364.062,188.983 364.159,192.344 364.255,195.728 364.352,199.134 364.448,202.563 364.544,206.013 364.641,209.483 364.737,212.973 364.834,216.483 364.930,220.010 365.027,223.553 365.123,227.112 365.220,230.686 365.316,234.272 365.412,237.868 365.509,241.474 365.605,245.086 365.702,248.704 365.798,252.324 365.895,255.944 365.991,259.561 366.088,263.172 366.184,266.773 366.280,270.363 366.377,273.935 366.473,277.487 366.570,281.015 366.666,284.513 366.763,287.977 366.859,291.402 366.956,294.782 367.052,298.111 367.148,301.384 367.245,304.593 367.341,307.733 367.438,310.797 367.534,313.777 367.631,316.666 367.727,319.457 367.824,322.141 367.920,324.712 368.016,327.160 368.113,329.479 368.209,331.660 368.306,333.696 368.402,335.578 368.499,337.300 368.595,338.854 368.692,340.234 368.788,341.433 368.884,342.446 368.981,343.268 369.077,343.893 369.174,344.319 369.270,344.542 369.367,344.560 369.463,344.371 369.560,343.975 369.656,343.373 369.752,342.565 369.849,341.553 369.945,340.341 370.042,338.932 370.138,337.330 370.235,335.540 370.331,333.567 370.428,331.419 370.524,329.101 370.620,326.620 370.717,323.984 370.813,321.201 370.910,318.277 371.006,315.222 371.103,312.042 371.199,308.746 371.296,305.342 371.392,301.836 371.488,152.391 371.585,155.478 371.681,158.591 371.778,161.728 371.874,164.891 371.971,168.080 372.067,171.293 372.164,174.531 372.260,177.795 372.356,181.083 372.453,184.395 372.549,187.731 372.646,191.091 372.742,194.474 372.839,197.881 372.935,201.309 373.032,204.759 373.128,208.229 373.224,211.720 373.321,215.230 373.417,218.758 373.514,222.303 373.610,225.863 373.707,229.438 373.803,233.026 373.900,236.625 373.996,240.233 374.092,243.849 374.189,247.470 374.285,251.094 374.382,254.718 374.478,258.339 374.575,261.955 374.671,265.562 374.768,269.157 374.864,272.737 374.960,276.296 375.057,279.830 375.153,283.336 375.250,286.809 375.346,290.242 375.443,293.632 375.539,296.971 375.636,300.254 375.732,303.475 375.828,306.626 375.925,309.702 376.021,312.695 376.118,315.597 376.214,318.401 376.311,321.099 376.407,323.684 376.504,326.147 376.600,328.481 376.696,330.677 376.793,332.728 376.889,334.626 376.986,336.364 377.082,337.933 377.179,339.329 377.275,340.543 377.372,341.571 377.468,342.408 377.564,343.047 377.661,343.487 377.757,343.723 377.854,343.753 377.950,343.576 378.047,343.192 378.143,342.599 378.240,341.801 378.336,340.798 378.432,339.593 378.529,338.189 378.625,336.592 378.722,334.807 378.818,332.837 378.915,330.691 379.011,328.374 379.108,325.893 379.204,323.256 379.300,320.471 379.397,317.544 379.493,314.485 379.590,311.300 379.686,307.999 379.783,145.029 379.879,148.063 379.976,151.122 380.072,154.206 380.168,157.316 380.265,160.451 380.361,163.612 380.458,166.798 380.554,170.009 380.651,173.246 380.747,176.507 380.844,179.793 380.940,183.104 381.036,186.439 381.133,189.797 381.229,193.179 381.326,196.584 381.422,200.012 381.519,203.461 381.615,206.931 381.712,210.421 381.808,213.931 381.904,217.459 382.001,221.004 382.097,224.565 382.194,228.141 382.290,231.730 382.387,235.330 382.483,238.940 382.580,242.558 382.676,246.181 382.772,249.808 382.869,253.435 382.965,257.060 383.062,260.679 383.158,264.291 383.255,267.891 383.351,271.475 383.448,275.039 383.544,278.580 383.640,282.093 383.737,285.572 383.833,289.013 383.930,292.411 384.026,295.758 384.123,299.051 384.219,302.281 384.316,305.443 384.412,308.529 384.508,311.533 384.605,314.447 384.701,317.263 384.798,319.974 384.894,322.572 384.991,325.048 385.087,327.396 385.184,329.606 385.280,331.671 385.376,333.584 385.473,335.336 385.569,336.920 385.666,338.330 385.762,339.559 385.859,340.602 385.955,341.452 386.052,342.106 386.148,342.559 386.244,342.808 386.341,342.851 386.437,342.686 386.534,342.312 386.630,341.730 386.727,340.941 386.823,339.946 386.920,338.749 387.016,337.353 387.112,335.762 387.209,333.981 387.305,332.016 387.402,329.872 387.498,327.557 387.595,325.077 387.691,322.440 387.788,319.654 387.884,316.726 387.980,313.664 388.077,137.746 388.173,140.726 388.270,143.731 388.366,146.762 388.463,149.818 388.559,152.899 388.656,156.006 388.752,159.139 388.848,162.296 388.945,165.480 389.041,168.688 389.138,171.922 389.234,175.181 389.331,178.465 389.427,181.773 389.524,185.105 389.620,188.462 389.716,191.842 389.813,195.245 389.909,198.671 390.006,202.119 390.102,205.587 390.199,209.077 390.295,212.585 390.392,216.113 390.488,219.657 390.584,223.218 390.681,226.794 390.777,230.383 390.874,233.984 390.970,237.594 391.067,241.213 391.163,244.838 391.260,248.466 391.356,252.095 391.452,255.722 391.549,259.344 391.645,262.959 391.742,266.562 391.838,270.150 391.935,273.719 392.031,277.264 392.128,280.782 392.224,284.267 392.320,287.714 392.417,291.118 392.513,294.473 392.610,297.773 392.706,301.012 392.803,304.182 392.899,307.278 392.996,310.291 393.092,313.215 393.188,316.042 393.285,318.765 393.381,321.374 393.478,323.863 393.574,326.223 393.671,328.446 393.767,330.524 393.864,332.450 393.960,334.215 394.056,335.814 394.153,337.238 394.249,338.481 394.346,339.537 394.442,340.401 394.539,341.068 394.635,341.534 394.732,341.796 394.828,341.851 394.924,341.697 395.021,341.335 395.117,340.764 395.214,339.984 395.310,338.999 395.407,337.810 395.503,336.421 395.600,334.837 395.696,333.062 395.792,331.101 395.889,328.961 395.985,326.649 396.082,324.172 396.178,321.536 396.275,318.750 396.371,130.544 396.468,133.471 396.564,136.422 396.660,139.398 396.757,142.400 396.853,145.427 396.950,148.480 397.046,151.558 397.143,154.661 397.239,157.790 397.336,160.944 397.432,164.124 397.528,167.330 397.625,170.560 397.721,173.816 397.818,177.097 397.914,180.402 398.011,183.732 398.107,187.086 398.204,190.463 398.300,193.864 398.396,197.287 398.493,200.732 398.589,204.199 398.686,207.686 398.782,211.193 398.879,214.719 398.975,218.262 399.072,221.822 399.168,225.397 399.264,228.985 399.361,232.585 399.457,236.195 399.554,239.814 399.650,243.439 399.747,247.067 399.843,250.697 399.940,254.325 400.036,257.949 400.132,261.566 400.229,265.171 400.325,268.762 400.422,272.333 400.518,275.882 400.615,279.404 400.711,282.893 400.808,286.345 400.904,289.755 401.000,293.115 401.097,296.421 401.193,299.667 401.290,302.844 401.386,305.948 401.483,308.970 401.579,311.903 401.676,314.739 401.772,317.471 401.868,320.091 401.965,322.590 402.061,324.961 402.158,327.196 402.254,329.286 402.351,331.224 402.447,333.002 402.544,334.613 402.640,336.050 402.736,337.306 402.833,338.376 402.929,339.253 403.026,339.932 403.122,340.411 403.219,340.685 403.315,340.753 403.412,340.611 403.508,340.260 403.604,339.699 403.701,338.930 403.797,337.954 403.894,336.774 403.990,335.394 404.087,333.816 404.183,332.048 404.280,330.093 404.376,327.958 404.472,325.650 404.569,323.176 404.665,123.426 404.762,126.299 404.858,129.196 404.955,132.118 405.051,135.066 405.148,138.038 405.244,141.036 405.340,144.059 405.437,147.107 405.533,150.181 405.630,153.280 405.726,156.405 405.823,159.556 405.919,162.732 406.016,165.933 406.112,169.160 406.208,172.412 406.305,175.689 406.401,178.991 406.498,182.317 406.594,185.668 406.691,189.042 406.787,192.440 406.884,195.860 406.980,199.302 407.076,202.766 407.173,206.251 407.269,209.755 407.366,213.278 407.462,216.819 407.559,220.377 407.655,223.949 407.752,227.536 407.848,231.134 407.944,234.744 408.041,238.361 408.137,241.985 408.234,245.613 408.330,249.242 408.427,252.871 408.523,256.495 408.620,260.112 408.716,263.718 408.812,267.310 408.909,270.884 409.005,274.435 409.102,277.959 409.198,281.451 409.295,284.906 409.391,288.319 409.488,291.685 409.584,294.995 409.680,298.246 409.777,301.430 409.873,304.539 409.970,307.568 410.066,310.508 410.163,313.353 410.259,316.093 410.356,318.722 410.452,321.231 410.548,323.612 410.645,325.857 410.741,327.958 410.838,329.907 410.934,331.696 411.031,333.319 411.127,334.768 411.224,336.036 411.320,337.118 411.416,338.007 411.513,338.699 411.609,339.190 411.706,339.477 411.802,339.556 411.899,339.426 411.995,339.086 412.092,338.536 412.188,337.778 412.284,336.812 412.381,335.641 412.477,334.269 412.574,332.700 412.670,330.938 412.767,328.990 412.863,326.861 412.960,116.392 413.056,119.212 413.152,122.055 413.249,124.924 413.345,127.816 413.442,130.734 413.538,133.677 413.635,136.645 413.731,139.638 413.828,142.656 413.924,145.700 414.020,148.769 414.117,151.864 414.213,154.985 414.310,158.131 414.406,161.303 414.503,164.500 414.599,167.722 414.696,170.970 414.792,174.243 414.888,177.540 414.985,180.863 415.081,184.209 415.178,187.579 415.274,190.973 415.371,194.389 415.467,197.828 415.564,201.288 415.660,204.769 415.756,208.270 415.853,211.790 415.949,215.328 416.046,218.882 416.142,222.452 416.239,226.036 416.335,229.632 416.432,233.239 416.528,236.854 416.624,240.476 416.721,244.102 416.817,247.730 416.914,251.357 417.010,254.981 417.107,258.597 417.203,262.203 417.300,265.795 417.396,269.369 417.492,272.921 417.589,276.446 417.685,279.940 417.782,283.397 417.878,286.813 417.975,290.181 418.071,293.495 418.168,296.750 418.264,299.938 418.360,303.052 418.457,306.086 418.553,309.032 418.650,311.883 418.746,314.631 418.843,317.267 418.939,319.784 419.036,322.173 419.132,324.427 419.228,326.538 419.325,328.497 419.421,330.297 419.518,331.930 419.614,333.390 419.711,334.670 419.807,335.763 419.904,336.664 420.000,337.368 420.096,337.871 420.193,338.169 420.289,338.260 420.386,338.141 420.482,337.813 420.579,337.274 420.675,336.526 420.772,335.570 420.868,334.409 420.964,333.046 421.061,331.486 421.157,329.733 421.254,109.444 421.350,112.210 421.447,115.000 421.543,117.815 421.640,120.653 421.736,123.517 421.832,126.405 421.929,129.317 422.025,132.255 422.122,135.218 422.218,138.206 422.315,141.219 422.411,144.258 422.508,147.323 422.604,150.413 422.700,153.528 422.797,156.669 422.893,159.836 422.990,163.028 423.086,166.246 423.183,169.489 423.279,172.757 423.376,176.050 423.472,179.367 423.568,182.709 423.665,186.074 423.761,189.463 423.858,192.875 423.954,196.309 424.051,199.765 424.147,203.242 424.244,206.739 424.340,210.254 424.436,213.788 424.533,217.339 424.629,220.905 424.726,224.485 424.822,228.078 424.919,231.681 425.015,235.293 425.112,238.912 425.208,242.536 425.304,246.161 425.401,249.786 425.497,253.407 425.594,257.022 425.690,260.626 425.787,264.217 425.883,267.790 425.980,271.341 426.076,274.866 426.172,278.360 426.269,281.818 426.365,285.235 426.462,288.604 426.558,291.920 426.655,295.177 426.751,298.368 426.848,301.486 426.944,304.524 427.040,307.475 427.137,310.331 427.233,313.084 427.330,315.726 427.426,318.249 427.523,320.646 427.619,322.908 427.716,325.027 427.812,326.994 427.908,328.804 428.005,330.447 428.101,331.917 428.198,333.207 428.294,334.310 428.391,335.222 428.487,335.938 428.584,336.452 428.680,336.761 428.776,336.864 428.873,336.757 428.969,336.440 429.066,335.912 429.162,335.175 429.259,334.230 429.355,333.079 429.452,331.726 429.548,102.581 429.644,105.295 429.741,108.032 429.837,110.793 429.934,113.578 430.030,116.387 430.127,119.220 430.223,122.078 430.320,124.961 430.416,127.868 430.512,130.800 430.609,133.758 430.705,136.740 430.802,139.748 430.898,142.782 430.995,145.841 431.091,148.925 431.188,152.036 431.284,155.171 431.380,158.333 431.477,161.519 431.573,164.732 431.670,167.969 431.766,171.232 431.863,174.519 431.959,177.831 432.056,181.167 432.152,184.528 432.248,187.911 432.345,191.318 432.441,194.747 432.538,198.197 432.634,201.669 432.731,205.161 432.827,208.672 432.924,212.200 433.020,215.746 433.116,219.308 433.213,222.883 433.309,226.471 433.406,230.070 433.502,233.678 433.599,237.293 433.695,240.913 433.792,244.535 433.888,248.156 433.984,251.774 434.081,255.386 434.177,258.987 434.274,262.576 434.370,266.146 434.467,269.696 434.563,273.219 434.660,276.712 434.756,280.169 434.852,283.586 434.949,286.955 435.045,290.272 435.142,293.529 435.238,296.722 435.335,299.842 435.431,302.882 435.528,305.836 435.624,308.695 435.720,311.452 435.817,314.099 435.913,316.628 436.010,319.030 436.106,321.298 436.203,323.424 436.299,325.400 436.396,327.217 436.492,328.868 436.588,330.347 436.685,331.647 436.781,332.761 436.878,333.683 436.974,334.409 437.071,334.934 437.167,335.254 437.264,335.368 437.360,335.272 437.456,334.966 437.553,334.450 437.649,333.724 437.746,332.789 437.842,95.803 437.939,98.465 438.035,101.150 438.132,103.858 438.228,106.590 438.324,109.346 438.421,112.125 438.517,114.928 438.614,117.756 438.710,120.608 438.807,123.485 438.903,126.386 439.000,129.313 439.096,132.264 439.192,135.241 439.289,138.243 439.385,141.271 439.482,144.324 439.578,147.403 439.675,150.507 439.771,153.637 439.868,156.792 439.964,159.973 440.060,163.179 440.157,166.410 440.253,169.667 440.350,172.948 440.446,176.254 440.543,179.585 440.639,182.939 440.736,186.317 440.832,189.717 440.928,193.140 441.025,196.585 441.121,200.051 441.218,203.536 441.314,207.041 441.411,210.565 441.507,214.105 441.604,217.660 441.700,221.230 441.796,224.813 441.893,228.407 441.989,232.010 442.086,235.620 442.182,239.234 442.279,242.851 442.375,246.468 442.472,250.082 442.568,253.689 442.664,257.287 442.761,260.871 442.857,264.439 442.954,267.985 443.050,271.505 443.147,274.996 443.243,278.451 443.340,281.865 443.436,285.233 443.532,288.549 443.629,291.806 443.725,294.998 443.822,298.118 443.918,301.160 444.015,304.115 444.111,306.976 444.208,309.736 444.304,312.386 444.400,314.919 444.497,317.326 444.593,319.599 444.690,321.731 444.786,323.712 444.883,325.536 444.979,327.195 445.076,328.682 445.172,329.990 445.268,331.113 445.365,332.045 445.461,332.781 445.558,333.316 445.654,333.647 445.751,333.772 445.847,333.687 445.944,333.392 446.040,332.887 446.136,89.110 446.233,91.721 446.329,94.354 446.426,97.011 446.522,99.690 446.619,102.392 446.715,105.118 446.812,107.868 446.908,110.641 447.004,113.439 447.101,116.260 447.197,119.106 447.294,121.977 447.390,124.872 447.487,127.793 447.583,130.738 447.680,133.708 447.776,136.704 447.872,139.726 447.969,142.772 448.065,145.844 448.162,148.942 448.258,152.066 448.355,155.214 448.451,158.389 448.548,161.588 448.644,164.813 448.740,168.063 448.837,171.338 448.933,174.637 449.030,177.961 449.126,181.308 449.223,184.679 449.319,188.073 449.416,191.490 449.512,194.928 449.608,198.387 449.705,201.866 449.801,205.364 449.898,208.881 449.994,212.414 450.091,215.963 450.187,219.527 450.284,223.103 450.380,226.691 450.476,230.287 450.573,233.891 450.669,237.500 450.766,241.111 450.862,244.722 450.959,248.330 451.055,251.932 451.152,255.524 451.248,259.104 451.344,262.666 451.441,266.208 451.537,269.725 451.634,273.211 451.730,276.662 451.827,280.073 451.923,283.438 452.020,286.752 452.116,290.007 452.212,293.198 452.309,296.317 452.405,299.358 452.502,302.313 452.598,305.175 452.695,307.936 452.791,310.588 452.888,313.123 452.984,315.533 453.080,317.810 453.177,319.946 453.273,321.932 453.370,323.762 453.466,325.428 453.563,326.922 453.659,328.237 453.756,329.368 453.852,330.309 453.948,331.054 454.045,331.599 454.141,331.940 454.238,332.075 454.334,332.001 454.431,82.501 454.527,85.062 454.624,87.645 454.720,90.250 454.816,92.877 454.913,95.528 455.009,98.201 455.106,100.897 455.202,103.617 455.299,106.360 455.395,109.127 455.492,111.918 455.588,114.733 455.684,117.573 455.781,120.437 455.877,123.326 455.974,126.239 456.070,129.178 456.167,132.142 456.263,135.131 456.360,138.145 456.456,141.185 456.552,144.251 456.649,147.341 456.745,150.458 456.842,153.600 456.938,156.767 457.035,159.959 457.131,163.177 457.228,166.420 457.324,169.687 457.420,172.979 457.517,176.296 457.613,179.636 457.710,183.000 457.806,186.386 457.903,189.795 457.999,193.226 458.096,196.677 458.192,200.149 458.288,203.640 458.385,207.149 458.481,210.675 458.578,214.217 458.674,217.773 458.771,221.342 458.867,224.922 458.964,228.511 459.060,232.108 459.156,235.709 459.253,239.314 459.349,242.918 459.446,246.519 459.542,250.114 459.639,253.700 459.735,257.274 459.832,260.830 459.928,264.366 460.024,267.877 460.121,271.358 460.217,274.805 460.314,278.211 460.410,281.572 460.507,284.881 460.603,288.133 460.700,291.321 460.796,294.438 460.892,297.476 460.989,300.430 461.085,303.291 461.182,306.052 461.278,308.704 461.375,311.240 461.471,313.652 461.568,315.931 461.664,318.070 461.760,320.061 461.857,321.895 461.953,323.566 462.050,325.066 462.146,326.388 462.243,327.526 462.339,328.475 462.436,329.228 462.532,329.783 462.628,330.134 462.725,75.976 462.821,78.488 462.918,81.020 463.014,83.575 463.111,86.152 463.207,88.750 463.304,91.371 463.400,94.015 463.496,96.682 463.593,99.372 463.689,102.085 463.786,104.821 463.882,107.582 463.979,110.366 464.075,113.175 464.172,116.007 464.268,118.865 464.364,121.746 464.461,124.653 464.557,127.585 464.654,130.542 464.750,133.523 464.847,136.531 464.943,139.563 465.040,142.621 465.136,145.705 465.232,148.813 465.329,151.948 465.425,155.107 465.522,158.292 465.618,161.502 465.715,164.737 465.811,167.997 465.908,171.281 466.004,174.589 466.100,177.922 466.197,181.277 466.293,184.656 466.390,188.056 466.486,191.479 466.583,194.922 466.679,198.386 466.776,201.868 466.872,205.369 466.968,208.887 467.065,212.420 467.161,215.968 467.258,219.529 467.354,223.101 467.451,226.682 467.547,230.270 467.644,233.864 467.740,237.460 467.836,241.056 467.933,244.649 468.029,248.237 468.126,251.815 468.222,255.381 468.319,258.930 468.415,262.459 468.512,265.963 468.608,269.438 468.704,272.878 468.801,276.278 468.897,279.633 468.994,282.937 469.090,286.184 469.187,289.368 469.283,292.480 469.380,295.516 469.476,298.467 469.572,301.325 469.669,304.084 469.765,306.736 469.862,309.271 469.958,311.683 470.055,313.964 470.151,316.104 470.248,318.098 470.344,319.935 470.440,321.610 470.537,323.115 470.633,324.443 470.730,325.587 470.826,326.543 470.923,327.305 471.019,69.534 471.116,71.997 471.212,74.480 471.308,76.985 471.405,79.512 471.501,82.060 471.598,84.630 471.694,87.222 471.791,89.837 471.887,92.474 471.984,95.134 472.080,97.817 472.176,100.523 472.273,103.253 472.369,106.006 472.466,108.783 472.562,111.585 472.659,114.410 472.755,117.260 472.852,120.135 472.948,123.034 473.044,125.958 473.141,128.907 473.237,131.882 473.334,134.881 473.430,137.906 473.527,140.956 473.623,144.032 473.720,147.133 473.816,150.259 473.912,153.410 474.009,156.587 474.105,159.789 474.202,163.015 474.298,166.266 474.395,169.542 474.491,172.842 474.588,176.166 474.684,179.512 474.780,182.882 474.877,186.274 474.973,189.688 475.070,193.122 475.166,196.576 475.263,200.050 475.359,203.542 475.456,207.050 475.552,210.575 475.648,214.113 475.745,217.665 475.841,221.227 475.938,224.799 476.034,228.378 476.131,231.963 476.227,235.550 476.324,239.137 476.420,242.721 476.516,246.299 476.613,249.869 476.709,253.426 476.806,256.967 476.902,260.487 476.999,263.983 477.095,267.450 477.192,270.882 477.288,274.275 477.384,277.623 477.481,280.921 477.577,284.161 477.674,287.339 477.770,290.446 477.867,293.477 477.963,296.423 478.060,299.278 478.156,302.034 478.252,304.683 478.349,307.217 478.445,309.627 478.542,311.908 478.638,314.049 478.735,316.043 478.831,317.883 478.928,319.561 479.024,321.069 479.120,322.402 479.217,323.552 479.313,63.173 479.410,65.588 479.506,68.024 479.603,70.480 479.699,72.957 479.796,75.456 479.892,77.975 479.988,80.517 480.085,83.080 480.181,85.665 480.278,88.273 480.374,90.903 480.471,93.556 480.567,96.232 480.664,98.931 480.760,101.653 480.856,104.399 480.953,107.169 481.049,109.963 481.146,112.781 481.242,115.624 481.339,118.490 481.435,121.382 481.532,124.298 481.628,127.239 481.724,130.206 481.821,133.197 481.917,136.214 482.014,139.256 482.110,142.323 482.207,145.415 482.303,148.533 482.400,151.676 482.496,154.843 482.592,158.036 482.689,161.254 482.785,164.496 482.882,167.763 482.978,171.054 483.075,174.368 483.171,177.705 483.268,181.066 483.364,184.448 483.460,187.852 483.557,191.277 483.653,194.721 483.750,198.185 483.846,201.667 483.943,205.165 484.039,208.680 484.136,212.208 484.232,215.750 484.328,219.302 484.425,222.864 484.521,226.433 484.618,230.007 484.714,233.583 484.811,237.160 484.907,240.734 485.004,244.303 485.100,247.862 485.196,251.409 485.293,254.941 485.389,258.451 485.486,261.938 485.582,265.395 485.679,268.818 485.775,272.203 485.872,275.542 485.968,278.832 486.064,282.064 486.161,285.235 486.257,288.335 486.354,291.359 486.450,294.300 486.547,297.150 486.643,299.901 486.740,302.546 486.836,305.076 486.932,307.485 487.029,309.763 487.125,311.904 487.222,313.898 487.318,315.739 487.415,317.418 487.511,318.930 487.608,56.892 487.704,59.261 487.800,61.649 487.897,64.058 487.993,66.487 488.090,68.936 488.186,71.407 488.283,73.898 488.379,76.411 488.476,78.946 488.572,81.502 488.668,84.080 488.765,86.680 488.861,89.303 488.958,91.949 489.054,94.617 489.151,97.309 489.247,100.024 489.344,102.762 489.440,105.524 489.536,108.310 489.633,111.120 489.729,113.955 489.826,116.813 489.922,119.697 490.019,122.605 490.115,125.538 490.212,128.496 490.308,131.478 490.404,134.486 490.501,137.519 490.597,140.578 490.694,143.661 490.790,146.770 490.887,149.903 490.983,153.062 491.080,156.245 491.176,159.454 491.272,162.686 491.369,165.943 491.465,169.224 491.562,172.528 491.658,175.856 491.755,179.206 491.851,182.578 491.948,185.972 492.044,189.386 492.140,192.820 492.237,196.273 492.333,199.744 492.430,203.232 492.526,206.735 492.623,210.253 492.719,213.783 492.816,217.325 492.912,220.875 493.008,224.433 493.105,227.995 493.201,231.561 493.298,235.126 493.394,238.689 493.491,242.247 493.587,245.795 493.684,249.331 493.780,252.851 493.876,256.351 493.973,259.827 494.069,263.274 494.166,266.687 494.262,270.061 494.359,273.391 494.455,276.671 494.552,279.894 494.648,283.056 494.744,286.148 494.841,289.164 494.937,292.098 495.034,294.941 495.130,297.686 495.227,300.326 495.323,302.852 495.420,305.256 495.516,307.532 495.612,309.670 495.709,311.663 495.805,313.504 " />
        <g
           id="g24" />
      </g>
      <g
         id="ID000003" />
      <g
         id="ID000004" />
      <g
         id="ID000005" />
    </g>
    <g
       id="g29">
      <polyline
         style="fill:none;stroke:#000000;stroke-width:0.5pt;stroke-dasharray:none"
         id="polyline31"
         points="121.022,373.800 121.022,369.460 " />
      <polyline
         style="fill:none;stroke:#000000;stroke-width:0.5pt;stroke-dasharray:none"
         id="polyline33"
         points="169.244,373.800 169.244,369.460 " />
      <polyline
         style="fill:none;stroke:#000000;stroke-width:0.5pt;stroke-dasharray:none"
         id="polyline35"
         points="217.467,373.800 217.467,369.460 " />
      <polyline
         style="fill:none;stroke:#000000;stroke-width:0.5pt;stroke-dasharray:none"
         id="polyline37"
         points="265.689,373.800 265.689,369.460 " />
      <polyline
         style="fill:none;stroke:#000000;stroke-width:0.5pt;stroke-dasharray:none"
         id="polyline39"
         points="313.911,373.800 313.911,369.460 " />
      <polyline
         style="fill:none;stroke:#000000;stroke-width:0.5pt;stroke-dasharray:none"
         id="polyline41"
         points="362.133,373.800 362.133,369.460 " />
      <polyline
         style="fill:none;stroke:#000000;stroke-width:0.5pt;stroke-dasharray:none"
         id="polyline43"
         points="410.356,373.800 410.356,369.460 " />
      <polyline
         style="fill:none;stroke:#000000;stroke-width:0.5pt;stroke-dasharray:none"
         id="polyline45"
         points="458.578,373.800 458.578,369.460 " />
      <polyline
         style="fill:none;stroke:#000000;stroke-width:0.5pt;stroke-dasharray:none"
         id="polyline47"
         points="72.800,373.800 506.800,373.800 " />
      <polyline
         style="fill:none;stroke:#000000;stroke-width:0.5pt;stroke-dasharray:none"
         id="polyline49"
         points="121.022,31.500 121.022,35.840 " />
      <polyline
         style="fill:none;stroke:#000000;stroke-width:0.5pt;stroke-dasharray:none"
         id="polyline51"
         points="169.244,31.500 169.244,35.840 " />
      <polyline
         style="fill:none;stroke:#000000;stroke-width:0.5pt;stroke-dasharray:none"
         id="polyline53"
         points="217.467,31.500 217.467,35.840 " />
      <polyline
         style="fill:none;stroke:#000000;stroke-width:0.5pt;stroke-dasharray:none"
         id="polyline55"
         points="265.689,31.500 265.689,35.840 " />
      <polyline
         style="fill:none;stroke:#000000;stroke-width:0.5pt;stroke-dasharray:none"
         id="polyline57"
         points="313.911,31.500 313.911,35.840 " />
      <polyline
         style="fill:none;stroke:#000000;stroke-width:0.5pt;stroke-dasharray:none"
         id="polyline59"
         points="362.133,31.500 362.133,35.840 " />
      <polyline
         style="fill:none;stroke:#000000;stroke-width:0.5pt;stroke-dasharray:none"
         id="polyline61"
         points="410.356,31.500 410.356,35.840 " />
      <polyline
         style="fill:none;stroke:#000000;stroke-width:0.5pt;stroke-dasharray:none"
         id="polyline63"
         points="458.578,31.500 458.578,35.840 " />
      <polyline
         style="fill:none;stroke:#000000;stroke-width:0.5pt;stroke-dasharray:none"
         id="polyline65"
         points="72.800,31.500 506.800,31.500 " />
      <g
         id="g67"
         transform="translate(72.8,392.446)">
        <g
           id="g69">
          <text
             style="font-size:12.5px;text-anchor:middle;fill:#000000;font-family:Helvetica"
             id="text71"
             font-size="10pt"
             y="0"
             x="0">0</text>
        </g>
      </g>
      <g
         id="g73"
         transform="translate(121.022,392.446)">
        <g
           id="g75">
          <text
             style="font-size:12.5px;text-anchor:middle;fill:#000000;font-family:Helvetica"
             id="text77"
             font-size="10pt"
             y="0"
             x="0">500</text>
        </g>
      </g>
      <g
         id="g79"
         transform="translate(169.244,392.446)">
        <g
           id="g81">
          <text
             style="font-size:12.5px;text-anchor:middle;fill:#000000;font-family:Helvetica"
             id="text83"
             font-size="10pt"
             y="0"
             x="0">1000</text>
        </g>
      </g>
      <g
         id="g85"
         transform="translate(217.467,392.446)">
        <g
           id="g87">
          <text
             style="font-size:12.5px;text-anchor:middle;fill:#000000;font-family:Helvetica"
             id="text89"
             font-size="10pt"
             y="0"
             x="0">1500</text>
        </g>
      </g>
      <g
         id="g91"
         transform="translate(265.689,392.446)">
        <g
           id="g93">
          <text
             style="font-size:12.5px;text-anchor:middle;fill:#000000;font-family:Helvetica"
             id="text95"
             font-size="10pt"
             y="0"
             x="0">2000</text>
        </g>
      </g>
      <g
         id="g97"
         transform="translate(313.911,392.446)">
        <g
           id="g99">
          <text
             style="font-size:12.5px;text-anchor:middle;fill:#000000;font-family:Helvetica"
             id="text101"
             font-size="10pt"
             y="0"
             x="0">2500</text>
        </g>
      </g>
      <g
         id="g103"
         transform="translate(362.133,392.446)">
        <g
           id="g105">
          <text
             style="font-size:12.5px;text-anchor:middle;fill:#000000;font-family:Helvetica"
             id="text107"
             font-size="10pt"
             y="0"
             x="0">3000</text>
        </g>
      </g>
      <g
         id="g109"
         transform="translate(410.356,392.446)">
        <g
           id="g111">
          <text
             style="font-size:12.5px;text-anchor:middle;fill:#000000;font-family:Helvetica"
             id="text113"
             font-size="10pt"
             y="0"
             x="0">3500</text>
        </g>
      </g>
      <g
         id="g115"
         transform="translate(458.578,392.446)">
        <g
           id="g117">
          <text
             style="font-size:12.5px;text-anchor:middle;fill:#000000;font-family:Helvetica"
             id="text119"
             font-size="10pt"
             y="0"
             x="0">4000</text>
        </g>
      </g>
      <g
         id="g121"
         transform="translate(506.8,392.446)">
        <g
           id="g123">
          <text
             style="font-size:12.5px;text-anchor:middle;fill:#000000;font-family:Helvetica"
             id="text125"
             font-size="10pt"
             y="0"
             x="0">4500</text>
        </g>
      </g>
      <polyline
         style="fill:none;stroke:#000000;stroke-width:0.5pt;stroke-dasharray:none"
         id="polyline127"
         points="72.800,339.570 77.140,339.570 " />
      <polyline
         style="fill:none;stroke:#000000;stroke-width:0.5pt;stroke-dasharray:none"
         id="polyline129"
         points="72.800,305.340 77.140,305.340 " />
      <polyline
         style="fill:none;stroke:#000000;stroke-width:0.5pt;stroke-dasharray:none"
         id="polyline131"
         points="72.800,271.110 77.140,271.110 " />
      <polyline
         style="fill:none;stroke:#000000;stroke-width:0.5pt;stroke-dasharray:none"
         id="polyline133"
         points="72.800,236.880 77.140,236.880 " />
      <polyline
         style="fill:none;stroke:#000000;stroke-width:0.5pt;stroke-dasharray:none"
         id="polyline135"
         points="72.800,202.650 77.140,202.650 " />
      <polyline
         style="fill:none;stroke:#000000;stroke-width:0.5pt;stroke-dasharray:none"
         id="polyline137"
         points="72.800,168.420 77.140,168.420 " />
      <polyline
         style="fill:none;stroke:#000000;stroke-width:0.5pt;stroke-dasharray:none"
         id="polyline139"
         points="72.800,134.190 77.140,134.190 " />
      <polyline
         style="fill:none;stroke:#000000;stroke-width:0.5pt;stroke-dasharray:none"
         id="polyline141"
         points="72.800,99.960 77.140,99.960 " />
      <polyline
         style="fill:none;stroke:#000000;stroke-width:0.5pt;stroke-dasharray:none"
         id="polyline143"
         points="72.800,65.730 77.140,65.730 " />
      <polyline
         style="fill:none;stroke:#000000;stroke-width:0.5pt;stroke-dasharray:none"
         id="polyline145"
         points="72.800,373.800 72.800,31.500 " />
      <polyline
         style="fill:none;stroke:#000000;stroke-width:0.5pt;stroke-dasharray:none"
         id="polyline147"
         points="506.800,339.570 502.460,339.570 " />
      <polyline
         style="fill:none;stroke:#000000;stroke-width:0.5pt;stroke-dasharray:none"
         id="polyline149"
         points="506.800,305.340 502.460,305.340 " />
      <polyline
         style="fill:none;stroke:#000000;stroke-width:0.5pt;stroke-dasharray:none"
         id="polyline151"
         points="506.800,271.110 502.460,271.110 " />
      <polyline
         style="fill:none;stroke:#000000;stroke-width:0.5pt;stroke-dasharray:none"
         id="polyline153"
         points="506.800,236.880 502.460,236.880 " />
      <polyline
         style="fill:none;stroke:#000000;stroke-width:0.5pt;stroke-dasharray:none"
         id="polyline155"
         points="506.800,202.650 502.460,202.650 " />
      <polyline
         style="fill:none;stroke:#000000;stroke-width:0.5pt;stroke-dasharray:none"
         id="polyline157"
         points="506.800,168.420 502.460,168.420 " />
      <polyline
         style="fill:none;stroke:#000000;stroke-width:0.5pt;stroke-dasharray:none"
         id="polyline159"
         points="506.800,134.190 502.460,134.190 " />
      <polyline
         style="fill:none;stroke:#000000;stroke-width:0.5pt;stroke-dasharray:none"
         id="polyline161"
         points="506.800,99.960 502.460,99.960 " />
      <polyline
         style="fill:none;stroke:#000000;stroke-width:0.5pt;stroke-dasharray:none"
         id="polyline163"
         points="506.800,65.730 502.460,65.730 " />
      <polyline
         style="fill:none;stroke:#000000;stroke-width:0.5pt;stroke-dasharray:none"
         id="polyline165"
         points="506.800,373.800 506.800,31.500 " />
      <g
         id="g167"
         transform="translate(64.12,378.3)">
        <g
           id="g169">
          <text
             style="font-size:12.5px;text-anchor:end;fill:#000000;font-family:Helvetica"
             id="text171"
             font-size="10pt"
             y="0"
             x="0">-24</text>
        </g>
      </g>
      <g
         id="g173"
         transform="translate(64.12,344.07)">
        <g
           id="g175">
          <text
             style="font-size:12.5px;text-anchor:end;fill:#000000;font-family:Helvetica"
             id="text177"
             font-size="10pt"
             y="0"
             x="0">-23</text>
        </g>
      </g>
      <g
         id="g179"
         transform="translate(64.12,309.84)">
        <g
           id="g181">
          <text
             style="font-size:12.5px;text-anchor:end;fill:#000000;font-family:Helvetica"
             id="text183"
             font-size="10pt"
             y="0"
             x="0">-22</text>
        </g>
      </g>
      <g
         id="g185"
         transform="translate(64.12,275.61)">
        <g
           id="g187">
          <text
             style="font-size:12.5px;text-anchor:end;fill:#000000;font-family:Helvetica"
             id="text189"
             font-size="10pt"
             y="0"
             x="0">-21</text>
        </g>
      </g>
      <g
         id="g191"
         transform="translate(64.12,241.38)">
        <g
           id="g193">
          <text
             style="font-size:12.5px;text-anchor:end;fill:#000000;font-family:Helvetica"
             id="text195"
             font-size="10pt"
             y="0"
             x="0">-20</text>
        </g>
      </g>
      <g
         id="g197"
         transform="translate(64.12,207.15)">
        <g
           id="g199">
          <text
             style="font-size:12.5px;text-anchor:end;fill:#000000;font-family:Helvetica"
             id="text201"
             font-size="10pt"
             y="0"
             x="0">-19</text>
        </g>
      </g>
      <g
         id="g203"
         transform="translate(64.12,172.92)">
        <g
           id="g205">
          <text
             style="font-size:12.5px;text-anchor:end;fill:#000000;font-family:Helvetica"
             id="text207"
             font-size="10pt"
             y="0"
             x="0">-18</text>
        </g>
      </g>
      <g
         id="g209"
         transform="translate(64.12,138.69)">
        <g
           id="g211">
          <text
             style="font-size:12.5px;text-anchor:end;fill:#000000;font-family:Helvetica"
             id="text213"
             font-size="10pt"
             y="0"
             x="0">-17</text>
        </g>
      </g>
      <g
         id="g215"
         transform="translate(64.12,104.46)">
        <g
           id="g217">
          <text
             style="font-size:12.5px;text-anchor:end;fill:#000000;font-family:Helvetica"
             id="text219"
             font-size="10pt"
             y="0"
             x="0">-16</text>
        </g>
      </g>
      <g
         id="g221"
         transform="translate(64.12,70.23)">
        <g
           id="g223">
          <text
             style="font-size:12.5px;text-anchor:end;fill:#000000;font-family:Helvetica"
             id="text225"
             font-size="10pt"
             y="0"
             x="0">-15</text>
        </g>
      </g>
      <g
         id="g227"
         transform="translate(64.12,36)">
        <g
           id="g229">
          <text
             style="font-size:12.5px;text-anchor:end;fill:#000000;font-family:Helvetica"
             id="text231"
             font-size="10pt"
             y="0"
             x="0">-14</text>
        </g>
      </g>
      <polyline
         style="fill:none;stroke:#000000;stroke-width:0.5pt;stroke-dasharray:none"
         id="polyline233"
         points="72.800,373.800 72.800,370.377 " />
      <polyline
         style="fill:none;stroke:#000000;stroke-width:0.5pt;stroke-dasharray:none"
         id="polyline235"
         points="72.800,373.800 72.800,373.800 " />
    </g>
  </g>
</svg>
