<?xml version="1.0" encoding="UTF-8" standalone="no"?>
<!-- Created with Inkscape (http://www.inkscape.org/) -->

<svg
   xmlns:dc="http://purl.org/dc/elements/1.1/"
   xmlns:cc="http://creativecommons.org/ns#"
   xmlns:rdf="http://www.w3.org/1999/02/22-rdf-syntax-ns#"
   xmlns:svg="http://www.w3.org/2000/svg"
   xmlns="http://www.w3.org/2000/svg"
   xmlns:sodipodi="http://sodipodi.sourceforge.net/DTD/sodipodi-0.dtd"
   xmlns:inkscape="http://www.inkscape.org/namespaces/inkscape"
   width="319.89764"
   height="249.03149"
   id="svg7164"
   version="1.1"
   inkscape:version="0.48.4 r9939"
   sodipodi:docname="hilbert.svg">
  <sodipodi:namedview
     id="base"
     pagecolor="#ffffff"
     bordercolor="#666666"
     borderopacity="1.0"
     inkscape:pageopacity="0.0"
     inkscape:pageshadow="2"
     inkscape:zoom="2.8"
     inkscape:cx="98.42122"
     inkscape:cy="102.69521"
     inkscape:document-units="px"
     inkscape:current-layer="layer1"
     showgrid="true"
     inkscape:object-nodes="true"
     inkscape:window-width="2560"
     inkscape:window-height="1418"
     inkscape:window-x="1680"
     inkscape:window-y="0"
     inkscape:window-maximized="1"
     fit-margin-top="0"
     fit-margin-left="0"
     fit-margin-right="0"
     fit-margin-bottom="0">
    <inkscape:grid
       spacingy="1mm"
       spacingx="1mm"
       units="mm"
       snapvisiblegridlinesonly="true"
       enabled="true"
       visible="true"
       empspacing="5"
       id="grid7172"
       type="xygrid"
       originx="-54.717778mm"
       originy="-214.71778mm" />
  </sodipodi:namedview>
  <defs
     id="defs7166" />
  <metadata
     id="metadata7169">
    <rdf:RDF>
      <cc:Work
         rdf:about="">
        <dc:format>image/svg+xml</dc:format>
        <dc:type
           rdf:resource="http://purl.org/dc/dcmitype/StillImage" />
        <dc:title></dc:title>
      </cc:Work>
    </rdf:RDF>
  </metadata>
  <g
     id="layer1"
     inkscape:groupmode="layer"
     inkscape:label="Layer 1"
     transform="translate(-193.88189,-42.519665)">
    <path
       inkscape:connector-curvature="0"
       id="path3814"
       d="m 513.77953,184.25195 -21.25985,-7.08662 0,14.17323 21.25985,-7.08661"
       style="fill:#000000;fill-opacity:1;stroke:none" />
    <path
       inkscape:connector-curvature="0"
       id="path3808"
       d="m 194.88189,184.25195 301.1811,0"
       style="fill:none;stroke:#000000;stroke-width:2;stroke-linecap:butt;stroke-linejoin:miter;stroke-miterlimit:4;stroke-opacity:1;stroke-dasharray:none"
       sodipodi:nodetypes="cc" />
    <path
       sodipodi:nodetypes="cccc"
       inkscape:connector-curvature="0"
       id="path3812"
       d="m 329.52756,63.779505 14.17323,0 -7.08661,-21.25984 z"
       style="fill:#000000;fill-opacity:1;stroke:none" />
    <path
       sodipodi:nodetypes="cc"
       inkscape:connector-curvature="0"
       id="path3810"
       d="m 336.61417,290.55116 0,-230.314961"
       style="fill:none;stroke:#000000;stroke-width:2;stroke-linecap:butt;stroke-linejoin:miter;stroke-miterlimit:4;stroke-opacity:1;stroke-dasharray:none" />
    <path
       inkscape:connector-curvature="0"
       id="path7216"
       d="m 212.59843,131.10234 124.01574,0"
       style="fill:none;stroke:#0062ff;stroke-width:2;stroke-linecap:butt;stroke-linejoin:miter;stroke-miterlimit:4;stroke-opacity:1;stroke-dasharray:none" />
    <path
       inkscape:connector-curvature="0"
       id="path7218"
       d="m 336.61417,237.40155 141.73229,0"
       style="color:#000000;fill:none;stroke:#0062ff;stroke-width:2;stroke-linecap:butt;stroke-linejoin:miter;stroke-miterlimit:4;stroke-opacity:1;stroke-dasharray:none;stroke-dashoffset:0;marker:none;visibility:visible;display:inline;overflow:visible;enable-background:accumulate" />
    <path
       inkscape:connector-curvature="0"
       id="path7745"
       d="m 329.52756,237.40155 14.17323,0"
       style="color:#000000;fill:none;stroke:#000000;stroke-width:2;stroke-linecap:butt;stroke-linejoin:miter;stroke-miterlimit:4;stroke-opacity:1;stroke-dasharray:none;stroke-dashoffset:0;marker:none;visibility:visible;display:inline;overflow:visible;enable-background:accumulate" />
    <path
       inkscape:connector-curvature="0"
       id="path7745-4"
       d="m 329.52756,131.10234 14.17323,0"
       style="color:#000000;fill:none;stroke:#000000;stroke-width:2;stroke-linecap:butt;stroke-linejoin:miter;stroke-miterlimit:4;stroke-opacity:1;stroke-dasharray:none;stroke-dashoffset:0;marker:none;visibility:visible;display:inline;overflow:visible;enable-background:accumulate" />
    <g
       transform="matrix(0.3,0,0,0.3,261.75792,27.479739)"
       id="g7799">
      <g
         style="font-style:normal;font-variant:normal;font-weight:normal;font-stretch:normal;letter-spacing:normal;word-spacing:normal;text-anchor:start;fill:none;stroke:#000000;stroke-width:3.33333325;stroke-linecap:butt;stroke-linejoin:miter;stroke-miterlimit:10.43299961;stroke-opacity:1;stroke-dasharray:none;stroke-dashoffset:0"
         word-spacing="normal"
         letter-spacing="normal"
         font-size-adjust="none"
         font-stretch="normal"
         font-weight="normal"
         font-variant="normal"
         font-style="normal"
         stroke-miterlimit="10.433"
         xml:space="preserve"
         transform="matrix(1.0629921,0,0,-1.0629921,-186.02362,789.27165)"
         id="content"><path
           style="fill:#000000;stroke-width:0"
           inkscape:connector-curvature="0"
           id="path7802"
           d="m 475.3,437.34 0,0.09 -0.01,0.08 -0.01,0.09 -0.01,0.09 -0.02,0.08 -0.02,0.08 -0.03,0.09 -0.03,0.08 -0.03,0.07 -0.04,0.08 -0.04,0.08 -0.04,0.07 -0.05,0.07 -0.05,0.07 -0.06,0.07 -0.06,0.06 -0.06,0.06 -0.07,0.06 -0.07,0.05 -0.07,0.06 -0.08,0.04 -0.07,0.05 -0.09,0.04 -0.08,0.04 -0.09,0.03 -0.09,0.03 -0.1,0.03 -0.1,0.02 -0.1,0.01 -0.1,0.02 -0.11,0 -0.11,0.01 c -1.16,0 -2.64,-1.16 -2.64,-2.64 0,-1 0.69,-1.8 1.84,-1.8 1.35,0 2.69,1.3 2.69,2.64 z" /><path
           style="fill:#000000;stroke-width:0"
           inkscape:connector-curvature="0"
           id="path7804"
           d="m 465.29,403.71 -0.1,-0.35 -0.1,-0.35 -0.11,-0.34 -0.12,-0.33 -0.12,-0.33 -0.14,-0.32 -0.14,-0.31 -0.14,-0.3 -0.16,-0.3 -0.16,-0.29 -0.16,-0.28 -0.18,-0.26 -0.18,-0.26 -0.18,-0.25 -0.2,-0.24 -0.19,-0.23 -0.2,-0.22 -0.21,-0.2 -0.21,-0.19 -0.22,-0.19 -0.22,-0.16 -0.23,-0.16 -0.23,-0.14 -0.23,-0.13 -0.24,-0.12 -0.24,-0.1 -0.25,-0.08 -0.25,-0.08 -0.25,-0.05 -0.25,-0.04 -0.26,-0.03 -0.26,-0.01 c -0.3,0 -1.05,0 -1.95,0.46 1.5,0.36 2.25,1.64 2.25,2.64 0,0.79 -0.55,1.75 -1.89,1.75 -1.25,0 -2.69,-1.05 -2.69,-2.85 0,-2 1.98,-3.09 4.37,-3.09 3.49,0 8.13,2.64 9.38,7.58 l 4.58,18.23 c 0.25,1 0.25,1.69 0.25,1.85 0,2.84 -2.1,4.57 -4.58,4.57 -5.09,0 -7.92,-7.21 -7.92,-7.67 0,-0.5 0.48,-0.5 0.59,-0.5 0.45,0 0.5,0.07 0.89,1 1.25,3.05 3.55,6.08 6.28,6.08 0.71,0 1.6,-0.2 1.6,-2.28 0,-1.16 -0.16,-1.7 -0.35,-2.55 z" /></g>    </g>
    <g
       transform="matrix(0.3,0,0,0.3,214.86969,133.77895)"
       id="g7846">
      <g
         style="font-style:normal;font-variant:normal;font-weight:normal;font-stretch:normal;letter-spacing:normal;word-spacing:normal;text-anchor:start;fill:none;stroke:#000000;stroke-width:3.33333325;stroke-linecap:butt;stroke-linejoin:miter;stroke-miterlimit:10.43299961;stroke-opacity:1;stroke-dasharray:none;stroke-dashoffset:0"
         id="g7848"
         transform="matrix(1.0629921,0,0,-1.0629921,-186.02362,789.27165)"
         xml:space="preserve"
         stroke-miterlimit="10.433"
         font-style="normal"
         font-variant="normal"
         font-weight="normal"
         font-stretch="normal"
         font-size-adjust="none"
         letter-spacing="normal"
         word-spacing="normal"><path
           style="fill:#000000;stroke-width:0"
           inkscape:connector-curvature="0"
           d="m 488.35,417.65 0.16,0 0.16,0 0.15,0.01 0.08,0 0.08,0.01 0.07,0 0.08,0.01 0.07,0.01 0.07,0.01 0.07,0.02 0.07,0.02 0.07,0.02 0.06,0.02 0.06,0.02 0.06,0.03 0.05,0.03 0.06,0.04 0.05,0.03 0.04,0.05 0.04,0.04 0.04,0.05 0.02,0.03 0.02,0.03 0.01,0.03 0.02,0.03 0.01,0.03 0.02,0.03 0.01,0.04 0.01,0.03 0.01,0.04 0,0.04 0.01,0.04 0.01,0.04 0,0.04 0.01,0.04 0,0.05 0,0.04 c 0,1 -0.91,1 -1.75,1 h -26.96 c -0.84,0 -1.73,0 -1.73,-1 0,-1 0.89,-1 1.73,-1 z"
           id="path7850" /><path
           style="fill:#000000;stroke-width:0"
           inkscape:connector-curvature="0"
           d="m 514.06,437.34 0,0.09 -0.01,0.08 -0.01,0.09 -0.01,0.09 -0.02,0.08 -0.02,0.08 -0.03,0.09 -0.03,0.08 -0.03,0.07 -0.04,0.08 -0.04,0.08 -0.05,0.07 -0.04,0.07 -0.06,0.07 -0.05,0.07 -0.06,0.06 -0.06,0.06 -0.07,0.06 -0.07,0.05 -0.07,0.06 -0.08,0.04 -0.08,0.05 -0.08,0.04 -0.09,0.04 -0.08,0.03 -0.1,0.03 -0.09,0.03 -0.1,0.02 -0.1,0.01 -0.11,0.02 -0.1,0 -0.11,0.01 c -1.16,0 -2.64,-1.16 -2.64,-2.64 0,-1 0.68,-1.8 1.84,-1.8 1.35,0 2.69,1.3 2.69,2.64 z"
           id="path7852" /><path
           style="fill:#000000;stroke-width:0"
           inkscape:connector-curvature="0"
           d="m 504.04,403.71 -0.09,-0.35 -0.1,-0.35 -0.11,-0.34 -0.12,-0.33 -0.13,-0.33 -0.13,-0.32 -0.14,-0.31 -0.15,-0.3 -0.15,-0.3 -0.16,-0.29 -0.17,-0.28 -0.17,-0.26 -0.18,-0.26 -0.19,-0.25 -0.19,-0.24 -0.19,-0.23 -0.21,-0.22 -0.2,-0.2 -0.22,-0.19 -0.21,-0.19 -0.22,-0.16 -0.23,-0.16 -0.23,-0.14 -0.24,-0.13 -0.23,-0.12 -0.25,-0.1 -0.24,-0.08 -0.25,-0.08 -0.25,-0.05 -0.26,-0.04 -0.25,-0.03 -0.26,-0.01 c -0.3,0 -1.05,0 -1.96,0.46 1.5,0.36 2.25,1.64 2.25,2.64 0,0.79 -0.54,1.75 -1.89,1.75 -1.25,0 -2.68,-1.05 -2.68,-2.85 0,-2 1.98,-3.09 4.37,-3.09 3.49,0 8.13,2.64 9.38,7.58 l 4.57,18.23 c 0.26,1 0.26,1.69 0.26,1.85 0,2.84 -2.1,4.57 -4.58,4.57 -5.1,0 -7.93,-7.21 -7.93,-7.67 0,-0.5 0.49,-0.5 0.6,-0.5 0.45,0 0.5,0.07 0.89,1 1.25,3.05 3.55,6.08 6.28,6.08 0.7,0 1.59,-0.2 1.59,-2.28 0,-1.16 -0.15,-1.7 -0.34,-2.55 z"
           id="path7854" /></g>    </g>
    <g
       id="g7906"
       transform="matrix(0.3,0,0,0.3,414.71079,68.742613)">
      <g
         word-spacing="normal"
         letter-spacing="normal"
         font-size-adjust="none"
         font-stretch="normal"
         font-weight="normal"
         font-variant="normal"
         font-style="normal"
         stroke-miterlimit="10.433"
         xml:space="preserve"
         transform="matrix(1.0629921,0,0,-1.0629921,-186.02362,789.27165)"
         id="g7908"
         style="font-style:normal;font-variant:normal;font-weight:normal;font-stretch:normal;letter-spacing:normal;word-spacing:normal;text-anchor:start;fill:none;stroke:#000000;stroke-width:3.33333325;stroke-linecap:butt;stroke-linejoin:miter;stroke-miterlimit:10.43299961;stroke-opacity:1;stroke-dasharray:none;stroke-dashoffset:0"><path
           id="path7910"
           d="m 485.66,424.73 0,0.21 -0.01,0.2 -0.01,0.2 -0.02,0.19 -0.02,0.18 -0.03,0.18 -0.03,0.17 -0.04,0.16 -0.04,0.16 -0.04,0.16 -0.05,0.14 -0.05,0.14 -0.05,0.13 -0.06,0.13 -0.07,0.12 -0.06,0.12 -0.07,0.1 -0.07,0.1 -0.08,0.1 -0.08,0.09 -0.08,0.08 -0.08,0.07 -0.08,0.07 -0.09,0.06 -0.09,0.05 -0.09,0.05 -0.1,0.04 -0.09,0.03 -0.1,0.02 -0.1,0.02 -0.1,0.01 -0.1,0 c -1.3,0 -2.64,-1.18 -2.64,-2.34 0,-0.48 0.23,-1.03 0.73,-1.48 0.86,-0.75 1.75,-2.1 1.75,-4.19 0,-2 -0.95,-4.83 -2.48,-7.13 -1.5,-2.14 -3.35,-3.82 -5.69,-3.82 -2.85,0 -4.39,1.78 -4.83,4.46 0.55,1.3 1.69,4.49 1.69,5.9 0,0.59 -0.25,1.09 -0.89,1.09 -0.41,0 -0.96,-0.11 -1.35,-0.84 -0.54,-1 -1.15,-4.24 -1.15,-6.04 -1.64,-2.34 -3.63,-4.57 -6.77,-4.57 -3.3,0 -4.34,2.93 -4.34,5.71 0,6.24 5.09,11.47 5.09,12.11 0,0.55 -0.41,0.96 -0.95,0.96 -0.66,0 -1,-0.66 -1.3,-1.11 -2.55,-3.69 -4.44,-9.61 -4.44,-14.14 0,-3.44 1.16,-7.13 5.24,-7.13 3.53,0 5.87,2.49 7.67,5.24 0.45,-2.89 2.39,-5.24 5.48,-5.24 3.89,0 6.29,3.03 8.07,6.78 1.2,2.44 3.09,9.21 3.09,12.3 z"
           inkscape:connector-curvature="0"
           style="fill:#000000;stroke-width:0" /></g>    </g>
    <g
       id="g8054"
       transform="matrix(0.3,0,0,0.3,255.0228,-12.769394)">
      <g
         word-spacing="normal"
         letter-spacing="normal"
         font-size-adjust="none"
         font-stretch="normal"
         font-weight="normal"
         font-variant="normal"
         font-style="normal"
         stroke-miterlimit="10.433"
         xml:space="preserve"
         transform="matrix(1.0629921,0,0,-1.0629921,-186.02362,789.27165)"
         id="g8056"
         style="font-style:normal;font-variant:normal;font-weight:normal;font-stretch:normal;letter-spacing:normal;word-spacing:normal;text-anchor:start;fill:none;stroke:#000000;stroke-width:3.33333325;stroke-linecap:butt;stroke-linejoin:miter;stroke-miterlimit:10.43299961;stroke-opacity:1;stroke-dasharray:none;stroke-dashoffset:0"><path
           id="path8058"
           d="m 493.54,436.39 0.04,0.16 0.04,0.16 0.04,0.15 0.04,0.14 0.04,0.14 0.04,0.13 0.04,0.12 0.05,0.11 0.05,0.11 0.05,0.11 0.06,0.09 0.07,0.09 0.07,0.09 0.08,0.08 0.09,0.07 0.09,0.07 0.11,0.06 0.11,0.06 0.13,0.05 0.14,0.05 0.15,0.04 0.16,0.04 0.09,0.02 0.09,0.02 0.09,0.01 0.1,0.02 0.1,0.01 0.1,0.01 0.11,0.02 0.11,0.01 0.12,0.01 0.12,0 0.13,0.01 0.13,0.01 0.13,0.01 0.14,0 0.14,0 0.15,0.01 0.15,0 0.16,0 0.16,0 0.17,0 c 1.3,0 1.69,0 1.69,1 0,0.55 -0.55,0.55 -0.7,0.55 -1.39,0 -4.97,-0.16 -6.38,-0.16 -1.44,0 -4.98,0.16 -6.42,0.16 -0.39,0 -0.95,0 -0.95,-1 0,-0.55 0.45,-0.55 1.4,-0.55 0.1,0 1.05,0 1.89,-0.09 0.89,-0.11 1.35,-0.16 1.35,-0.8 0,-0.2 -0.05,-0.31 -0.21,-0.95 l -2.98,-12.16 h -15.2 l 2.95,11.71 c 0.44,1.79 0.59,2.29 4.17,2.29 1.3,0 1.71,0 1.71,1 0,0.55 -0.55,0.55 -0.71,0.55 -1.39,0 -4.98,-0.16 -6.37,-0.16 -1.44,0 -4.99,0.16 -6.42,0.16 -0.41,0 -0.96,0 -0.96,-1 0,-0.55 0.46,-0.55 1.39,-0.55 0.11,0 1.05,0 1.91,-0.09 0.89,-0.11 1.34,-0.16 1.34,-0.8 0,-0.2 -0.06,-0.36 -0.2,-0.95 l -6.67,-26.75 c -0.5,-1.95 -0.61,-2.34 -4.55,-2.34 -0.89,0 -1.34,0 -1.34,-1 0,-0.55 0.61,-0.55 0.7,-0.55 1.39,0 4.94,0.16 6.33,0.16 1.05,0 2.14,-0.07 3.19,-0.07 1.09,0 2.18,-0.09 3.23,-0.09 0.41,0 1,0 1,1 0,0.55 -0.45,0.55 -1.39,0.55 -1.84,0 -3.23,0 -3.23,0.89 0,0.29 0.09,0.54 0.14,0.84 l 3.39,13.66 H 486 c -2.09,-8.27 -3.23,-13 -3.43,-13.75 -0.49,-1.6 -1.44,-1.64 -4.53,-1.64 -0.75,0 -1.19,0 -1.19,-1 0,-0.55 0.59,-0.55 0.69,-0.55 1.4,0 4.93,0.16 6.32,0.16 1.05,0 2.14,-0.07 3.19,-0.07 1.11,0 2.2,-0.09 3.25,-0.09 0.39,0 0.99,0 0.99,1 0,0.55 -0.44,0.55 -1.4,0.55 -1.84,0 -3.23,0 -3.23,0.89 0,0.29 0.09,0.54 0.14,0.84 z"
           inkscape:connector-curvature="0"
           style="fill:#000000;stroke-width:0" /><path
           id="path8060"
           d="m 510.44,410.54 0.12,0.43 0.12,0.42 0.11,0.41 0.1,0.39 0.1,0.38 0.09,0.37 0.08,0.36 0.08,0.34 0.08,0.34 0.07,0.33 0.07,0.31 0.06,0.3 0.06,0.3 0.05,0.28 0.06,0.28 0.04,0.26 c 0.43,2.41 0.52,4.22 0.52,4.25 0,0.74 -0.34,2.27 -2.64,2.27 -7.39,0 -11.33,-6.06 -11.33,-6.69 0,-0.03 0,-0.28 0.42,-0.28 0.14,0 1.82,0.2 2.86,1.81 0.94,1.5 2.05,3.03 5.56,3.03 1.5,0 1.9,-0.97 1.9,-1.7 0,-0.22 -0.18,-2.16 -0.46,-3.87 -0.34,-2.02 -0.67,-3.24 -0.94,-4.32 h -1.46 c -1.05,-0.03 -2.75,-1.22 -2.75,-1.84 0,-0.28 0.31,-0.28 0.9,-0.28 h 2.72 c -0.7,-2.55 -1.95,-6.42 -3.45,-10.14 -0.2,-0.53 -0.2,-0.6 -0.2,-0.67 0,-0.07 0.03,-0.27 0.4,-0.27 0.53,0 2.31,0.62 2.83,1.87 0.17,0.43 1.92,4.68 3.2,9.21 h 8.86 c 0.31,0 1.11,0 1.71,0.34 -0.77,-2.72 -1.13,-4.53 -1.19,-4.98 -0.42,-2.38 -0.57,-4.39 -0.57,-4.57 0,-0.87 0.5,-2.2 2.41,-2.2 5.19,0 7.81,3.05 7.81,4.19 0,0.17 -0.14,0.31 -0.39,0.31 -0.65,0 -2.43,-0.8 -2.81,-1.81 -0.11,-0.31 -0.14,-0.34 -0.91,-0.45 -0.73,-0.1 -0.81,-0.1 -1.21,-0.1 -1.1,0 -1.64,0.69 -1.64,1.63 0,0.67 0.17,7.11 5.53,20.87 0.21,0.46 0.21,0.53 0.21,0.6 0,0.28 -0.24,0.31 -0.45,0.31 -0.45,0 -1.44,-0.38 -2.23,-1.08 -0.17,-0.14 -0.32,-0.28 -0.42,-0.45 -0.07,-0.14 -1.88,-4.36 -3.66,-10.49 z"
           inkscape:connector-curvature="0"
           style="fill:#000000;stroke-width:0" /><path
           id="path8062"
           d="m 550.12,394.25 0,0.02 0,0.03 0,0.01 0,0.02 0,0.01 -0.01,0.02 0,0.01 -0.01,0.02 -0.01,0.02 -0.01,0.02 -0.01,0.02 -0.02,0.03 -0.01,0.02 -0.02,0.03 -0.02,0.03 -0.03,0.03 -0.02,0.03 -0.03,0.04 -0.02,0.02 -0.01,0.02 -0.02,0.02 -0.02,0.02 -0.02,0.02 -0.02,0.03 -0.02,0.02 -0.02,0.02 -0.02,0.03 -0.03,0.02 -0.02,0.03 -0.03,0.03 -0.02,0.03 -0.03,0.03 -0.03,0.03 -0.03,0.03 -0.03,0.03 -0.03,0.03 -0.04,0.04 -0.03,0.03 -0.04,0.04 -0.03,0.03 -0.04,0.04 -0.04,0.04 c -6.22,6.28 -7.81,15.69 -7.81,23.31 0,8.67 1.89,17.35 8.01,23.56 0.64,0.61 0.64,0.71 0.64,0.86 0,0.35 -0.18,0.49 -0.48,0.49 -0.5,0 -4.98,-3.38 -7.92,-9.7 -2.55,-5.49 -3.14,-11.02 -3.14,-15.21 0,-3.89 0.54,-9.9 3.28,-15.54 2.98,-6.13 7.28,-9.36 7.78,-9.36 0.3,0 0.48,0.14 0.48,0.5 z"
           inkscape:connector-curvature="0"
           style="fill:#000000;stroke-width:0" /><path
           id="path8064"
           d="m 572.74,437.34 0,0.09 -0.01,0.08 -0.01,0.09 -0.01,0.09 -0.02,0.08 -0.02,0.08 -0.03,0.09 -0.03,0.08 -0.03,0.07 -0.04,0.08 -0.04,0.08 -0.05,0.07 -0.05,0.07 -0.05,0.07 -0.05,0.07 -0.06,0.06 -0.06,0.06 -0.07,0.06 -0.07,0.05 -0.07,0.06 -0.08,0.04 -0.08,0.05 -0.08,0.04 -0.09,0.04 -0.08,0.03 -0.1,0.03 -0.09,0.03 -0.1,0.02 -0.1,0.01 -0.11,0.02 -0.1,0 -0.11,0.01 c -1.16,0 -2.64,-1.16 -2.64,-2.64 0,-1 0.69,-1.8 1.84,-1.8 1.35,0 2.69,1.3 2.69,2.64 z"
           inkscape:connector-curvature="0"
           style="fill:#000000;stroke-width:0" /><path
           id="path8066"
           d="m 562.72,403.71 -0.09,-0.35 -0.1,-0.35 -0.11,-0.34 -0.12,-0.33 -0.13,-0.33 -0.13,-0.32 -0.14,-0.31 -0.14,-0.3 -0.16,-0.3 -0.16,-0.29 -0.17,-0.28 -0.17,-0.26 -0.18,-0.26 -0.19,-0.25 -0.19,-0.24 -0.19,-0.23 -0.21,-0.22 -0.2,-0.2 -0.22,-0.19 -0.21,-0.19 -0.22,-0.16 -0.23,-0.16 -0.23,-0.14 -0.24,-0.13 -0.23,-0.12 -0.25,-0.1 -0.24,-0.08 -0.25,-0.08 -0.25,-0.05 -0.26,-0.04 -0.25,-0.03 -0.26,-0.01 c -0.3,0 -1.05,0 -1.95,0.46 1.5,0.36 2.25,1.64 2.25,2.64 0,0.79 -0.55,1.75 -1.9,1.75 -1.25,0 -2.68,-1.05 -2.68,-2.85 0,-2 1.98,-3.09 4.37,-3.09 3.49,0 8.13,2.64 9.38,7.58 l 4.58,18.23 c 0.25,1 0.25,1.69 0.25,1.85 0,2.84 -2.1,4.57 -4.58,4.57 -5.1,0 -7.92,-7.21 -7.92,-7.67 0,-0.5 0.48,-0.5 0.59,-0.5 0.45,0 0.5,0.07 0.89,1 1.25,3.05 3.55,6.08 6.28,6.08 0.7,0 1.59,-0.2 1.59,-2.28 0,-1.16 -0.15,-1.7 -0.34,-2.55 z"
           inkscape:connector-curvature="0"
           style="fill:#000000;stroke-width:0" /><path
           id="path8068"
           d="m 606.5,424.73 -0.01,0.21 0,0.2 -0.02,0.2 -0.01,0.19 -0.03,0.18 -0.02,0.18 -0.03,0.17 -0.04,0.16 -0.04,0.16 -0.04,0.16 -0.05,0.14 -0.05,0.14 -0.06,0.13 -0.06,0.13 -0.06,0.12 -0.07,0.12 -0.07,0.1 -0.07,0.1 -0.07,0.1 -0.08,0.09 -0.08,0.08 -0.08,0.07 -0.09,0.07 -0.09,0.06 -0.09,0.05 -0.09,0.05 -0.09,0.04 -0.1,0.03 -0.1,0.02 -0.1,0.02 -0.1,0.01 -0.1,0 c -1.29,0 -2.64,-1.18 -2.64,-2.34 0,-0.48 0.23,-1.03 0.73,-1.48 0.87,-0.75 1.75,-2.1 1.75,-4.19 0,-2 -0.95,-4.83 -2.48,-7.13 -1.5,-2.14 -3.34,-3.82 -5.69,-3.82 -2.84,0 -4.39,1.78 -4.83,4.46 0.55,1.3 1.69,4.49 1.69,5.9 0,0.59 -0.25,1.09 -0.89,1.09 -0.4,0 -0.95,-0.11 -1.34,-0.84 -0.55,-1 -1.16,-4.24 -1.16,-6.04 -1.64,-2.34 -3.62,-4.57 -6.76,-4.57 -3.3,0 -4.35,2.93 -4.35,5.71 0,6.24 5.1,11.47 5.1,12.11 0,0.55 -0.41,0.96 -0.96,0.96 -0.65,0 -1,-0.66 -1.29,-1.11 -2.55,-3.69 -4.44,-9.61 -4.44,-14.14 0,-3.44 1.15,-7.13 5.23,-7.13 3.54,0 5.88,2.49 7.67,5.24 0.46,-2.89 2.4,-5.24 5.49,-5.24 3.89,0 6.28,3.03 8.06,6.78 1.2,2.44 3.1,9.21 3.1,12.3 z"
           inkscape:connector-curvature="0"
           style="fill:#000000;stroke-width:0" /><path
           id="path8070"
           d="m 623.5,418.65 0,0.37 0,0.39 -0.01,0.39 -0.01,0.41 -0.04,0.84 -0.06,0.88 -0.09,0.92 -0.1,0.95 -0.14,0.97 -0.16,1.01 -0.2,1.02 -0.23,1.03 -0.26,1.05 -0.31,1.06 -0.35,1.07 -0.39,1.07 -0.21,0.53 -0.23,0.53 -0.24,0.53 -0.25,0.53 c -2.98,6.12 -7.26,9.36 -7.76,9.36 -0.3,0 -0.5,-0.19 -0.5,-0.49 0,-0.15 0,-0.25 0.94,-1.15 4.88,-4.92 7.73,-12.85 7.73,-23.27 0,-8.51 -1.85,-17.28 -8.03,-23.56 -0.64,-0.59 -0.64,-0.7 -0.64,-0.84 0,-0.3 0.2,-0.5 0.5,-0.5 0.5,0 4.97,3.39 7.92,9.71 2.53,5.47 3.12,11 3.12,15.19 z"
           inkscape:connector-curvature="0"
           style="fill:#000000;stroke-width:0" /></g>    </g>
  </g>
</svg>
